IntelOneMono-Light.ufo
<glyph name="exclam" format="2">
  <advance width="614"/>
  <unicode hex="0021"/>
  <outline>
    <contour>
      <point x="290" y="227" type="line"/>
      <point x="324" y="227" type="line"/>
      <point x="367" y="710" type="line"/>
      <point x="248" y="710" type="line"/>
    </contour>
    <contour>
      <point x="306" y="-15" type="curve" smooth="yes"/>
      <point x="344" y="-15"/>
      <point x="368" y="4"/>
      <point x="368" y="37" type="curve" smooth="yes"/>
      <point x="368" y="71"/>
      <point x="348" y="92"/>
      <point x="308" y="92" type="curve" smooth="yes"/>
      <point x="270" y="92"/>
      <point x="246" y="68"/>
      <point x="246" y="40" type="curve" smooth="yes"/>
      <point x="246" y="3"/>
      <point x="273" y="-15"/>
    </contour>
  </outline>
</glyph>
<glyph name="dollar" format="2">
  <advance width="614"/>
  <unicode hex="0024"/>
  <outline>
    <contour>
      <point x="343" y="-142" type="line"/>
      <point x="343" y="1" type="line"/>
      <point x="462" y="11"/>
      <point x="535" y="73"/>
      <point x="535" y="179" type="curve" smooth="yes"/>
      <point x="535" y="264"/>
      <point x="494" y="317"/>
      <point x="339" y="366" type="curve"/>
      <point x="339" y="604" type="line"/>
      <point x="384" y="602"/>
      <point x="437" y="592"/>
      <point x="504" y="570" type="curve"/>
      <point x="519" y="623" type="line"/>
      <point x="448" y="642"/>
      <point x="400" y="652"/>
      <point x="343" y="655" type="curve"/>
      <point x="343" y="797" type="line"/>
      <point x="290" y="797" type="line"/>
      <point x="290" y="654" type="line"/>
      <point x="162" y="645"/>
      <point x="103" y="573"/>
      <point x="103" y="499" type="curve" smooth="yes"/>
      <point x="103" y="418"/>
      <point x="151" y="351"/>
      <point x="294" y="311" type="curve"/>
      <point x="294" y="51" type="line"/>
      <point x="241" y="54"/>
      <point x="167" y="74"/>
      <point x="94" y="102" type="curve"/>
      <point x="75" y="49" type="line"/>
      <point x="155" y="19"/>
      <point x="223" y="3"/>
      <point x="290" y="0" type="curve"/>
      <point x="290" y="-142" type="line"/>
    </contour>
    <contour>
      <point x="166" y="503" type="curve" smooth="yes"/>
      <point x="166" y="555"/>
      <point x="203" y="598"/>
      <point x="294" y="604" type="curve"/>
      <point x="294" y="373" type="line"/>
      <point x="192" y="407"/>
      <point x="166" y="447"/>
    </contour>
    <contour>
      <point x="472" y="177" type="curve" smooth="yes"/>
      <point x="472" y="107"/>
      <point x="428" y="60"/>
      <point x="339" y="51" type="curve"/>
      <point x="339" y="304" type="line"/>
      <point x="447" y="269"/>
      <point x="472" y="227"/>
    </contour>
  </outline>
</glyph>
<glyph name="percent" format="2">
  <advance width="614"/>
  <unicode hex="0025"/>
  <outline>
    <contour>
      <point x="47" y="493" type="curve" smooth="yes"/>
      <point x="47" y="384"/>
      <point x="93" y="317"/>
      <point x="187" y="317" type="curve" smooth="yes"/>
      <point x="282" y="317"/>
      <point x="331" y="385"/>
      <point x="331" y="494" type="curve" smooth="yes"/>
      <point x="331" y="604"/>
      <point x="282" y="670"/>
      <point x="188" y="670" type="curve" smooth="yes"/>
      <point x="95" y="670"/>
      <point x="47" y="602"/>
    </contour>
    <contour>
      <point x="387" y="376" type="line"/>
      <point x="582" y="654" type="line"/>
      <point x="582" y="660" type="line"/>
      <point x="505" y="660" type="line"/>
      <point x="352" y="376" type="line"/>
    </contour>
    <contour>
      <point x="187" y="624" type="curve" smooth="yes"/>
      <point x="248" y="624"/>
      <point x="275" y="576"/>
      <point x="275" y="493" type="curve" smooth="yes"/>
      <point x="275" y="410"/>
      <point x="249" y="365"/>
      <point x="188" y="365" type="curve" smooth="yes"/>
      <point x="128" y="365"/>
      <point x="102" y="411"/>
      <point x="102" y="494" type="curve" smooth="yes"/>
      <point x="102" y="576"/>
      <point x="127" y="624"/>
    </contour>
    <contour>
      <point x="283" y="161" type="curve" smooth="yes"/>
      <point x="283" y="52"/>
      <point x="332" y="-15"/>
      <point x="426" y="-15" type="curve" smooth="yes"/>
      <point x="519" y="-15"/>
      <point x="567" y="53"/>
      <point x="567" y="162" type="curve" smooth="yes"/>
      <point x="567" y="271"/>
      <point x="521" y="338"/>
      <point x="427" y="338" type="curve" smooth="yes"/>
      <point x="332" y="338"/>
      <point x="283" y="270"/>
    </contour>
    <contour>
      <point x="427" y="31" type="curve" smooth="yes"/>
      <point x="366" y="31"/>
      <point x="339" y="79"/>
      <point x="339" y="162" type="curve" smooth="yes"/>
      <point x="339" y="245"/>
      <point x="365" y="290"/>
      <point x="426" y="290" type="curve" smooth="yes"/>
      <point x="486" y="290"/>
      <point x="512" y="244"/>
      <point x="512" y="161" type="curve" smooth="yes"/>
      <point x="512" y="80"/>
      <point x="487" y="31"/>
    </contour>
    <contour>
      <point x="227" y="279" type="line"/>
      <point x="32" y="1" type="line"/>
      <point x="32" y="-5" type="line"/>
      <point x="109" y="-5" type="line"/>
      <point x="262" y="279" type="line"/>
    </contour>
  </outline>
</glyph>
<glyph name="ampersand" format="2">
  <advance width="614"/>
  <unicode hex="0026"/>
  <outline>
    <contour>
      <point x="472" y="647" type="line"/>
      <point x="397" y="662"/>
      <point x="353" y="669"/>
      <point x="316" y="669" type="curve" smooth="yes"/>
      <point x="211" y="669"/>
      <point x="161" y="610"/>
      <point x="161" y="540" type="curve" smooth="yes"/>
      <point x="161" y="508"/>
      <point x="175" y="471"/>
      <point x="221" y="407" type="curve" smooth="yes"/>
      <point x="249" y="368" type="line"/>
      <point x="94" y="320"/>
      <point x="61" y="265"/>
      <point x="61" y="162" type="curve" smooth="yes"/>
      <point x="61" y="58"/>
      <point x="131" y="-5"/>
      <point x="222" y="-5" type="curve" smooth="yes"/>
      <point x="317" y="-5"/>
      <point x="367" y="28"/>
      <point x="417" y="137" type="curve"/>
      <point x="517" y="0" type="line"/>
      <point x="592" y="0" type="line"/>
      <point x="447" y="194" type="line"/>
      <point x="531" y="417" type="line"/>
      <point x="481" y="435" type="line"/>
      <point x="412" y="236" type="line"/>
      <point x="273" y="429" type="line" smooth="yes"/>
      <point x="228" y="492"/>
      <point x="219" y="522"/>
      <point x="219" y="546" type="curve" smooth="yes"/>
      <point x="219" y="587"/>
      <point x="250" y="618"/>
      <point x="307" y="618" type="curve" smooth="yes"/>
      <point x="344" y="618"/>
      <point x="385" y="613"/>
      <point x="461" y="596" type="curve"/>
    </contour>
    <contour>
      <point x="121" y="166" type="curve" smooth="yes"/>
      <point x="121" y="248"/>
      <point x="136" y="282"/>
      <point x="276" y="329" type="curve"/>
      <point x="384" y="178" type="line"/>
      <point x="338" y="71"/>
      <point x="297" y="47"/>
      <point x="230" y="47" type="curve" smooth="yes"/>
      <point x="169" y="47"/>
      <point x="121" y="88"/>
    </contour>
  </outline>
</glyph>
<glyph name="quotesingle" format="2">
  <advance width="614"/>
  <unicode hex="0027"/>
  <outline>
    <contour>
      <point x="278" y="426" type="line"/>
      <point x="336" y="426" type="line"/>
      <point x="357" y="710" type="line"/>
      <point x="257" y="710" type="line"/>
    </contour>
  </outline>
</glyph>
<glyph name="asterisk" format="2">
  <advance width="614"/>
  <unicode hex="002A"/>
  <guideline x="294" y="359" angle="180.0" identifier="YkQCsAMSsB"/>
  <outline>
    <contour>
      <point x="111" y="225" type="curve"/>
      <point x="183" y="163" type="line"/>
      <point x="225" y="212"/>
      <point x="263" y="298"/>
      <point x="307" y="353" type="curve"/>
      <point x="351" y="298"/>
      <point x="389" y="212"/>
      <point x="431" y="163" type="curve"/>
      <point x="503" y="225" type="line"/>
      <point x="460" y="275"/>
      <point x="378" y="323"/>
      <point x="331" y="374" type="curve"/>
      <point x="398" y="395"/>
      <point x="492" y="398"/>
      <point x="553" y="420" type="curve"/>
      <point x="521" y="510" type="line"/>
      <point x="461" y="488"/>
      <point x="387" y="432"/>
      <point x="323" y="406" type="curve"/>
      <point x="326" y="475"/>
      <point x="355" y="565"/>
      <point x="355" y="630" type="curve"/>
      <point x="260" y="630" type="line"/>
      <point x="260" y="565"/>
      <point x="288" y="476"/>
      <point x="291" y="406" type="curve"/>
      <point x="227" y="432"/>
      <point x="153" y="488"/>
      <point x="93" y="510" type="curve"/>
      <point x="61" y="420" type="line"/>
      <point x="122" y="398"/>
      <point x="216" y="395"/>
      <point x="283" y="374" type="curve"/>
      <point x="236" y="323"/>
      <point x="154" y="275"/>
    </contour>
  </outline>
</glyph>
<glyph name="period" format="2">
  <advance width="614"/>
  <unicode hex="002E"/>
  <outline>
    <contour>
      <point x="307" y="-15" type="curve" smooth="yes"/>
      <point x="351" y="-15"/>
      <point x="378" y="10"/>
      <point x="378" y="54" type="curve" smooth="yes"/>
      <point x="378" y="96"/>
      <point x="354" y="122"/>
      <point x="307" y="122" type="curve" smooth="yes"/>
      <point x="263" y="122"/>
      <point x="236" y="97"/>
      <point x="236" y="53" type="curve" smooth="yes"/>
      <point x="236" y="11"/>
      <point x="260" y="-15"/>
    </contour>
  </outline>
</glyph>
<glyph name="zero" format="2">
  <advance width="614"/>
  <unicode hex="0030"/>
  <outline>
    <contour>
      <point x="546" y="329" type="curve" smooth="yes"/>
      <point x="546" y="547"/>
      <point x="452" y="670"/>
      <point x="307" y="670" type="curve" smooth="yes"/>
      <point x="164" y="670"/>
      <point x="68" y="543"/>
      <point x="68" y="325" type="curve" smooth="yes"/>
      <point x="68" y="105"/>
      <point x="163" y="-15"/>
      <point x="307" y="-15" type="curve" smooth="yes"/>
      <point x="450" y="-15"/>
      <point x="546" y="108"/>
    </contour>
    <contour>
      <point x="131" y="327" type="curve" smooth="yes"/>
      <point x="131" y="518"/>
      <point x="197" y="619"/>
      <point x="307" y="619" type="curve" smooth="yes"/>
      <point x="384" y="619"/>
      <point x="441" y="568"/>
      <point x="467" y="468" type="curve"/>
      <point x="138" y="230" type="line"/>
      <point x="133" y="259"/>
      <point x="131" y="292"/>
    </contour>
    <contour>
      <point x="483" y="327" type="curve" smooth="yes"/>
      <point x="483" y="137"/>
      <point x="416" y="36"/>
      <point x="307" y="36" type="curve" smooth="yes"/>
      <point x="230" y="36"/>
      <point x="174" y="86"/>
      <point x="148" y="183" type="curve"/>
      <point x="477" y="421" type="line"/>
      <point x="481" y="393"/>
      <point x="483" y="361"/>
    </contour>
  </outline>
</glyph>
<glyph name="five" format="2">
  <advance width="614"/>
  <unicode hex="0035"/>
  <outline>
    <contour>
      <point x="534" y="229" type="curve" smooth="yes"/>
      <point x="534" y="353"/>
      <point x="442" y="420"/>
      <point x="338" y="420" type="curve" smooth="yes"/>
      <point x="279" y="420"/>
      <point x="225" y="402"/>
      <point x="171" y="367" type="curve"/>
      <point x="192" y="604" type="line"/>
      <point x="496" y="604" type="line"/>
      <point x="496" y="655" type="line"/>
      <point x="138" y="655" type="line"/>
      <point x="111" y="316" type="line"/>
      <point x="114" y="311" type="line"/>
      <point x="154" y="307" type="line"/>
      <point x="212" y="348"/>
      <point x="272" y="368"/>
      <point x="333" y="368" type="curve" smooth="yes"/>
      <point x="404" y="368"/>
      <point x="471" y="317"/>
      <point x="471" y="227" type="curve" smooth="yes"/>
      <point x="471" y="132"/>
      <point x="408" y="70"/>
      <point x="219" y="53" type="curve" smooth="yes"/>
      <point x="100" y="42" type="line"/>
      <point x="105" y="-10" type="line"/>
      <point x="221" y="0" type="line" smooth="yes"/>
      <point x="447" y="19"/>
      <point x="534" y="105"/>
    </contour>
  </outline>
</glyph>
<glyph name="six" format="2">
  <advance width="614"/>
  <unicode hex="0036"/>
  <outline>
    <contour>
      <point x="534" y="211" type="curve" smooth="yes"/>
      <point x="534" y="337"/>
      <point x="444" y="421"/>
      <point x="318" y="421" type="curve" smooth="yes"/>
      <point x="276" y="421"/>
      <point x="236" y="415"/>
      <point x="189" y="399" type="curve"/>
      <point x="215" y="442"/>
      <point x="253" y="484"/>
      <point x="305" y="530" type="curve" smooth="yes"/>
      <point x="445" y="653" type="line"/>
      <point x="444" y="655" type="line"/>
      <point x="355" y="655" type="line"/>
      <point x="249" y="557" type="line" smooth="yes"/>
      <point x="127" y="444"/>
      <point x="82" y="367"/>
      <point x="82" y="229" type="curve" smooth="yes"/>
      <point x="82" y="60"/>
      <point x="203" y="-15"/>
      <point x="309" y="-15" type="curve" smooth="yes"/>
      <point x="439" y="-15"/>
      <point x="534" y="80"/>
    </contour>
    <contour>
      <point x="145" y="233" type="curve" smooth="yes"/>
      <point x="145" y="273"/>
      <point x="151" y="309"/>
      <point x="163" y="344" type="curve"/>
      <point x="212" y="361"/>
      <point x="260" y="370"/>
      <point x="308" y="370" type="curve" smooth="yes"/>
      <point x="411" y="370"/>
      <point x="471" y="303"/>
      <point x="471" y="213" type="curve" smooth="yes"/>
      <point x="471" y="115"/>
      <point x="409" y="36"/>
      <point x="311" y="36" type="curve" smooth="yes"/>
      <point x="218" y="36"/>
      <point x="145" y="110"/>
    </contour>
  </outline>
</glyph>
<glyph name="eight" format="2">
  <advance width="614"/>
  <unicode hex="0038"/>
  <outline>
    <contour>
      <point x="306" y="-15" type="curve" smooth="yes"/>
      <point x="435" y="-15"/>
      <point x="531" y="59"/>
      <point x="531" y="175" type="curve" smooth="yes"/>
      <point x="531" y="254"/>
      <point x="470" y="316"/>
      <point x="381" y="338" type="curve"/>
      <point x="381" y="343" type="line"/>
      <point x="458" y="367"/>
      <point x="510" y="425"/>
      <point x="510" y="494" type="curve" smooth="yes"/>
      <point x="510" y="601"/>
      <point x="426" y="670"/>
      <point x="309" y="670" type="curve" smooth="yes"/>
      <point x="191" y="670"/>
      <point x="104" y="600"/>
      <point x="104" y="492" type="curve" smooth="yes"/>
      <point x="104" y="422"/>
      <point x="157" y="366"/>
      <point x="234" y="343" type="curve"/>
      <point x="234" y="338" type="line"/>
      <point x="145" y="315"/>
      <point x="83" y="252"/>
      <point x="83" y="173" type="curve" smooth="yes"/>
      <point x="83" y="58"/>
      <point x="178" y="-15"/>
    </contour>
    <contour>
      <point x="308" y="365" type="curve" smooth="yes"/>
      <point x="234" y="365"/>
      <point x="167" y="419"/>
      <point x="167" y="494" type="curve" smooth="yes"/>
      <point x="167" y="572"/>
      <point x="226" y="619"/>
      <point x="307" y="619" type="curve" smooth="yes"/>
      <point x="387" y="619"/>
      <point x="447" y="571"/>
      <point x="447" y="496" type="curve" smooth="yes"/>
      <point x="447" y="420"/>
      <point x="381" y="365"/>
    </contour>
    <contour>
      <point x="308" y="36" type="curve" smooth="yes"/>
      <point x="216" y="36"/>
      <point x="146" y="89"/>
      <point x="146" y="171" type="curve" smooth="yes"/>
      <point x="146" y="255"/>
      <point x="220" y="312"/>
      <point x="307" y="312" type="curve" smooth="yes"/>
      <point x="394" y="312"/>
      <point x="468" y="257"/>
      <point x="468" y="173" type="curve" smooth="yes"/>
      <point x="468" y="88"/>
      <point x="399" y="36"/>
    </contour>
  </outline>
</glyph>
<glyph name="nine" format="2">
  <advance width="614"/>
  <unicode hex="0039"/>
  <outline>
    <contour>
      <point x="367" y="98" type="line" smooth="yes"/>
      <point x="484" y="207"/>
      <point x="534" y="297"/>
      <point x="534" y="426" type="curve" smooth="yes"/>
      <point x="534" y="595"/>
      <point x="419" y="670"/>
      <point x="315" y="670" type="curve" smooth="yes"/>
      <point x="177" y="670"/>
      <point x="82" y="575"/>
      <point x="82" y="444" type="curve" smooth="yes"/>
      <point x="82" y="318"/>
      <point x="172" y="234"/>
      <point x="298" y="234" type="curve" smooth="yes"/>
      <point x="340" y="234"/>
      <point x="380" y="240"/>
      <point x="427" y="256" type="curve"/>
      <point x="401" y="213"/>
      <point x="363" y="171"/>
      <point x="311" y="125" type="curve" smooth="yes"/>
      <point x="171" y="2" type="line"/>
      <point x="172" y="0" type="line"/>
      <point x="261" y="0" type="line"/>
    </contour>
    <contour>
      <point x="471" y="422" type="curve" smooth="yes"/>
      <point x="471" y="382"/>
      <point x="465" y="346"/>
      <point x="453" y="311" type="curve"/>
      <point x="404" y="294"/>
      <point x="356" y="285"/>
      <point x="308" y="285" type="curve" smooth="yes"/>
      <point x="205" y="285"/>
      <point x="145" y="352"/>
      <point x="145" y="442" type="curve" smooth="yes"/>
      <point x="145" y="540"/>
      <point x="207" y="619"/>
      <point x="305" y="619" type="curve" smooth="yes"/>
      <point x="398" y="619"/>
      <point x="471" y="545"/>
    </contour>
  </outline>
</glyph>
<glyph name="at" format="2">
  <advance width="614"/>
  <unicode hex="0040"/>
  <guideline x="471" y="-28" angle="77.1489107691877" identifier="3whqXdGgid"/>
  <outline>
    <contour>
      <point x="492" y="-60" type="curve"/>
      <point x="485" y="-15" type="line"/>
      <point x="426" y="-29"/>
      <point x="382" y="-34"/>
      <point x="346" y="-34" type="curve" smooth="yes"/>
      <point x="189" y="-34"/>
      <point x="107" y="55"/>
      <point x="107" y="320" type="curve" smooth="yes"/>
      <point x="107" y="603"/>
      <point x="191" y="680"/>
      <point x="328" y="680" type="curve" smooth="yes"/>
      <point x="434" y="680"/>
      <point x="485" y="645"/>
      <point x="504" y="515" type="curve"/>
      <point x="403" y="515" type="line" smooth="yes"/>
      <point x="290" y="515"/>
      <point x="224" y="461"/>
      <point x="224" y="323" type="curve" smooth="yes"/>
      <point x="224" y="187"/>
      <point x="276" y="129"/>
      <point x="394" y="129" type="curve" smooth="yes"/>
      <point x="501" y="129"/>
      <point x="560" y="179"/>
      <point x="560" y="358" type="curve" smooth="yes"/>
      <point x="560" y="661"/>
      <point x="484" y="725"/>
      <point x="334" y="725" type="curve" smooth="yes"/>
      <point x="165" y="725"/>
      <point x="60" y="627"/>
      <point x="60" y="315" type="curve" smooth="yes"/>
      <point x="60" y="24"/>
      <point x="152" y="-79"/>
      <point x="341" y="-79" type="curve" smooth="yes"/>
      <point x="390" y="-79"/>
      <point x="432" y="-73"/>
    </contour>
    <contour>
      <point x="279" y="322" type="curve" smooth="yes"/>
      <point x="279" y="431"/>
      <point x="322" y="469"/>
      <point x="401" y="469" type="curve" smooth="yes"/>
      <point x="509" y="469" type="line"/>
      <point x="512" y="436"/>
      <point x="513" y="399"/>
      <point x="513" y="356" type="curve" smooth="yes"/>
      <point x="513" y="220"/>
      <point x="477" y="175"/>
      <point x="398" y="175" type="curve" smooth="yes"/>
      <point x="318" y="175"/>
      <point x="279" y="211"/>
    </contour>
  </outline>
</glyph>
<glyph name="A" format="2">
  <advance width="614"/>
  <unicode hex="0041"/>
  <anchor x="307" y="691" name="aboveUC"/>
  <anchor x="307" y="651" name="aboveUCx"/>
  <anchor x="534" y="-10" name="belowogonek"/>
  <anchor x="307" y="-30" name="below"/>
  <anchor x="307" y="0" name="belowx"/>
  <outline>
    <contour>
      <point x="109" y="0" type="line"/>
      <point x="175" y="201" type="line"/>
      <point x="437" y="201" type="line"/>
      <point x="504" y="0" type="line"/>
      <point x="568" y="0" type="line"/>
      <point x="345" y="655" type="line"/>
      <point x="271" y="655" type="line"/>
      <point x="46" y="0" type="line"/>
    </contour>
    <contour>
      <point x="192" y="252" type="line"/>
      <point x="305" y="596" type="line"/>
      <point x="420" y="252" type="line"/>
    </contour>
  </outline>
</glyph>
<glyph name="D" format="2">
  <advance width="614"/>
  <unicode hex="0044"/>
  <anchor x="273" y="691" name="aboveUC"/>
  <anchor x="274" y="-35" name="below"/>
  <outline>
    <contour>
      <point x="100" y="655" type="line"/>
      <point x="100" y="0" type="line"/>
      <point x="160" y="0" type="line" smooth="yes"/>
      <point x="411" y="0"/>
      <point x="559" y="120"/>
      <point x="559" y="337" type="curve" smooth="yes"/>
      <point x="559" y="542"/>
      <point x="419" y="655"/>
      <point x="200" y="655" type="curve" smooth="yes"/>
    </contour>
    <contour>
      <point x="213" y="604" type="line" smooth="yes"/>
      <point x="382" y="604"/>
      <point x="496" y="513"/>
      <point x="496" y="335" type="curve" smooth="yes"/>
      <point x="496" y="150"/>
      <point x="382" y="51"/>
      <point x="182" y="51" type="curve" smooth="yes"/>
      <point x="161" y="51" type="line"/>
      <point x="161" y="604" type="line"/>
    </contour>
  </outline>
</glyph>
<glyph name="G" format="2">
  <advance width="614"/>
  <unicode hex="0047"/>
  <anchor x="352" y="696" name="aboveUC"/>
  <anchor x="352" y="661" name="aboveUCx"/>
  <anchor x="365" y="-40" name="below"/>
  <outline>
    <contour>
      <point x="500" y="603" type="curve"/>
      <point x="505" y="655" type="line"/>
      <point x="455" y="662"/>
      <point x="427" y="664"/>
      <point x="395" y="664" type="curve" smooth="yes"/>
      <point x="201" y="664"/>
      <point x="58" y="543"/>
      <point x="58" y="326" type="curve" smooth="yes"/>
      <point x="58" y="111"/>
      <point x="155" y="-15"/>
      <point x="371" y="-15" type="curve" smooth="yes"/>
      <point x="429" y="-15"/>
      <point x="485" y="-7"/>
      <point x="548" y="10" type="curve"/>
      <point x="548" y="343" type="line"/>
      <point x="312" y="343" type="line"/>
      <point x="312" y="292" type="line"/>
      <point x="488" y="292" type="line"/>
      <point x="488" y="49" type="line"/>
      <point x="452" y="40"/>
      <point x="410" y="36"/>
      <point x="374" y="36" type="curve" smooth="yes"/>
      <point x="208" y="36"/>
      <point x="121" y="141"/>
      <point x="121" y="328" type="curve" smooth="yes"/>
      <point x="121" y="516"/>
      <point x="237" y="613"/>
      <point x="393" y="613" type="curve" smooth="yes"/>
      <point x="430" y="613"/>
      <point x="454" y="611"/>
    </contour>
  </outline>
</glyph>
<glyph name="I" format="2">
  <advance width="614"/>
  <unicode hex="0049"/>
  <anchor x="307" y="-35" name="below"/>
  <anchor x="307" y="-9" name="belowogonek"/>
  <anchor x="307" y="691" name="aboveUC"/>
  <anchor x="307" y="661" name="aboveUCx"/>
  <outline>
    <contour>
      <point x="139" y="26" type="line"/>
      <point x="139" y="0" type="line"/>
      <point x="475" y="0" type="line"/>
      <point x="475" y="26" type="line"/>
      <point x="338" y="48" type="line"/>
      <point x="338" y="607" type="line"/>
      <point x="475" y="629" type="line"/>
      <point x="475" y="655" type="line"/>
      <point x="139" y="655" type="line"/>
      <point x="139" y="629" type="line"/>
      <point x="277" y="607" type="line"/>
      <point x="277" y="48" type="line"/>
    </contour>
  </outline>
</glyph>
<glyph name="J" format="2">
  <advance width="614"/>
  <unicode hex="004A"/>
  <anchor x="472" y="691" name="aboveUC"/>
  <anchor x="472" y="651" name="aboveUCx"/>
  <outline>
    <contour>
      <point x="319" y="-10" type="curve" smooth="yes"/>
      <point x="448" y="-10"/>
      <point x="503" y="67"/>
      <point x="503" y="180" type="curve" smooth="yes"/>
      <point x="503" y="655" type="line"/>
      <point x="442" y="655" type="line"/>
      <point x="442" y="182" type="line" smooth="yes"/>
      <point x="442" y="87"/>
      <point x="401" y="40"/>
      <point x="321" y="40" type="curve" smooth="yes"/>
      <point x="266" y="40"/>
      <point x="217" y="56"/>
      <point x="98" y="175" type="curve"/>
      <point x="58" y="134" type="line"/>
      <point x="187" y="13"/>
      <point x="240" y="-10"/>
    </contour>
  </outline>
</glyph>
<glyph name="O" format="2">
  <advance width="614"/>
  <unicode hex="004F"/>
  <anchor x="307" y="696" name="aboveUC"/>
  <anchor x="307" y="661" name="aboveUCx"/>
  <anchor x="308" y="-40" name="below"/>
  <anchor x="315" y="-15" name="belowogonek"/>
  <outline>
    <contour>
      <point x="556" y="329" type="curve" smooth="yes"/>
      <point x="556" y="547"/>
      <point x="458" y="670"/>
      <point x="307" y="670" type="curve" smooth="yes"/>
      <point x="158" y="670"/>
      <point x="58" y="543"/>
      <point x="58" y="325" type="curve" smooth="yes"/>
      <point x="58" y="105"/>
      <point x="157" y="-15"/>
      <point x="307" y="-15" type="curve" smooth="yes"/>
      <point x="456" y="-15"/>
      <point x="556" y="108"/>
    </contour>
    <contour>
      <point x="121" y="327" type="curve" smooth="yes"/>
      <point x="121" y="518"/>
      <point x="191" y="619"/>
      <point x="307" y="619" type="curve" smooth="yes"/>
      <point x="421" y="619"/>
      <point x="493" y="520"/>
      <point x="493" y="327" type="curve" smooth="yes"/>
      <point x="493" y="137"/>
      <point x="422" y="36"/>
      <point x="307" y="36" type="curve" smooth="yes"/>
      <point x="193" y="36"/>
      <point x="121" y="135"/>
    </contour>
  </outline>
</glyph>
<glyph name="Q" format="2">
  <advance width="614"/>
  <unicode hex="0051"/>
  <outline>
    <contour>
      <point x="597" y="-102" type="line"/>
      <point x="470" y="56" type="line"/>
      <point x="523" y="114"/>
      <point x="556" y="207"/>
      <point x="556" y="329" type="curve" smooth="yes"/>
      <point x="556" y="547"/>
      <point x="458" y="670"/>
      <point x="307" y="670" type="curve" smooth="yes"/>
      <point x="158" y="670"/>
      <point x="58" y="543"/>
      <point x="58" y="325" type="curve" smooth="yes"/>
      <point x="58" y="105"/>
      <point x="157" y="-15"/>
      <point x="307" y="-15" type="curve" smooth="yes"/>
      <point x="353" y="-15"/>
      <point x="395" y="-2"/>
      <point x="430" y="22" type="curve"/>
      <point x="553" y="-137" type="line"/>
    </contour>
    <contour>
      <point x="121" y="327" type="curve" smooth="yes"/>
      <point x="121" y="518"/>
      <point x="191" y="619"/>
      <point x="307" y="619" type="curve" smooth="yes"/>
      <point x="421" y="619"/>
      <point x="493" y="520"/>
      <point x="493" y="327" type="curve" smooth="yes"/>
      <point x="493" y="222"/>
      <point x="473" y="145"/>
      <point x="437" y="97" type="curve"/>
      <point x="326" y="237" type="line"/>
      <point x="285" y="206" type="line"/>
      <point x="400" y="61" type="line"/>
      <point x="374" y="44"/>
      <point x="343" y="35"/>
      <point x="307" y="35" type="curve" smooth="yes"/>
      <point x="193" y="35"/>
      <point x="121" y="134"/>
    </contour>
  </outline>
</glyph>
<glyph name="R" format="2">
  <advance width="614"/>
  <unicode hex="0052"/>
  <guideline x="263" y="289" angle="9.827724011163117" identifier="x4OsohAdMW"/>
  <anchor x="333" y="691" name="aboveUC"/>
  <anchor x="321" y="-35" name="below"/>
  <anchor x="321" y="0" name="belowx"/>
  <outline>
    <contour>
      <point x="572" y="4" type="line"/>
      <point x="406" y="191" type="line" smooth="yes"/>
      <point x="348" y="257"/>
      <point x="330" y="267"/>
      <point x="286" y="282" type="curve"/>
      <point x="286" y="287" type="line"/>
      <point x="497" y="313"/>
      <point x="534" y="389"/>
      <point x="534" y="483" type="curve" smooth="yes"/>
      <point x="534" y="586"/>
      <point x="456" y="655"/>
      <point x="337" y="655" type="curve" smooth="yes"/>
      <point x="103" y="655" type="line"/>
      <point x="103" y="0" type="line"/>
      <point x="164" y="0" type="line"/>
      <point x="164" y="271" type="line"/>
      <point x="253" y="262"/>
      <point x="279" y="249"/>
      <point x="338" y="181" type="curve" smooth="yes"/>
      <point x="494" y="0" type="line"/>
      <point x="572" y="0" type="line"/>
    </contour>
    <contour>
      <point x="325" y="605" type="line" smooth="yes"/>
      <point x="425" y="605"/>
      <point x="472" y="553"/>
      <point x="472" y="478" type="curve" smooth="yes"/>
      <point x="472" y="395"/>
      <point x="428" y="340"/>
      <point x="220" y="317" type="curve" smooth="yes"/>
      <point x="164" y="311" type="line"/>
      <point x="164" y="605" type="line"/>
    </contour>
  </outline>
</glyph>
<glyph name="W" format="2">
  <advance width="614"/>
  <unicode hex="0057"/>
  <anchor x="307" y="691" name="aboveUC"/>
  <anchor x="307" y="651" name="aboveUCx"/>
  <outline>
    <contour>
      <point x="471" y="0" type="line"/>
      <point x="563" y="655" type="line"/>
      <point x="505" y="655" type="line"/>
      <point x="431" y="63" type="line"/>
      <point x="320" y="531" type="line"/>
      <point x="296" y="531" type="line"/>
      <point x="185" y="68" type="line"/>
      <point x="113" y="655" type="line"/>
      <point x="51" y="655" type="line"/>
      <point x="143" y="0" type="line"/>
      <point x="216" y="0" type="line"/>
      <point x="306" y="377" type="line"/>
      <point x="396" y="0" type="line"/>
    </contour>
  </outline>
</glyph>
<glyph name="X" format="2">
  <advance width="614"/>
  <unicode hex="0058"/>
  <anchor x="307" y="691" name="aboveUC"/>
  <anchor x="307" y="656" name="aboveUCx"/>
  <anchor x="307" y="-35" name="below"/>
  <anchor x="307" y="0" name="belowx"/>
  <outline>
    <contour>
      <point x="57" y="0" type="line"/>
      <point x="125" y="0" type="line"/>
      <point x="303" y="292" type="line"/>
      <point x="481" y="0" type="line"/>
      <point x="557" y="0" type="line"/>
      <point x="339" y="341" type="line"/>
      <point x="538" y="655" type="line"/>
      <point x="467" y="655" type="line"/>
      <point x="306" y="384" type="line"/>
      <point x="145" y="655" type="line"/>
      <point x="71" y="655" type="line"/>
      <point x="271" y="337" type="line"/>
    </contour>
  </outline>
</glyph>
<glyph name="Y" format="2">
  <advance width="614"/>
  <unicode hex="0059"/>
  <anchor x="306" y="691" name="aboveUC"/>
  <anchor x="306" y="656" name="aboveUCx"/>
  <anchor x="307" y="-35" name="below"/>
  <outline>
    <contour>
      <point x="561" y="655" type="line"/>
      <point x="491" y="655" type="line"/>
      <point x="308" y="340" type="line"/>
      <point x="125" y="655" type="line"/>
      <point x="53" y="655" type="line"/>
      <point x="277" y="279" type="line"/>
      <point x="277" y="0" type="line"/>
      <point x="338" y="0" type="line"/>
      <point x="338" y="283" type="line"/>
    </contour>
  </outline>
</glyph>
<glyph name="grave" format="2">
  <advance width="614"/>
  <unicode hex="0060"/>
  <outline>
    <contour>
      <point x="348" y="426" type="line"/>
      <point x="406" y="426" type="line"/>
      <point x="267" y="710" type="line"/>
      <point x="167" y="710" type="line"/>
    </contour>
  </outline>
</glyph>
<glyph name="b" format="2">
  <advance width="614"/>
  <unicode hex="0062"/>
  <anchor x="306" y="-35" name="below"/>
  <outline>
    <contour>
      <point x="159" y="710" type="line"/>
      <point x="100" y="710" type="line"/>
      <point x="100" y="-2" type="line"/>
      <point x="128" y="-2" type="line"/>
      <point x="154" y="36" type="line"/>
      <point x="203" y="5"/>
      <point x="254" y="-8"/>
      <point x="307" y="-8" type="curve" smooth="yes"/>
      <point x="444" y="-8"/>
      <point x="548" y="100"/>
      <point x="548" y="233" type="curve" smooth="yes"/>
      <point x="548" y="373"/>
      <point x="454" y="468"/>
      <point x="340" y="468" type="curve" smooth="yes"/>
      <point x="274" y="468"/>
      <point x="224" y="445"/>
      <point x="159" y="376" type="curve"/>
    </contour>
    <contour>
      <point x="332" y="418" type="curve" smooth="yes"/>
      <point x="413" y="418"/>
      <point x="488" y="346"/>
      <point x="488" y="234" type="curve" smooth="yes"/>
      <point x="488" y="137"/>
      <point x="422" y="42"/>
      <point x="294" y="42" type="curve" smooth="yes"/>
      <point x="252" y="42"/>
      <point x="208" y="56"/>
      <point x="159" y="90" type="curve"/>
      <point x="159" y="316" type="line"/>
      <point x="235" y="397"/>
      <point x="282" y="418"/>
    </contour>
  </outline>
</glyph>
<glyph name="d" format="2">
  <advance width="614"/>
  <unicode hex="0064"/>
  <anchor x="300" y="-35" name="below"/>
  <anchor x="620" y="787" name="topright"/>
  <outline>
    <contour>
      <point x="274" y="-8" type="curve" smooth="yes"/>
      <point x="341" y="-8"/>
      <point x="391" y="16"/>
      <point x="457" y="86" type="curve"/>
      <point x="465" y="0" type="line"/>
      <point x="514" y="0" type="line"/>
      <point x="514" y="710" type="line"/>
      <point x="455" y="710" type="line"/>
      <point x="455" y="397" type="line"/>
      <point x="394" y="454"/>
      <point x="340" y="468"/>
      <point x="296" y="468" type="curve" smooth="yes"/>
      <point x="165" y="468"/>
      <point x="66" y="367"/>
      <point x="66" y="227" type="curve" smooth="yes"/>
      <point x="66" y="87"/>
      <point x="160" y="-8"/>
    </contour>
    <contour>
      <point x="126" y="226" type="curve" smooth="yes"/>
      <point x="126" y="333"/>
      <point x="190" y="418"/>
      <point x="301" y="418" type="curve" smooth="yes"/>
      <point x="337" y="418"/>
      <point x="390" y="405"/>
      <point x="455" y="339" type="curve"/>
      <point x="455" y="144" type="line"/>
      <point x="379" y="63"/>
      <point x="332" y="42"/>
      <point x="282" y="42" type="curve" smooth="yes"/>
      <point x="201" y="42"/>
      <point x="126" y="114"/>
    </contour>
  </outline>
</glyph>
<glyph name="e" format="2">
  <advance width="614"/>
  <unicode hex="0065"/>
  <anchor x="319" y="-35" name="below"/>
  <anchor x="383" y="-10" name="belowogonek"/>
  <anchor x="318" y="472" name="aboveLCx"/>
  <anchor x="318" y="507" name="aboveLC"/>
  <outline>
    <contour>
      <point x="345" y="46" type="line" smooth="yes"/>
      <point x="214" y="49"/>
      <point x="149" y="104"/>
      <point x="143" y="206" type="curve"/>
      <point x="531" y="206" type="line"/>
      <point x="532" y="213"/>
      <point x="533" y="221"/>
      <point x="533" y="231" type="curve" smooth="yes"/>
      <point x="533" y="398"/>
      <point x="448" y="475"/>
      <point x="318" y="475" type="curve" smooth="yes"/>
      <point x="187" y="475"/>
      <point x="83" y="372"/>
      <point x="83" y="220" type="curve" smooth="yes"/>
      <point x="83" y="83"/>
      <point x="160" y="0"/>
      <point x="331" y="-3" type="curve" smooth="yes"/>
      <point x="448" y="-5" type="line"/>
      <point x="450" y="44" type="line"/>
    </contour>
    <contour>
      <point x="318" y="425" type="curve" smooth="yes"/>
      <point x="403" y="425"/>
      <point x="464" y="378"/>
      <point x="472" y="255" type="curve"/>
      <point x="145" y="255" type="line"/>
      <point x="158" y="364"/>
      <point x="232" y="425"/>
    </contour>
  </outline>
</glyph>
<glyph name="f" format="2">
  <advance width="614"/>
  <unicode hex="0066"/>
  <guideline x="516" y="714" angle="90.0" identifier="KdhEjVeBcn"/>
  <outline>
    <contour>
      <point x="78" y="410" type="line"/>
      <point x="239" y="410" type="line"/>
      <point x="239" y="0" type="line"/>
      <point x="298" y="0" type="line"/>
      <point x="298" y="410" type="line"/>
      <point x="505" y="410" type="line"/>
      <point x="505" y="460" type="line"/>
      <point x="298" y="460" type="line"/>
      <point x="298" y="534" type="line" smooth="yes"/>
      <point x="298" y="617"/>
      <point x="326" y="653"/>
      <point x="422" y="659" type="curve" smooth="yes"/>
      <point x="544" y="667" type="line"/>
      <point x="540" y="719" type="line"/>
      <point x="415" y="711" type="line" smooth="yes"/>
      <point x="288" y="703"/>
      <point x="239" y="650"/>
      <point x="239" y="537" type="curve" smooth="yes"/>
      <point x="239" y="460" type="line"/>
      <point x="78" y="460" type="line"/>
    </contour>
  </outline>
</glyph>
<glyph name="g" format="2">
  <advance width="614"/>
  <unicode hex="0067"/>
  <anchor x="302" y="502" name="aboveLC"/>
  <anchor x="302" y="467" name="aboveLCx"/>
  <outline>
    <contour>
      <point x="66" y="239" type="curve" smooth="yes"/>
      <point x="66" y="106"/>
      <point x="160" y="16"/>
      <point x="274" y="16" type="curve" smooth="yes"/>
      <point x="340" y="16"/>
      <point x="390" y="39"/>
      <point x="455" y="108" type="curve"/>
      <point x="455" y="-22" type="line" smooth="yes"/>
      <point x="455" y="-129"/>
      <point x="415" y="-173"/>
      <point x="306" y="-179" type="curve" smooth="yes"/>
      <point x="137" y="-188" type="line"/>
      <point x="140" y="-239" type="line"/>
      <point x="315" y="-230" type="line" smooth="yes"/>
      <point x="454" y="-223"/>
      <point x="514" y="-160"/>
      <point x="514" y="-19" type="curve" smooth="yes"/>
      <point x="514" y="462" type="line"/>
      <point x="486" y="462" type="line"/>
      <point x="458" y="425" type="line"/>
      <point x="410" y="455"/>
      <point x="359" y="468"/>
      <point x="307" y="468" type="curve" smooth="yes"/>
      <point x="170" y="468"/>
      <point x="66" y="365"/>
    </contour>
    <contour>
      <point x="126" y="238" type="curve" smooth="yes"/>
      <point x="126" y="329"/>
      <point x="192" y="418"/>
      <point x="320" y="418" type="curve" smooth="yes"/>
      <point x="362" y="418"/>
      <point x="406" y="404"/>
      <point x="455" y="370" type="curve"/>
      <point x="455" y="168" type="line"/>
      <point x="379" y="87"/>
      <point x="332" y="66"/>
      <point x="282" y="66" type="curve" smooth="yes"/>
      <point x="201" y="66"/>
      <point x="126" y="133"/>
    </contour>
  </outline>
</glyph>
<glyph name="h" format="2">
  <advance width="614"/>
  <unicode hex="0068"/>
  <anchor x="311" y="-35" name="below"/>
  <anchor x="311" y="0" name="belowx"/>
  <anchor x="134" y="-10" name="belowcedilla"/>
  <anchor x="134" y="740" name="aboveLC"/>
  <anchor x="134" y="679" name="aboveLCx"/>
  <outline>
    <contour>
      <point x="162" y="710" type="line"/>
      <point x="103" y="710" type="line"/>
      <point x="103" y="0" type="line"/>
      <point x="162" y="0" type="line"/>
      <point x="162" y="289" type="line"/>
      <point x="265" y="387"/>
      <point x="309" y="413"/>
      <point x="361" y="413" type="curve" smooth="yes"/>
      <point x="426" y="413"/>
      <point x="454" y="380"/>
      <point x="454" y="313" type="curve" smooth="yes"/>
      <point x="454" y="0" type="line"/>
      <point x="513" y="0" type="line"/>
      <point x="513" y="323" type="line" smooth="yes"/>
      <point x="513" y="407"/>
      <point x="466" y="465"/>
      <point x="371" y="465" type="curve" smooth="yes"/>
      <point x="303" y="465"/>
      <point x="252" y="435"/>
      <point x="162" y="346" type="curve"/>
    </contour>
  </outline>
</glyph>
<glyph name="n" format="2">
  <advance width="614"/>
  <unicode hex="006E"/>
  <anchor x="306" y="502" name="aboveLC"/>
  <anchor x="314" y="-35" name="below"/>
  <anchor x="314" y="0" name="belowx"/>
  <outline>
    <contour>
      <point x="152" y="460" type="line"/>
      <point x="103" y="460" type="line"/>
      <point x="103" y="0" type="line"/>
      <point x="162" y="0" type="line"/>
      <point x="162" y="289" type="line"/>
      <point x="265" y="387"/>
      <point x="309" y="413"/>
      <point x="361" y="413" type="curve" smooth="yes"/>
      <point x="426" y="413"/>
      <point x="454" y="380"/>
      <point x="454" y="313" type="curve" smooth="yes"/>
      <point x="454" y="0" type="line"/>
      <point x="513" y="0" type="line"/>
      <point x="513" y="323" type="line" smooth="yes"/>
      <point x="513" y="407"/>
      <point x="466" y="465"/>
      <point x="371" y="465" type="curve" smooth="yes"/>
      <point x="302" y="465"/>
      <point x="252" y="435"/>
      <point x="161" y="345" type="curve"/>
    </contour>
  </outline>
</glyph>
<glyph name="o" format="2">
  <advance width="614"/>
  <unicode hex="006F"/>
  <anchor x="307" y="507" name="aboveLC"/>
  <anchor x="307" y="472" name="aboveLCx"/>
  <anchor x="307" y="-40" name="below"/>
  <anchor x="315" y="-15" name="belowogonek"/>
  <outline>
    <contour>
      <point x="305" y="-15" type="curve" smooth="yes"/>
      <point x="444" y="-15"/>
      <point x="543" y="82"/>
      <point x="543" y="228" type="curve" smooth="yes"/>
      <point x="543" y="374"/>
      <point x="446" y="475"/>
      <point x="309" y="475" type="curve" smooth="yes"/>
      <point x="169" y="475"/>
      <point x="71" y="374"/>
      <point x="71" y="232" type="curve" smooth="yes"/>
      <point x="71" y="82"/>
      <point x="168" y="-15"/>
    </contour>
    <contour>
      <point x="307" y="35" type="curve" smooth="yes"/>
      <point x="203" y="35"/>
      <point x="131" y="112"/>
      <point x="131" y="230" type="curve" smooth="yes"/>
      <point x="131" y="346"/>
      <point x="203" y="425"/>
      <point x="307" y="425" type="curve" smooth="yes"/>
      <point x="411" y="425"/>
      <point x="483" y="343"/>
      <point x="483" y="230" type="curve" smooth="yes"/>
      <point x="483" y="109"/>
      <point x="411" y="35"/>
    </contour>
  </outline>
</glyph>
<glyph name="p" format="2">
  <advance width="614"/>
  <unicode hex="0070"/>
  <anchor x="329" y="502" name="aboveLC"/>
  <outline>
    <contour>
      <point x="100" y="-230" type="line"/>
      <point x="159" y="-230" type="line"/>
      <point x="159" y="63" type="line"/>
      <point x="220" y="6"/>
      <point x="274" y="-8"/>
      <point x="318" y="-8" type="curve" smooth="yes"/>
      <point x="449" y="-8"/>
      <point x="548" y="93"/>
      <point x="548" y="233" type="curve" smooth="yes"/>
      <point x="548" y="373"/>
      <point x="454" y="468"/>
      <point x="340" y="468" type="curve" smooth="yes"/>
      <point x="273" y="468"/>
      <point x="222" y="444"/>
      <point x="156" y="372" type="curve"/>
      <point x="149" y="460" type="line"/>
      <point x="100" y="460" type="line"/>
    </contour>
    <contour>
      <point x="332" y="418" type="curve" smooth="yes"/>
      <point x="413" y="418"/>
      <point x="488" y="346"/>
      <point x="488" y="234" type="curve" smooth="yes"/>
      <point x="488" y="127"/>
      <point x="424" y="42"/>
      <point x="313" y="42" type="curve" smooth="yes"/>
      <point x="277" y="42"/>
      <point x="224" y="55"/>
      <point x="159" y="121" type="curve"/>
      <point x="159" y="316" type="line"/>
      <point x="235" y="397"/>
      <point x="282" y="418"/>
    </contour>
  </outline>
</glyph>
<glyph name="q" format="2">
  <advance width="614"/>
  <unicode hex="0071"/>
  <outline>
    <contour>
      <point x="66" y="227" type="curve" smooth="yes"/>
      <point x="66" y="87"/>
      <point x="160" y="-8"/>
      <point x="274" y="-8" type="curve" smooth="yes"/>
      <point x="340" y="-8"/>
      <point x="390" y="15"/>
      <point x="455" y="84" type="curve"/>
      <point x="455" y="-230" type="line"/>
      <point x="514" y="-230" type="line"/>
      <point x="514" y="462" type="line"/>
      <point x="486" y="462" type="line"/>
      <point x="460" y="424" type="line"/>
      <point x="411" y="455"/>
      <point x="360" y="468"/>
      <point x="307" y="468" type="curve" smooth="yes"/>
      <point x="170" y="468"/>
      <point x="66" y="360"/>
    </contour>
    <contour>
      <point x="126" y="226" type="curve" smooth="yes"/>
      <point x="126" y="323"/>
      <point x="192" y="418"/>
      <point x="320" y="418" type="curve" smooth="yes"/>
      <point x="362" y="418"/>
      <point x="406" y="404"/>
      <point x="455" y="370" type="curve"/>
      <point x="455" y="144" type="line"/>
      <point x="379" y="63"/>
      <point x="332" y="42"/>
      <point x="282" y="42" type="curve" smooth="yes"/>
      <point x="201" y="42"/>
      <point x="126" y="114"/>
    </contour>
  </outline>
</glyph>
<glyph name="r" format="2">
  <advance width="614"/>
  <unicode hex="0072"/>
  <anchor x="297" y="502" name="aboveLC"/>
  <anchor x="213" y="-35" name="below"/>
  <outline>
    <contour>
      <point x="49" y="50" type="line"/>
      <point x="49" y="0" type="line"/>
      <point x="398" y="0" type="line"/>
      <point x="398" y="50" type="line"/>
      <point x="238" y="50" type="line"/>
      <point x="238" y="220" type="line"/>
      <point x="362" y="383"/>
      <point x="375" y="392"/>
      <point x="460" y="398" type="curve" smooth="yes"/>
      <point x="558" y="405" type="line"/>
      <point x="555" y="463" type="line"/>
      <point x="451" y="457" type="line" smooth="yes"/>
      <point x="374" y="452"/>
      <point x="338" y="434"/>
      <point x="237" y="286" type="curve"/>
      <point x="233" y="460" type="line"/>
      <point x="69" y="460" type="line"/>
      <point x="69" y="410" type="line"/>
      <point x="179" y="410" type="line"/>
      <point x="179" y="50" type="line"/>
    </contour>
  </outline>
</glyph>
<glyph name="u" format="2">
  <advance width="614"/>
  <unicode hex="0075"/>
  <anchor x="307" y="502" name="aboveLC"/>
  <anchor x="296" y="-35" name="below"/>
  <anchor x="483" y="-10" name="belowogonek"/>
  <anchor x="307" y="461" name="aboveLCx"/>
  <outline>
    <contour>
      <point x="511" y="0" type="line"/>
      <point x="511" y="460" type="line"/>
      <point x="452" y="460" type="line"/>
      <point x="452" y="171" type="line"/>
      <point x="349" y="73"/>
      <point x="305" y="47"/>
      <point x="253" y="47" type="curve" smooth="yes"/>
      <point x="188" y="47"/>
      <point x="160" y="80"/>
      <point x="160" y="147" type="curve" smooth="yes"/>
      <point x="160" y="460" type="line"/>
      <point x="101" y="460" type="line"/>
      <point x="101" y="137" type="line" smooth="yes"/>
      <point x="101" y="53"/>
      <point x="148" y="-5"/>
      <point x="243" y="-5" type="curve" smooth="yes"/>
      <point x="311" y="-5"/>
      <point x="362" y="25"/>
      <point x="452" y="114" type="curve"/>
      <point x="456" y="0" type="line"/>
    </contour>
  </outline>
</glyph>
<glyph name="x" format="2">
  <advance width="614"/>
  <unicode hex="0078"/>
  <anchor x="307" y="502" name="aboveLC"/>
  <anchor x="306" y="-35" name="below"/>
  <anchor x="306" y="0" name="belowx"/>
  <anchor x="307" y="467" name="aboveLCx"/>
  <outline>
    <contour>
      <point x="77" y="0" type="line"/>
      <point x="146" y="0" type="line"/>
      <point x="306" y="201" type="line"/>
      <point x="465" y="0" type="line"/>
      <point x="539" y="0" type="line"/>
      <point x="342" y="239" type="line"/>
      <point x="522" y="460" type="line"/>
      <point x="453" y="460" type="line"/>
      <point x="308" y="277" type="line"/>
      <point x="166" y="460" type="line"/>
      <point x="91" y="460" type="line"/>
      <point x="271" y="239" type="line"/>
    </contour>
  </outline>
</glyph>
<glyph name="y" format="2">
  <advance width="614"/>
  <unicode hex="0079"/>
  <anchor x="313" y="502" name="aboveLC"/>
  <anchor x="464" y="-35" name="below"/>
  <anchor x="313" y="467" name="aboveLCx"/>
  <outline>
    <contour>
      <point x="290" y="-138" type="curve" smooth="yes"/>
      <point x="551" y="460" type="line"/>
      <point x="487" y="460" type="line"/>
      <point x="313" y="43" type="line"/>
      <point x="135" y="460" type="line"/>
      <point x="67" y="460" type="line"/>
      <point x="281" y="-27" type="line"/>
      <point x="236" y="-124" type="line" smooth="yes"/>
      <point x="218" y="-162"/>
      <point x="197" y="-174"/>
      <point x="146" y="-177" type="curve" smooth="yes"/>
      <point x="51" y="-182" type="line"/>
      <point x="53" y="-233" type="line"/>
      <point x="151" y="-228" type="line" smooth="yes"/>
      <point x="211" y="-225"/>
      <point x="260" y="-206"/>
    </contour>
  </outline>
</glyph>
<glyph name="z" format="2">
  <advance width="614"/>
  <unicode hex="007A"/>
  <anchor x="324" y="502" name="aboveLC"/>
  <anchor x="324" y="-35" name="below"/>
  <anchor x="324" y="-10" name="belowcedilla"/>
  <outline>
    <contour>
      <point x="90" y="0" type="line"/>
      <point x="539" y="0" type="line"/>
      <point x="539" y="51" type="line"/>
      <point x="181" y="51" type="line"/>
      <point x="181" y="55" type="line"/>
      <point x="523" y="418" type="line"/>
      <point x="523" y="460" type="line"/>
      <point x="103" y="460" type="line"/>
      <point x="103" y="410" type="line"/>
      <point x="438" y="410" type="line"/>
      <point x="438" y="407" type="line"/>
      <point x="90" y="41" type="line"/>
    </contour>
  </outline>
</glyph>
<glyph name="braceleft" format="2">
  <advance width="614"/>
  <unicode hex="007B"/>
  <outline>
    <contour>
      <point x="205" y="-23" type="curve" smooth="yes"/>
      <point x="205" y="-65"/>
      <point x="230" y="-94"/>
      <point x="300" y="-104" type="curve" smooth="yes"/>
      <point x="523" y="-135" type="line"/>
      <point x="530" y="-86" type="line"/>
      <point x="307" y="-55" type="line" smooth="yes"/>
      <point x="272" y="-50"/>
      <point x="264" y="-38"/>
      <point x="264" y="-23" type="curve" smooth="yes"/>
      <point x="264" y="-11"/>
      <point x="270" y="1"/>
      <point x="298" y="34" type="curve" smooth="yes"/>
      <point x="347" y="91" type="line" smooth="yes"/>
      <point x="400" y="152"/>
      <point x="404" y="169"/>
      <point x="404" y="190" type="curve" smooth="yes"/>
      <point x="404" y="230"/>
      <point x="382" y="263"/>
      <point x="149" y="329" type="curve"/>
      <point x="149" y="333" type="line"/>
      <point x="382" y="399"/>
      <point x="404" y="432"/>
      <point x="404" y="472" type="curve" smooth="yes"/>
      <point x="404" y="493"/>
      <point x="400" y="510"/>
      <point x="347" y="571" type="curve" smooth="yes"/>
      <point x="298" y="628" type="line" smooth="yes"/>
      <point x="270" y="661"/>
      <point x="264" y="673"/>
      <point x="264" y="685" type="curve" smooth="yes"/>
      <point x="264" y="700"/>
      <point x="272" y="712"/>
      <point x="307" y="717" type="curve" smooth="yes"/>
      <point x="530" y="748" type="line"/>
      <point x="523" y="797" type="line"/>
      <point x="300" y="766" type="line" smooth="yes"/>
      <point x="230" y="756"/>
      <point x="205" y="727"/>
      <point x="205" y="685" type="curve" smooth="yes"/>
      <point x="205" y="662"/>
      <point x="218" y="635"/>
      <point x="256" y="592" type="curve" smooth="yes"/>
      <point x="305" y="535" type="line" smooth="yes"/>
      <point x="337" y="497"/>
      <point x="342" y="487"/>
      <point x="342" y="472" type="curve" smooth="yes"/>
      <point x="342" y="449"/>
      <point x="328" y="427"/>
      <point x="79" y="361" type="curve"/>
      <point x="79" y="301" type="line"/>
      <point x="328" y="235"/>
      <point x="342" y="213"/>
      <point x="342" y="190" type="curve" smooth="yes"/>
      <point x="342" y="175"/>
      <point x="337" y="165"/>
      <point x="305" y="127" type="curve" smooth="yes"/>
      <point x="256" y="70" type="line" smooth="yes"/>
      <point x="218" y="27"/>
      <point x="205" y="0"/>
    </contour>
  </outline>
</glyph>
<glyph name="braceright" format="2">
  <advance width="614"/>
  <unicode hex="007D"/>
  <outline>
    <contour>
      <point x="409" y="-23" type="curve" smooth="yes"/>
      <point x="409" y="0"/>
      <point x="396" y="27"/>
      <point x="358" y="70" type="curve" smooth="yes"/>
      <point x="309" y="127" type="line" smooth="yes"/>
      <point x="277" y="165"/>
      <point x="272" y="175"/>
      <point x="272" y="190" type="curve" smooth="yes"/>
      <point x="272" y="213"/>
      <point x="286" y="235"/>
      <point x="535" y="301" type="curve"/>
      <point x="535" y="361" type="line"/>
      <point x="286" y="427"/>
      <point x="272" y="449"/>
      <point x="272" y="472" type="curve" smooth="yes"/>
      <point x="272" y="487"/>
      <point x="277" y="497"/>
      <point x="309" y="535" type="curve" smooth="yes"/>
      <point x="358" y="592" type="line" smooth="yes"/>
      <point x="396" y="635"/>
      <point x="409" y="662"/>
      <point x="409" y="685" type="curve" smooth="yes"/>
      <point x="409" y="727"/>
      <point x="384" y="756"/>
      <point x="314" y="766" type="curve" smooth="yes"/>
      <point x="91" y="797" type="line"/>
      <point x="84" y="748" type="line"/>
      <point x="307" y="717" type="line" smooth="yes"/>
      <point x="342" y="712"/>
      <point x="350" y="700"/>
      <point x="350" y="685" type="curve" smooth="yes"/>
      <point x="350" y="673"/>
      <point x="344" y="661"/>
      <point x="316" y="628" type="curve" smooth="yes"/>
      <point x="267" y="571" type="line" smooth="yes"/>
      <point x="214" y="510"/>
      <point x="210" y="493"/>
      <point x="210" y="472" type="curve" smooth="yes"/>
      <point x="210" y="432"/>
      <point x="232" y="399"/>
      <point x="466" y="333" type="curve"/>
      <point x="466" y="329" type="line"/>
      <point x="232" y="263"/>
      <point x="210" y="230"/>
      <point x="210" y="190" type="curve" smooth="yes"/>
      <point x="210" y="169"/>
      <point x="214" y="152"/>
      <point x="267" y="91" type="curve" smooth="yes"/>
      <point x="316" y="34" type="line" smooth="yes"/>
      <point x="344" y="1"/>
      <point x="350" y="-11"/>
      <point x="350" y="-23" type="curve" smooth="yes"/>
      <point x="350" y="-38"/>
      <point x="342" y="-50"/>
      <point x="307" y="-55" type="curve" smooth="yes"/>
      <point x="84" y="-86" type="line"/>
      <point x="91" y="-135" type="line"/>
      <point x="314" y="-104" type="line" smooth="yes"/>
      <point x="384" y="-94"/>
      <point x="409" y="-65"/>
    </contour>
  </outline>
</glyph>
<glyph name="exclamdown" format="2">
  <advance width="614"/>
  <unicode hex="00A1"/>
  <outline>
    <contour>
      <point x="308" y="725" type="curve" smooth="yes"/>
      <point x="270" y="725"/>
      <point x="246" y="706"/>
      <point x="246" y="673" type="curve" smooth="yes"/>
      <point x="246" y="639"/>
      <point x="266" y="618"/>
      <point x="306" y="618" type="curve" smooth="yes"/>
      <point x="344" y="618"/>
      <point x="368" y="642"/>
      <point x="368" y="670" type="curve" smooth="yes"/>
      <point x="368" y="707"/>
      <point x="341" y="725"/>
    </contour>
    <contour>
      <point x="324" y="483" type="line"/>
      <point x="290" y="483" type="line"/>
      <point x="247" y="0" type="line"/>
      <point x="366" y="0" type="line"/>
    </contour>
  </outline>
</glyph>
<glyph name="cent" format="2">
  <advance width="614"/>
  <unicode hex="00A2"/>
  <outline>
    <contour>
      <point x="304" y="-142" type="line"/>
      <point x="361" y="-142" type="line"/>
      <point x="361" y="3" type="line"/>
      <point x="410" y="10"/>
      <point x="463" y="28"/>
      <point x="537" y="71" type="curve"/>
      <point x="513" y="113" type="line"/>
      <point x="445" y="76"/>
      <point x="397" y="59"/>
      <point x="356" y="53" type="curve"/>
      <point x="356" y="438" type="line"/>
      <point x="394" y="433"/>
      <point x="437" y="417"/>
      <point x="509" y="371" type="curve"/>
      <point x="536" y="418" type="line"/>
      <point x="454" y="467"/>
      <point x="407" y="484"/>
      <point x="361" y="488" type="curve"/>
      <point x="361" y="632" type="line"/>
      <point x="304" y="632" type="line"/>
      <point x="304" y="489" type="line"/>
      <point x="175" y="479"/>
      <point x="77" y="381"/>
      <point x="77" y="250" type="curve" smooth="yes"/>
      <point x="77" y="95"/>
      <point x="174" y="5"/>
      <point x="304" y="0" type="curve"/>
    </contour>
    <contour>
      <point x="137" y="248" type="curve" smooth="yes"/>
      <point x="137" y="356"/>
      <point x="207" y="434"/>
      <point x="311" y="440" type="curve"/>
      <point x="311" y="50" type="line"/>
      <point x="212" y="50"/>
      <point x="137" y="133"/>
    </contour>
  </outline>
</glyph>
<glyph name="sterling" format="2">
  <advance width="614"/>
  <unicode hex="00A3"/>
  <outline>
    <contour>
      <point x="81" y="0" type="line"/>
      <point x="546" y="0" type="line"/>
      <point x="546" y="51" type="line"/>
      <point x="155" y="51" type="line"/>
      <point x="266" y="169"/>
      <point x="293" y="209"/>
      <point x="298" y="248" type="curve"/>
      <point x="506" y="248" type="line"/>
      <point x="506" y="296" type="line"/>
      <point x="298" y="296" type="line"/>
      <point x="293" y="325"/>
      <point x="273" y="352"/>
      <point x="216" y="409" type="curve" smooth="yes"/>
      <point x="174" y="453"/>
      <point x="166" y="484"/>
      <point x="166" y="517" type="curve" smooth="yes"/>
      <point x="166" y="572"/>
      <point x="218" y="619"/>
      <point x="301" y="619" type="curve" smooth="yes"/>
      <point x="379" y="619"/>
      <point x="441" y="577"/>
      <point x="479" y="505" type="curve"/>
      <point x="530" y="534" type="line"/>
      <point x="487" y="618"/>
      <point x="407" y="670"/>
      <point x="303" y="670" type="curve" smooth="yes"/>
      <point x="178" y="670"/>
      <point x="103" y="595"/>
      <point x="103" y="516" type="curve" smooth="yes"/>
      <point x="103" y="466"/>
      <point x="114" y="432"/>
      <point x="170" y="375" type="curve" smooth="yes"/>
      <point x="213" y="330"/>
      <point x="230" y="312"/>
      <point x="236" y="296" type="curve"/>
      <point x="87" y="296" type="line"/>
      <point x="87" y="248" type="line"/>
      <point x="237" y="248" type="line"/>
      <point x="228" y="211"/>
      <point x="196" y="166"/>
      <point x="81" y="51" type="curve"/>
    </contour>
  </outline>
</glyph>
<glyph name="section" format="2">
  <advance width="614"/>
  <unicode hex="00A7"/>
  <outline>
    <contour>
      <point x="64" y="210" type="curve" smooth="yes"/>
      <point x="64" y="136"/>
      <point x="90" y="96"/>
      <point x="212" y="41" type="curve" smooth="yes"/>
      <point x="335" y="-14" type="line" smooth="yes"/>
      <point x="427" y="-55"/>
      <point x="439" y="-77"/>
      <point x="439" y="-112" type="curve" smooth="yes"/>
      <point x="439" y="-159"/>
      <point x="410" y="-189"/>
      <point x="303" y="-189" type="curve" smooth="yes"/>
      <point x="251" y="-189"/>
      <point x="203" y="-182"/>
      <point x="128" y="-163" type="curve"/>
      <point x="117" y="-216" type="line"/>
      <point x="193" y="-233"/>
      <point x="238" y="-240"/>
      <point x="303" y="-240" type="curve" smooth="yes"/>
      <point x="444" y="-240"/>
      <point x="499" y="-187"/>
      <point x="499" y="-106" type="curve" smooth="yes"/>
      <point x="499" y="-53"/>
      <point x="478" y="-13"/>
      <point x="363" y="35" type="curve"/>
      <point x="517" y="106"/>
      <point x="549" y="150"/>
      <point x="549" y="220" type="curve" smooth="yes"/>
      <point x="549" y="294"/>
      <point x="523" y="334"/>
      <point x="401" y="389" type="curve" smooth="yes"/>
      <point x="278" y="444" type="line" smooth="yes"/>
      <point x="186" y="485"/>
      <point x="174" y="507"/>
      <point x="174" y="542" type="curve" smooth="yes"/>
      <point x="174" y="589"/>
      <point x="203" y="619"/>
      <point x="310" y="619" type="curve" smooth="yes"/>
      <point x="362" y="619"/>
      <point x="410" y="612"/>
      <point x="485" y="593" type="curve"/>
      <point x="496" y="646" type="line"/>
      <point x="420" y="663"/>
      <point x="375" y="670"/>
      <point x="310" y="670" type="curve" smooth="yes"/>
      <point x="169" y="670"/>
      <point x="114" y="617"/>
      <point x="114" y="536" type="curve" smooth="yes"/>
      <point x="114" y="483"/>
      <point x="136" y="442"/>
      <point x="250" y="395" type="curve"/>
      <point x="96" y="324"/>
      <point x="64" y="280"/>
    </contour>
    <contour>
      <point x="265" y="79" type="line" smooth="yes"/>
      <point x="145" y="133"/>
      <point x="126" y="162"/>
      <point x="126" y="216" type="curve" smooth="yes"/>
      <point x="126" y="265"/>
      <point x="146" y="296"/>
      <point x="301" y="372" type="curve"/>
      <point x="348" y="351" type="line" smooth="yes"/>
      <point x="468" y="297"/>
      <point x="487" y="268"/>
      <point x="487" y="214" type="curve" smooth="yes"/>
      <point x="487" y="165"/>
      <point x="467" y="134"/>
      <point x="312" y="58" type="curve"/>
    </contour>
  </outline>
</glyph>
<glyph name="registered" format="2">
  <advance width="614"/>
  <unicode hex="00AE"/>
  <outline>
    <contour>
      <point x="68" y="465" type="curve" smooth="yes"/>
      <point x="68" y="310"/>
      <point x="160" y="208"/>
      <point x="307" y="208" type="curve" smooth="yes"/>
      <point x="452" y="208"/>
      <point x="546" y="311"/>
      <point x="546" y="467" type="curve" smooth="yes"/>
      <point x="546" y="626"/>
      <point x="453" y="725"/>
      <point x="307" y="725" type="curve" smooth="yes"/>
      <point x="161" y="725"/>
      <point x="68" y="624"/>
    </contour>
    <contour>
      <point x="307" y="243" type="curve" smooth="yes"/>
      <point x="186" y="243"/>
      <point x="108" y="329"/>
      <point x="108" y="467" type="curve" smooth="yes"/>
      <point x="108" y="605"/>
      <point x="184" y="689"/>
      <point x="307" y="689" type="curve" smooth="yes"/>
      <point x="431" y="689"/>
      <point x="507" y="604"/>
      <point x="507" y="465" type="curve" smooth="yes"/>
      <point x="507" y="328"/>
      <point x="431" y="243"/>
    </contour>
    <contour>
      <point x="420" y="345" type="line"/>
      <point x="364" y="419" type="line" smooth="yes"/>
      <point x="345" y="444"/>
      <point x="335" y="450"/>
      <point x="316" y="455" type="curve"/>
      <point x="316" y="457" type="line"/>
      <point x="400" y="468"/>
      <point x="415" y="498"/>
      <point x="415" y="535" type="curve" smooth="yes"/>
      <point x="415" y="578"/>
      <point x="383" y="604"/>
      <point x="332" y="604" type="curve" smooth="yes"/>
      <point x="217" y="604" type="line"/>
      <point x="217" y="343" type="line"/>
      <point x="259" y="343" type="line"/>
      <point x="259" y="450" type="line"/>
      <point x="285" y="447"/>
      <point x="295" y="441"/>
      <point x="313" y="415" type="curve" smooth="yes"/>
      <point x="365" y="343" type="line"/>
      <point x="420" y="343" type="line"/>
    </contour>
    <contour>
      <point x="323" y="567" type="line" smooth="yes"/>
      <point x="356" y="567"/>
      <point x="372" y="555"/>
      <point x="372" y="530" type="curve" smooth="yes"/>
      <point x="372" y="503"/>
      <point x="356" y="487"/>
      <point x="282" y="479" type="curve" smooth="yes"/>
      <point x="259" y="477" type="line"/>
      <point x="259" y="567" type="line"/>
    </contour>
  </outline>
</glyph>
<glyph name="paragraph" format="2">
  <advance width="614"/>
  <unicode hex="00B6"/>
  <outline>
    <contour>
      <point x="344" y="298" type="line"/>
      <point x="344" y="609" type="line"/>
      <point x="451" y="609" type="line"/>
      <point x="451" y="0" type="line"/>
      <point x="509" y="0" type="line"/>
      <point x="509" y="655" type="line"/>
      <point x="321" y="655" type="line" smooth="yes"/>
      <point x="150" y="655"/>
      <point x="86" y="585"/>
      <point x="86" y="482" type="curve" smooth="yes"/>
      <point x="86" y="361"/>
      <point x="159" y="298"/>
      <point x="340" y="298" type="curve" smooth="yes"/>
    </contour>
  </outline>
</glyph>
<glyph name="ordmasculine" format="2">
  <advance width="614"/>
  <unicode hex="00BA"/>
  <outline>
    <contour>
      <point x="307" y="322" type="curve" smooth="yes"/>
      <point x="412" y="322"/>
      <point x="497" y="397"/>
      <point x="497" y="508" type="curve" smooth="yes"/>
      <point x="497" y="617"/>
      <point x="414" y="692"/>
      <point x="309" y="692" type="curve" smooth="yes"/>
      <point x="203" y="692"/>
      <point x="119" y="616"/>
      <point x="119" y="507" type="curve" smooth="yes"/>
      <point x="119" y="397"/>
      <point x="202" y="322"/>
    </contour>
    <contour>
      <point x="308" y="366" type="curve" smooth="yes"/>
      <point x="231" y="366"/>
      <point x="169" y="422"/>
      <point x="169" y="506" type="curve" smooth="yes"/>
      <point x="169" y="592"/>
      <point x="231" y="648"/>
      <point x="307" y="648" type="curve" smooth="yes"/>
      <point x="384" y="648"/>
      <point x="447" y="591"/>
      <point x="447" y="508" type="curve" smooth="yes"/>
      <point x="447" y="422"/>
      <point x="384" y="366"/>
    </contour>
    <contour>
      <point x="126" y="234" type="line"/>
      <point x="126" y="187" type="line"/>
      <point x="491" y="187" type="line"/>
      <point x="491" y="234" type="line"/>
    </contour>
  </outline>
</glyph>
<glyph name="questiondown" format="2">
  <advance width="614"/>
  <unicode hex="00BF"/>
  <outline>
    <contour>
      <point x="377" y="725" type="curve" smooth="yes"/>
      <point x="339" y="725"/>
      <point x="315" y="706"/>
      <point x="315" y="673" type="curve" smooth="yes"/>
      <point x="315" y="639"/>
      <point x="335" y="618"/>
      <point x="375" y="618" type="curve" smooth="yes"/>
      <point x="413" y="618"/>
      <point x="437" y="642"/>
      <point x="437" y="670" type="curve" smooth="yes"/>
      <point x="437" y="707"/>
      <point x="410" y="725"/>
    </contour>
    <contour>
      <point x="354" y="483" type="line"/>
      <point x="347" y="400"/>
      <point x="342" y="393"/>
      <point x="316" y="379" type="curve" smooth="yes"/>
      <point x="225" y="331" type="line" smooth="yes"/>
      <point x="115" y="273"/>
      <point x="83" y="235"/>
      <point x="83" y="154" type="curve" smooth="yes"/>
      <point x="83" y="46"/>
      <point x="155" y="-15"/>
      <point x="276" y="-15" type="curve" smooth="yes"/>
      <point x="355" y="-15"/>
      <point x="414" y="-2"/>
      <point x="546" y="55" type="curve"/>
      <point x="523" y="106" type="line"/>
      <point x="389" y="49"/>
      <point x="332" y="36"/>
      <point x="284" y="36" type="curve" smooth="yes"/>
      <point x="199" y="36"/>
      <point x="146" y="72"/>
      <point x="146" y="153" type="curve" smooth="yes"/>
      <point x="146" y="207"/>
      <point x="169" y="241"/>
      <point x="250" y="282" type="curve" smooth="yes"/>
      <point x="357" y="336" type="line" smooth="yes"/>
      <point x="393" y="354"/>
      <point x="401" y="360"/>
      <point x="401" y="382" type="curve" smooth="yes"/>
      <point x="401" y="393"/>
      <point x="398" y="418"/>
      <point x="390" y="483" type="curve"/>
    </contour>
  </outline>
</glyph>
<glyph name="Aring" format="2">
  <advance width="614"/>
  <unicode hex="00C5"/>
  <outline>
    <contour>
      <point x="109" y="0" type="line"/>
      <point x="175" y="201" type="line"/>
      <point x="437" y="201" type="line"/>
      <point x="504" y="0" type="line"/>
      <point x="568" y="0" type="line"/>
      <point x="359" y="615" type="line"/>
      <point x="417" y="630"/>
      <point x="453" y="669"/>
      <point x="453" y="723" type="curve" smooth="yes"/>
      <point x="453" y="792"/>
      <point x="396" y="834"/>
      <point x="307" y="834" type="curve" smooth="yes"/>
      <point x="217" y="834"/>
      <point x="159" y="789"/>
      <point x="159" y="721" type="curve" smooth="yes"/>
      <point x="159" y="665"/>
      <point x="196" y="626"/>
      <point x="257" y="614" type="curve"/>
      <point x="46" y="0" type="line"/>
    </contour>
    <contour>
      <point x="306" y="653" type="curve" smooth="yes"/>
      <point x="237" y="653"/>
      <point x="206" y="678"/>
      <point x="206" y="720" type="curve" smooth="yes"/>
      <point x="206" y="767"/>
      <point x="238" y="790"/>
      <point x="306" y="790" type="curve" smooth="yes"/>
      <point x="374" y="790"/>
      <point x="405" y="765"/>
      <point x="405" y="724" type="curve" smooth="yes"/>
      <point x="405" y="676"/>
      <point x="373" y="653"/>
    </contour>
    <contour>
      <point x="192" y="252" type="line"/>
      <point x="305" y="596" type="line"/>
      <point x="420" y="252" type="line"/>
    </contour>
  </outline>
</glyph>
<glyph name="Ccedilla" format="2">
  <advance width="614"/>
  <unicode hex="00C7"/>
  <outline>
    <contour>
      <point x="481" y="-155" type="curve" smooth="yes"/>
      <point x="481" y="-108"/>
      <point x="457" y="-77"/>
      <point x="327" y="-66" type="curve"/>
      <point x="344" y="-14" type="line"/>
      <point x="409" y="-9"/>
      <point x="471" y="19"/>
      <point x="556" y="88" type="curve"/>
      <point x="525" y="128" type="line"/>
      <point x="436" y="57"/>
      <point x="380" y="36"/>
      <point x="327" y="36" type="curve" smooth="yes"/>
      <point x="206" y="36"/>
      <point x="121" y="130"/>
      <point x="121" y="328" type="curve" smooth="yes"/>
      <point x="121" y="510"/>
      <point x="209" y="619"/>
      <point x="330" y="619" type="curve" smooth="yes"/>
      <point x="376" y="619"/>
      <point x="425" y="603"/>
      <point x="516" y="529" type="curve"/>
      <point x="551" y="576" type="line"/>
      <point x="451" y="650"/>
      <point x="402" y="670"/>
      <point x="330" y="670" type="curve" smooth="yes"/>
      <point x="174" y="670"/>
      <point x="58" y="535"/>
      <point x="58" y="326" type="curve" smooth="yes"/>
      <point x="58" y="123"/>
      <point x="142" y="-5"/>
      <point x="300" y="-14" type="curve"/>
      <point x="270" y="-98" type="line"/>
      <point x="276" y="-108" type="line"/>
      <point x="408" y="-112"/>
      <point x="421" y="-131"/>
      <point x="421" y="-157" type="curve" smooth="yes"/>
      <point x="421" y="-183"/>
      <point x="405" y="-205"/>
      <point x="213" y="-221" type="curve"/>
      <point x="228" y="-270" type="line"/>
      <point x="464" y="-250"/>
      <point x="481" y="-203"/>
    </contour>
  </outline>
</glyph>
<glyph name="Oslash" format="2">
  <advance width="614"/>
  <unicode hex="00D8"/>
  <outline>
    <contour>
      <point x="556" y="329" type="curve" smooth="yes"/>
      <point x="556" y="437"/>
      <point x="531" y="523"/>
      <point x="487" y="581" type="curve"/>
      <point x="584" y="726" type="line"/>
      <point x="519" y="726" type="line"/>
      <point x="456" y="614" type="line"/>
      <point x="416" y="651"/>
      <point x="365" y="670"/>
      <point x="307" y="670" type="curve" smooth="yes"/>
      <point x="158" y="670"/>
      <point x="58" y="543"/>
      <point x="58" y="325" type="curve" smooth="yes"/>
      <point x="58" y="217"/>
      <point x="84" y="132"/>
      <point x="127" y="74" type="curve"/>
      <point x="30" y="-71" type="line"/>
      <point x="95" y="-71" type="line"/>
      <point x="158" y="41" type="line"/>
      <point x="198" y="4"/>
      <point x="249" y="-15"/>
      <point x="307" y="-15" type="curve" smooth="yes"/>
      <point x="456" y="-15"/>
      <point x="556" y="108"/>
    </contour>
    <contour>
      <point x="121" y="327" type="curve" smooth="yes"/>
      <point x="121" y="518"/>
      <point x="191" y="619"/>
      <point x="307" y="619" type="curve" smooth="yes"/>
      <point x="355" y="619"/>
      <point x="396" y="602"/>
      <point x="427" y="568" type="curve"/>
      <point x="161" y="125" type="line"/>
      <point x="135" y="172"/>
      <point x="121" y="240"/>
    </contour>
    <contour>
      <point x="493" y="327" type="curve" smooth="yes"/>
      <point x="493" y="137"/>
      <point x="422" y="36"/>
      <point x="307" y="36" type="curve" smooth="yes"/>
      <point x="258" y="36"/>
      <point x="218" y="53"/>
      <point x="187" y="87" type="curve"/>
      <point x="453" y="531" type="line"/>
      <point x="479" y="482"/>
      <point x="493" y="415"/>
    </contour>
  </outline>
</glyph>
<glyph name="ae" format="2">
  <advance width="614"/>
  <unicode hex="00E6"/>
  <outline>
    <contour>
      <point x="513" y="44" type="line"/>
      <point x="471" y="45" type="line" smooth="yes"/>
      <point x="373" y="47"/>
      <point x="334" y="104"/>
      <point x="331" y="206" type="curve"/>
      <point x="579" y="206" type="line"/>
      <point x="580" y="213"/>
      <point x="581" y="221"/>
      <point x="581" y="231" type="curve" smooth="yes"/>
      <point x="581" y="390"/>
      <point x="519" y="470"/>
      <point x="435" y="470" type="curve" smooth="yes"/>
      <point x="389" y="470"/>
      <point x="348" y="440"/>
      <point x="321" y="387" type="curve"/>
      <point x="309" y="445"/>
      <point x="278" y="470"/>
      <point x="211" y="470" type="curve" smooth="yes"/>
      <point x="178" y="470"/>
      <point x="134" y="466"/>
      <point x="77" y="456" type="curve"/>
      <point x="84" y="407" type="line"/>
      <point x="142" y="417"/>
      <point x="180" y="420"/>
      <point x="206" y="420" type="curve" smooth="yes"/>
      <point x="257" y="420"/>
      <point x="272" y="395"/>
      <point x="272" y="322" type="curve" smooth="yes"/>
      <point x="272" y="281" type="line"/>
      <point x="175" y="261" type="line" smooth="yes"/>
      <point x="76" y="241"/>
      <point x="38" y="199"/>
      <point x="38" y="122" type="curve" smooth="yes"/>
      <point x="38" y="40"/>
      <point x="79" y="-5"/>
      <point x="153" y="-5" type="curve" smooth="yes"/>
      <point x="203" y="-5"/>
      <point x="242" y="16"/>
      <point x="294" y="62" type="curve"/>
      <point x="311" y="62" type="line"/>
      <point x="341" y="21"/>
      <point x="389" y="-2"/>
      <point x="460" y="-4" type="curve" smooth="yes"/>
      <point x="511" y="-5" type="line"/>
    </contour>
    <contour>
      <point x="435" y="420" type="curve" smooth="yes"/>
      <point x="480" y="420"/>
      <point x="515" y="368"/>
      <point x="520" y="255" type="curve"/>
      <point x="332" y="255" type="line"/>
      <point x="340" y="361"/>
      <point x="384" y="420"/>
    </contour>
    <contour>
      <point x="160" y="45" type="curve" smooth="yes"/>
      <point x="118" y="45"/>
      <point x="98" y="74"/>
      <point x="98" y="126" type="curve" smooth="yes"/>
      <point x="98" y="177"/>
      <point x="114" y="200"/>
      <point x="188" y="217" type="curve" smooth="yes"/>
      <point x="272" y="236" type="line"/>
      <point x="272" y="179"/>
      <point x="277" y="143"/>
      <point x="287" y="112" type="curve"/>
      <point x="223" y="62"/>
      <point x="199" y="45"/>
    </contour>
  </outline>
</glyph>
<glyph name="ccedilla" format="2">
  <advance width="614"/>
  <unicode hex="00E7"/>
  <outline>
    <contour>
      <point x="324" y="425" type="curve" smooth="yes"/>
      <point x="371" y="425"/>
      <point x="416" y="415"/>
      <point x="509" y="356" type="curve"/>
      <point x="536" y="401" type="line"/>
      <point x="442" y="463"/>
      <point x="383" y="475"/>
      <point x="326" y="475" type="curve" smooth="yes"/>
      <point x="186" y="475"/>
      <point x="77" y="373"/>
      <point x="77" y="235" type="curve" smooth="yes"/>
      <point x="77" y="89"/>
      <point x="164" y="0"/>
      <point x="283" y="-13" type="curve"/>
      <point x="253" y="-98" type="line"/>
      <point x="259" y="-108" type="line"/>
      <point x="391" y="-112"/>
      <point x="404" y="-131"/>
      <point x="404" y="-157" type="curve" smooth="yes"/>
      <point x="404" y="-183"/>
      <point x="388" y="-205"/>
      <point x="196" y="-221" type="curve"/>
      <point x="211" y="-270" type="line"/>
      <point x="447" y="-250"/>
      <point x="464" y="-203"/>
      <point x="464" y="-155" type="curve" smooth="yes"/>
      <point x="464" y="-108"/>
      <point x="440" y="-77"/>
      <point x="310" y="-66" type="curve"/>
      <point x="327" y="-15" type="line"/>
      <point x="386" y="-13"/>
      <point x="445" y="3"/>
      <point x="537" y="56" type="curve"/>
      <point x="513" y="98" type="line"/>
      <point x="422" y="48"/>
      <point x="366" y="35"/>
      <point x="315" y="35" type="curve" smooth="yes"/>
      <point x="212" y="35"/>
      <point x="137" y="118"/>
      <point x="137" y="233" type="curve" smooth="yes"/>
      <point x="137" y="345"/>
      <point x="213" y="425"/>
    </contour>
  </outline>
</glyph>
<glyph name="eth" format="2">
  <advance width="614"/>
  <unicode hex="00F0"/>
  <guideline x="196" y="741" angle="180.0" identifier="G57mRtmwhU"/>
  <outline>
    <contour>
      <point x="456" y="739" type="line"/>
      <point x="366" y="662" type="line"/>
      <point x="318" y="694"/>
      <point x="264" y="712"/>
      <point x="201" y="725" type="curve"/>
      <point x="187" y="678" type="line"/>
      <point x="251" y="664"/>
      <point x="291" y="649"/>
      <point x="324" y="626" type="curve"/>
      <point x="212" y="530" type="line"/>
      <point x="244" y="495" type="line"/>
      <point x="363" y="598" type="line"/>
      <point x="432" y="544"/>
      <point x="473" y="479"/>
      <point x="481" y="371" type="curve"/>
      <point x="418" y="412"/>
      <point x="359" y="426"/>
      <point x="297" y="426" type="curve" smooth="yes"/>
      <point x="159" y="426"/>
      <point x="71" y="331"/>
      <point x="71" y="213" type="curve" smooth="yes"/>
      <point x="71" y="69"/>
      <point x="161" y="-15"/>
      <point x="290" y="-15" type="curve" smooth="yes"/>
      <point x="439" y="-15"/>
      <point x="543" y="97"/>
      <point x="543" y="326" type="curve" smooth="yes"/>
      <point x="543" y="479"/>
      <point x="487" y="565"/>
      <point x="404" y="633" type="curve"/>
      <point x="487" y="705" type="line"/>
    </contour>
    <contour>
      <point x="131" y="211" type="curve" smooth="yes"/>
      <point x="131" y="312"/>
      <point x="194" y="376"/>
      <point x="303" y="376" type="curve" smooth="yes"/>
      <point x="353" y="376"/>
      <point x="400" y="367"/>
      <point x="483" y="320" type="curve"/>
      <point x="483" y="119"/>
      <point x="401" y="35"/>
      <point x="292" y="35" type="curve" smooth="yes"/>
      <point x="200" y="35"/>
      <point x="131" y="104"/>
    </contour>
  </outline>
</glyph>
<glyph name="oslash" format="2">
  <advance width="614"/>
  <unicode hex="00F8"/>
  <outline>
    <contour>
      <point x="543" y="228" type="curve" smooth="yes"/>
      <point x="543" y="300"/>
      <point x="516" y="363"/>
      <point x="473" y="407" type="curve"/>
      <point x="571" y="531" type="line"/>
      <point x="503" y="531" type="line"/>
      <point x="435" y="438" type="line"/>
      <point x="399" y="462"/>
      <point x="356" y="475"/>
      <point x="309" y="475" type="curve" smooth="yes"/>
      <point x="169" y="475"/>
      <point x="71" y="374"/>
      <point x="71" y="232" type="curve" smooth="yes"/>
      <point x="71" y="159"/>
      <point x="98" y="96"/>
      <point x="142" y="52" type="curve"/>
      <point x="43" y="-71" type="line"/>
      <point x="111" y="-71" type="line"/>
      <point x="178" y="22" type="line"/>
      <point x="214" y="-2"/>
      <point x="258" y="-15"/>
      <point x="305" y="-15" type="curve" smooth="yes"/>
      <point x="445" y="-15"/>
      <point x="543" y="86"/>
    </contour>
    <contour>
      <point x="131" y="230" type="curve" smooth="yes"/>
      <point x="131" y="346"/>
      <point x="203" y="425"/>
      <point x="307" y="425" type="curve" smooth="yes"/>
      <point x="344" y="425"/>
      <point x="376" y="415"/>
      <point x="403" y="398" type="curve"/>
      <point x="175" y="95" type="line"/>
      <point x="147" y="129"/>
      <point x="131" y="175"/>
    </contour>
    <contour>
      <point x="483" y="230" type="curve" smooth="yes"/>
      <point x="483" y="114"/>
      <point x="411" y="35"/>
      <point x="307" y="35" type="curve" smooth="yes"/>
      <point x="270" y="35"/>
      <point x="237" y="45"/>
      <point x="211" y="62" type="curve"/>
      <point x="439" y="366" type="line"/>
      <point x="467" y="332"/>
      <point x="483" y="285"/>
    </contour>
  </outline>
</glyph>
<glyph name="dcroat" format="2">
  <advance width="614"/>
  <unicode hex="0111"/>
  <anchor x="322" y="-35" name="below"/>
  <outline>
    <contour>
      <point x="264" y="-8" type="curve" smooth="yes"/>
      <point x="328" y="-8"/>
      <point x="376" y="17"/>
      <point x="440" y="86" type="curve"/>
      <point x="448" y="0" type="line"/>
      <point x="497" y="0" type="line"/>
      <point x="497" y="535" type="line"/>
      <point x="583" y="535" type="line"/>
      <point x="583" y="583" type="line"/>
      <point x="497" y="583" type="line"/>
      <point x="497" y="710" type="line"/>
      <point x="438" y="710" type="line"/>
      <point x="438" y="583" type="line"/>
      <point x="238" y="583" type="line"/>
      <point x="238" y="535" type="line"/>
      <point x="438" y="535" type="line"/>
      <point x="438" y="357" type="line"/>
      <point x="379" y="413"/>
      <point x="328" y="428"/>
      <point x="286" y="428" type="curve" smooth="yes"/>
      <point x="161" y="428"/>
      <point x="66" y="335"/>
      <point x="66" y="207" type="curve" smooth="yes"/>
      <point x="66" y="79"/>
      <point x="155" y="-8"/>
    </contour>
    <contour>
      <point x="126" y="206" type="curve" smooth="yes"/>
      <point x="126" y="301"/>
      <point x="186" y="378"/>
      <point x="291" y="378" type="curve" smooth="yes"/>
      <point x="326" y="378"/>
      <point x="375" y="364"/>
      <point x="438" y="299" type="curve"/>
      <point x="438" y="144" type="line"/>
      <point x="364" y="64"/>
      <point x="320" y="42"/>
      <point x="272" y="42" type="curve" smooth="yes"/>
      <point x="196" y="42"/>
      <point x="126" y="106"/>
    </contour>
  </outline>
</glyph>
<glyph name="eogonek" format="2">
  <advance width="614"/>
  <unicode hex="0119"/>
  <anchor x="321" y="498" name="aboveLCx"/>
  <anchor x="321" y="531" name="aboveLC"/>
  <outline>
    <contour>
      <point x="297" y="-154" type="curve" smooth="yes"/>
      <point x="297" y="-202"/>
      <point x="320" y="-226"/>
      <point x="388" y="-230" type="curve" smooth="yes"/>
      <point x="481" y="-235" type="line"/>
      <point x="485" y="-192" type="line"/>
      <point x="400" y="-187" type="line" smooth="yes"/>
      <point x="363" y="-185"/>
      <point x="352" y="-168"/>
      <point x="352" y="-139" type="curve" smooth="yes"/>
      <point x="352" y="-117"/>
      <point x="366" y="-86"/>
      <point x="448" y="-5" type="curve"/>
      <point x="450" y="44" type="line"/>
      <point x="345" y="46" type="line" smooth="yes"/>
      <point x="214" y="49"/>
      <point x="149" y="104"/>
      <point x="143" y="206" type="curve"/>
      <point x="531" y="206" type="line"/>
      <point x="532" y="213"/>
      <point x="533" y="221"/>
      <point x="533" y="231" type="curve" smooth="yes"/>
      <point x="533" y="398"/>
      <point x="448" y="475"/>
      <point x="318" y="475" type="curve" smooth="yes"/>
      <point x="187" y="475"/>
      <point x="83" y="372"/>
      <point x="83" y="220" type="curve" smooth="yes"/>
      <point x="83" y="83"/>
      <point x="160" y="0"/>
      <point x="331" y="-3" type="curve" smooth="yes"/>
      <point x="400" y="-4" type="line"/>
      <point x="309" y="-91"/>
      <point x="297" y="-127"/>
    </contour>
    <contour>
      <point x="318" y="425" type="curve" smooth="yes"/>
      <point x="403" y="425"/>
      <point x="464" y="378"/>
      <point x="472" y="255" type="curve"/>
      <point x="145" y="255" type="line"/>
      <point x="158" y="364"/>
      <point x="232" y="425"/>
    </contour>
  </outline>
</glyph>
<glyph name="hbar" format="2">
  <advance width="614"/>
  <unicode hex="0127"/>
  <outline>
    <contour>
      <point x="379" y="535" type="line"/>
      <point x="379" y="583" type="line"/>
      <point x="179" y="583" type="line"/>
      <point x="179" y="710" type="line"/>
      <point x="120" y="710" type="line"/>
      <point x="120" y="583" type="line"/>
      <point x="34" y="583" type="line"/>
      <point x="34" y="535" type="line"/>
      <point x="120" y="535" type="line"/>
      <point x="120" y="0" type="line"/>
      <point x="179" y="0" type="line"/>
      <point x="179" y="252" type="line"/>
      <point x="278" y="346"/>
      <point x="313" y="376"/>
      <point x="361" y="376" type="curve" smooth="yes"/>
      <point x="426" y="376"/>
      <point x="454" y="343"/>
      <point x="454" y="276" type="curve" smooth="yes"/>
      <point x="454" y="0" type="line"/>
      <point x="513" y="0" type="line"/>
      <point x="513" y="286" type="line" smooth="yes"/>
      <point x="513" y="370"/>
      <point x="466" y="428"/>
      <point x="371" y="428" type="curve" smooth="yes"/>
      <point x="307" y="428"/>
      <point x="265" y="396"/>
      <point x="179" y="309" type="curve"/>
      <point x="179" y="535" type="line"/>
    </contour>
  </outline>
</glyph>
<glyph name="Iogonek" format="2">
  <advance width="614"/>
  <unicode hex="012E"/>
  <outline>
    <contour>
      <point x="139" y="26" type="line"/>
      <point x="139" y="0" type="line"/>
      <point x="286" y="0" type="line"/>
      <point x="213" y="-94"/>
      <point x="206" y="-126"/>
      <point x="206" y="-153" type="curve" smooth="yes"/>
      <point x="206" y="-201"/>
      <point x="229" y="-225"/>
      <point x="297" y="-229" type="curve" smooth="yes"/>
      <point x="390" y="-234" type="line"/>
      <point x="394" y="-191" type="line"/>
      <point x="309" y="-186" type="line" smooth="yes"/>
      <point x="272" y="-184"/>
      <point x="261" y="-167"/>
      <point x="261" y="-138" type="curve" smooth="yes"/>
      <point x="261" y="-114"/>
      <point x="268" y="-79"/>
      <point x="325" y="0" type="curve"/>
      <point x="475" y="0" type="line"/>
      <point x="475" y="26" type="line"/>
      <point x="338" y="48" type="line"/>
      <point x="338" y="607" type="line"/>
      <point x="475" y="629" type="line"/>
      <point x="475" y="655" type="line"/>
      <point x="139" y="655" type="line"/>
      <point x="139" y="629" type="line"/>
      <point x="277" y="607" type="line"/>
      <point x="277" y="48" type="line"/>
    </contour>
  </outline>
</glyph>
<glyph name="iogonek" format="2">
  <advance width="614"/>
  <unicode hex="012F"/>
  <outline>
    <contour>
      <point x="306" y="614" type="curve" smooth="yes"/>
      <point x="344" y="614"/>
      <point x="368" y="633"/>
      <point x="368" y="666" type="curve" smooth="yes"/>
      <point x="368" y="700"/>
      <point x="348" y="721"/>
      <point x="308" y="721" type="curve" smooth="yes"/>
      <point x="270" y="721"/>
      <point x="246" y="697"/>
      <point x="246" y="669" type="curve" smooth="yes"/>
      <point x="246" y="632"/>
      <point x="273" y="614"/>
    </contour>
    <contour>
      <point x="123" y="50" type="line"/>
      <point x="123" y="0" type="line"/>
      <point x="301" y="0" type="line"/>
      <point x="227" y="-95"/>
      <point x="220" y="-127"/>
      <point x="220" y="-154" type="curve" smooth="yes"/>
      <point x="220" y="-202"/>
      <point x="243" y="-226"/>
      <point x="311" y="-230" type="curve" smooth="yes"/>
      <point x="404" y="-235" type="line"/>
      <point x="408" y="-192" type="line"/>
      <point x="323" y="-187" type="line" smooth="yes"/>
      <point x="286" y="-185"/>
      <point x="275" y="-168"/>
      <point x="275" y="-139" type="curve" smooth="yes"/>
      <point x="275" y="-115"/>
      <point x="282" y="-80"/>
      <point x="340" y="0" type="curve"/>
      <point x="522" y="0" type="line"/>
      <point x="522" y="50" type="line"/>
      <point x="352" y="50" type="line"/>
      <point x="352" y="460" type="line"/>
      <point x="143" y="460" type="line"/>
      <point x="143" y="410" type="line"/>
      <point x="293" y="410" type="line"/>
      <point x="293" y="50" type="line"/>
    </contour>
  </outline>
</glyph>
<glyph name="Eng" format="2">
  <advance width="614"/>
  <unicode hex="014A"/>
  <outline>
    <contour>
      <point x="155" y="0" type="line"/>
      <point x="150" y="617" type="line"/>
      <point x="464" y="-65" type="line"/>
      <point x="464" y="-145"/>
      <point x="431" y="-172"/>
      <point x="350" y="-178" type="curve" smooth="yes"/>
      <point x="221" y="-188" type="line"/>
      <point x="224" y="-239" type="line"/>
      <point x="353" y="-230" type="line" smooth="yes"/>
      <point x="471" y="-222"/>
      <point x="517" y="-174"/>
      <point x="517" y="-74" type="curve" smooth="yes"/>
      <point x="517" y="655" type="line"/>
      <point x="459" y="655" type="line"/>
      <point x="463" y="75" type="line"/>
      <point x="196" y="655" type="line"/>
      <point x="97" y="655" type="line"/>
      <point x="97" y="0" type="line"/>
    </contour>
  </outline>
</glyph>
<glyph name="eng" format="2">
  <advance width="614"/>
  <unicode hex="014B"/>
  <outline>
    <contour>
      <point x="152" y="460" type="line"/>
      <point x="103" y="460" type="line"/>
      <point x="103" y="0" type="line"/>
      <point x="162" y="0" type="line"/>
      <point x="162" y="289" type="line"/>
      <point x="265" y="387"/>
      <point x="309" y="413"/>
      <point x="361" y="413" type="curve" smooth="yes"/>
      <point x="426" y="413"/>
      <point x="454" y="380"/>
      <point x="454" y="313" type="curve" smooth="yes"/>
      <point x="454" y="-69" type="line" smooth="yes"/>
      <point x="454" y="-143"/>
      <point x="423" y="-172"/>
      <point x="346" y="-178" type="curve" smooth="yes"/>
      <point x="217" y="-188" type="line"/>
      <point x="220" y="-239" type="line"/>
      <point x="349" y="-230" type="line" smooth="yes"/>
      <point x="467" y="-222"/>
      <point x="513" y="-174"/>
      <point x="513" y="-74" type="curve" smooth="yes"/>
      <point x="513" y="323" type="line" smooth="yes"/>
      <point x="513" y="407"/>
      <point x="466" y="465"/>
      <point x="371" y="465" type="curve" smooth="yes"/>
      <point x="302" y="465"/>
      <point x="252" y="435"/>
      <point x="161" y="345" type="curve"/>
    </contour>
  </outline>
</glyph>
<glyph name="oe" format="2">
  <advance width="614"/>
  <unicode hex="0153"/>
  <outline>
    <contour>
      <point x="188" y="-15" type="curve" smooth="yes"/>
      <point x="244" y="-15"/>
      <point x="291" y="26"/>
      <point x="316" y="94" type="curve"/>
      <point x="339" y="33"/>
      <point x="383" y="-3"/>
      <point x="458" y="-4" type="curve" smooth="yes"/>
      <point x="509" y="-5" type="line"/>
      <point x="511" y="44" type="line"/>
      <point x="469" y="45" type="line" smooth="yes"/>
      <point x="383" y="47"/>
      <point x="350" y="104"/>
      <point x="347" y="206" type="curve"/>
      <point x="579" y="206" type="line"/>
      <point x="580" y="213"/>
      <point x="581" y="221"/>
      <point x="581" y="231" type="curve" smooth="yes"/>
      <point x="581" y="393"/>
      <point x="522" y="475"/>
      <point x="443" y="475" type="curve" smooth="yes"/>
      <point x="390" y="475"/>
      <point x="344" y="431"/>
      <point x="319" y="357" type="curve"/>
      <point x="295" y="430"/>
      <point x="249" y="475"/>
      <point x="192" y="475" type="curve" smooth="yes"/>
      <point x="98" y="475"/>
      <point x="32" y="374"/>
      <point x="32" y="232" type="curve" smooth="yes"/>
      <point x="32" y="82"/>
      <point x="97" y="-15"/>
    </contour>
    <contour>
      <point x="190" y="35" type="curve" smooth="yes"/>
      <point x="132" y="35"/>
      <point x="92" y="112"/>
      <point x="92" y="230" type="curve" smooth="yes"/>
      <point x="92" y="346"/>
      <point x="132" y="425"/>
      <point x="190" y="425" type="curve" smooth="yes"/>
      <point x="248" y="425"/>
      <point x="288" y="343"/>
      <point x="288" y="230" type="curve" smooth="yes"/>
      <point x="288" y="109"/>
      <point x="248" y="35"/>
    </contour>
    <contour>
      <point x="443" y="425" type="curve" smooth="yes"/>
      <point x="484" y="425"/>
      <point x="516" y="371"/>
      <point x="520" y="255" type="curve"/>
      <point x="348" y="255" type="line"/>
      <point x="355" y="364"/>
      <point x="396" y="425"/>
    </contour>
  </outline>
</glyph>
<glyph name="Scedilla" format="2">
  <advance width="614"/>
  <unicode hex="015E"/>
  <outline>
    <contour>
      <point x="310" y="38" type="curve" smooth="yes"/>
      <point x="257" y="38"/>
      <point x="175" y="59"/>
      <point x="94" y="92" type="curve"/>
      <point x="75" y="38" type="line"/>
      <point x="153" y="7"/>
      <point x="220" y="-9"/>
      <point x="285" y="-12" type="curve"/>
      <point x="254" y="-98" type="line"/>
      <point x="260" y="-108" type="line"/>
      <point x="392" y="-112"/>
      <point x="405" y="-131"/>
      <point x="405" y="-157" type="curve" smooth="yes"/>
      <point x="405" y="-183"/>
      <point x="389" y="-205"/>
      <point x="197" y="-221" type="curve"/>
      <point x="212" y="-270" type="line"/>
      <point x="448" y="-250"/>
      <point x="465" y="-203"/>
      <point x="465" y="-155" type="curve" smooth="yes"/>
      <point x="465" y="-108"/>
      <point x="441" y="-77"/>
      <point x="311" y="-66" type="curve"/>
      <point x="328" y="-13" type="line"/>
      <point x="456" y="-7"/>
      <point x="535" y="58"/>
      <point x="535" y="173" type="curve" smooth="yes"/>
      <point x="535" y="263"/>
      <point x="488" y="314"/>
      <point x="364" y="354" type="curve" smooth="yes"/>
      <point x="290" y="378" type="line" smooth="yes"/>
      <point x="198" y="408"/>
      <point x="166" y="447"/>
      <point x="166" y="510" type="curve" smooth="yes"/>
      <point x="166" y="569"/>
      <point x="209" y="617"/>
      <point x="318" y="617" type="curve" smooth="yes"/>
      <point x="367" y="617"/>
      <point x="426" y="607"/>
      <point x="504" y="580" type="curve"/>
      <point x="519" y="634" type="line"/>
      <point x="438" y="658"/>
      <point x="387" y="668"/>
      <point x="318" y="668" type="curve" smooth="yes"/>
      <point x="170" y="668"/>
      <point x="103" y="587"/>
      <point x="103" y="506" type="curve" smooth="yes"/>
      <point x="103" y="420"/>
      <point x="151" y="359"/>
      <point x="278" y="319" type="curve" smooth="yes"/>
      <point x="352" y="296" type="line" smooth="yes"/>
      <point x="439" y="269"/>
      <point x="472" y="228"/>
      <point x="472" y="171" type="curve" smooth="yes"/>
      <point x="472" y="90"/>
      <point x="418" y="38"/>
    </contour>
  </outline>
</glyph>
<glyph name="scedilla" format="2">
  <advance width="614"/>
  <unicode hex="015F"/>
  <outline>
    <contour>
      <point x="514" y="124" type="curve" smooth="yes"/>
      <point x="514" y="190"/>
      <point x="488" y="223"/>
      <point x="359" y="256" type="curve" smooth="yes"/>
      <point x="281" y="276" type="line" smooth="yes"/>
      <point x="191" y="299"/>
      <point x="177" y="321"/>
      <point x="177" y="354" type="curve" smooth="yes"/>
      <point x="177" y="391"/>
      <point x="210" y="421"/>
      <point x="333" y="421" type="curve" smooth="yes"/>
      <point x="376" y="421"/>
      <point x="432" y="414"/>
      <point x="488" y="400" type="curve"/>
      <point x="499" y="453" type="line"/>
      <point x="446" y="464"/>
      <point x="376" y="472"/>
      <point x="333" y="472" type="curve" smooth="yes"/>
      <point x="177" y="472"/>
      <point x="117" y="419"/>
      <point x="117" y="348" type="curve" smooth="yes"/>
      <point x="117" y="286"/>
      <point x="141" y="252"/>
      <point x="273" y="218" type="curve" smooth="yes"/>
      <point x="351" y="198" type="line" smooth="yes"/>
      <point x="436" y="176"/>
      <point x="454" y="154"/>
      <point x="454" y="118" type="curve" smooth="yes"/>
      <point x="454" y="73"/>
      <point x="414" y="39"/>
      <point x="289" y="39" type="curve" smooth="yes"/>
      <point x="244" y="39"/>
      <point x="177" y="47"/>
      <point x="114" y="62" type="curve"/>
      <point x="102" y="8" type="line"/>
      <point x="175" y="-7"/>
      <point x="233" y="-11"/>
      <point x="279" y="-12" type="curve"/>
      <point x="248" y="-98" type="line"/>
      <point x="254" y="-108" type="line"/>
      <point x="386" y="-112"/>
      <point x="399" y="-131"/>
      <point x="399" y="-157" type="curve" smooth="yes"/>
      <point x="399" y="-183"/>
      <point x="383" y="-205"/>
      <point x="191" y="-221" type="curve"/>
      <point x="206" y="-270" type="line"/>
      <point x="442" y="-250"/>
      <point x="459" y="-203"/>
      <point x="459" y="-155" type="curve" smooth="yes"/>
      <point x="459" y="-108"/>
      <point x="435" y="-77"/>
      <point x="305" y="-66" type="curve"/>
      <point x="323" y="-11" type="line"/>
      <point x="460" y="-3"/>
      <point x="514" y="53"/>
    </contour>
  </outline>
</glyph>
<glyph name="Tcedilla" format="2">
  <advance width="614"/>
  <unicode hex="0162"/>
  <outline>
    <contour>
      <point x="56" y="604" type="line"/>
      <point x="277" y="604" type="line"/>
      <point x="277" y="0" type="line"/>
      <point x="285" y="0" type="line"/>
      <point x="252" y="-93" type="line"/>
      <point x="258" y="-103" type="line"/>
      <point x="390" y="-107"/>
      <point x="403" y="-126"/>
      <point x="403" y="-152" type="curve" smooth="yes"/>
      <point x="403" y="-178"/>
      <point x="387" y="-200"/>
      <point x="195" y="-216" type="curve"/>
      <point x="210" y="-265" type="line"/>
      <point x="446" y="-245"/>
      <point x="463" y="-198"/>
      <point x="463" y="-150" type="curve" smooth="yes"/>
      <point x="463" y="-103"/>
      <point x="439" y="-72"/>
      <point x="309" y="-61" type="curve"/>
      <point x="329" y="0" type="line"/>
      <point x="338" y="0" type="line"/>
      <point x="338" y="604" type="line"/>
      <point x="558" y="604" type="line"/>
      <point x="558" y="655" type="line"/>
      <point x="56" y="655" type="line"/>
    </contour>
  </outline>
</glyph>
<glyph name="tcedilla" format="2">
  <advance width="614"/>
  <unicode hex="0163"/>
  <outline>
    <contour>
      <point x="229" y="167" type="line" smooth="yes"/>
      <point x="229" y="76"/>
      <point x="250" y="31"/>
      <point x="305" y="12" type="curve"/>
      <point x="267" y="-93" type="line"/>
      <point x="273" y="-103" type="line"/>
      <point x="405" y="-107"/>
      <point x="418" y="-126"/>
      <point x="418" y="-152" type="curve" smooth="yes"/>
      <point x="418" y="-178"/>
      <point x="402" y="-200"/>
      <point x="210" y="-216" type="curve"/>
      <point x="225" y="-265" type="line"/>
      <point x="461" y="-245"/>
      <point x="478" y="-198"/>
      <point x="478" y="-150" type="curve" smooth="yes"/>
      <point x="478" y="-103"/>
      <point x="454" y="-72"/>
      <point x="324" y="-61" type="curve"/>
      <point x="345" y="3" type="line"/>
      <point x="354" y="1"/>
      <point x="364" y="1"/>
      <point x="374" y="0" type="curve" smooth="yes"/>
      <point x="530" y="-8" type="line"/>
      <point x="533" y="43" type="line"/>
      <point x="386" y="51" type="line" smooth="yes"/>
      <point x="310" y="55"/>
      <point x="288" y="81"/>
      <point x="288" y="178" type="curve" smooth="yes"/>
      <point x="288" y="410" type="line"/>
      <point x="503" y="410" type="line"/>
      <point x="503" y="460" type="line"/>
      <point x="288" y="460" type="line"/>
      <point x="288" y="637" type="line"/>
      <point x="229" y="637" type="line"/>
      <point x="229" y="460" type="line"/>
      <point x="68" y="460" type="line"/>
      <point x="68" y="410" type="line"/>
      <point x="229" y="410" type="line"/>
    </contour>
  </outline>
</glyph>
<glyph name="Uogonek" format="2">
  <advance width="614"/>
  <unicode hex="0172"/>
  <outline>
    <contour>
      <point x="225" y="-159" type="curve" smooth="yes"/>
      <point x="225" y="-207"/>
      <point x="248" y="-231"/>
      <point x="316" y="-235" type="curve" smooth="yes"/>
      <point x="409" y="-240" type="line"/>
      <point x="413" y="-197" type="line"/>
      <point x="328" y="-192" type="line" smooth="yes"/>
      <point x="291" y="-190"/>
      <point x="280" y="-173"/>
      <point x="280" y="-144" type="curve" smooth="yes"/>
      <point x="280" y="-121"/>
      <point x="287" y="-87"/>
      <point x="339" y="-14" type="curve"/>
      <point x="465" y="-2"/>
      <point x="532" y="80"/>
      <point x="532" y="234" type="curve" smooth="yes"/>
      <point x="532" y="655" type="line"/>
      <point x="472" y="655" type="line"/>
      <point x="472" y="234" type="line" smooth="yes"/>
      <point x="472" y="97"/>
      <point x="417" y="36"/>
      <point x="307" y="36" type="curve" smooth="yes"/>
      <point x="201" y="36"/>
      <point x="143" y="99"/>
      <point x="143" y="234" type="curve" smooth="yes"/>
      <point x="143" y="655" type="line"/>
      <point x="82" y="655" type="line"/>
      <point x="82" y="234" type="line" smooth="yes"/>
      <point x="82" y="72"/>
      <point x="159" y="-12"/>
      <point x="298" y="-15" type="curve"/>
      <point x="232" y="-102"/>
      <point x="225" y="-133"/>
    </contour>
  </outline>
</glyph>
<glyph name="uogonek" format="2">
  <advance width="614"/>
  <unicode hex="0173"/>
  <outline>
    <contour>
      <point x="382" y="-154" type="curve" smooth="yes"/>
      <point x="382" y="-202"/>
      <point x="405" y="-226"/>
      <point x="473" y="-230" type="curve" smooth="yes"/>
      <point x="566" y="-235" type="line"/>
      <point x="570" y="-192" type="line"/>
      <point x="485" y="-187" type="line" smooth="yes"/>
      <point x="448" y="-185"/>
      <point x="437" y="-168"/>
      <point x="437" y="-139" type="curve" smooth="yes"/>
      <point x="437" y="-115"/>
      <point x="444" y="-80"/>
      <point x="502" y="0" type="curve"/>
      <point x="511" y="0" type="line"/>
      <point x="511" y="460" type="line"/>
      <point x="452" y="460" type="line"/>
      <point x="452" y="171" type="line"/>
      <point x="349" y="73"/>
      <point x="305" y="47"/>
      <point x="253" y="47" type="curve" smooth="yes"/>
      <point x="188" y="47"/>
      <point x="160" y="80"/>
      <point x="160" y="147" type="curve" smooth="yes"/>
      <point x="160" y="460" type="line"/>
      <point x="101" y="460" type="line"/>
      <point x="101" y="137" type="line" smooth="yes"/>
      <point x="101" y="53"/>
      <point x="148" y="-5"/>
      <point x="243" y="-5" type="curve" smooth="yes"/>
      <point x="311" y="-5"/>
      <point x="362" y="25"/>
      <point x="452" y="114" type="curve"/>
      <point x="456" y="0" type="line"/>
      <point x="463" y="0" type="line"/>
      <point x="389" y="-95"/>
      <point x="382" y="-127"/>
    </contour>
  </outline>
</glyph>
<glyph name="Schwa" format="2">
  <advance width="614"/>
  <unicode hex="018F"/>
  <outline>
    <contour>
      <point x="546" y="326" type="curve" smooth="yes"/>
      <point x="546" y="583"/>
      <point x="448" y="664"/>
      <point x="268" y="664" type="curve" smooth="yes"/>
      <point x="233" y="664"/>
      <point x="194" y="661"/>
      <point x="149" y="655" type="curve"/>
      <point x="154" y="603" type="line"/>
      <point x="194" y="609"/>
      <point x="235" y="613"/>
      <point x="270" y="613" type="curve" smooth="yes"/>
      <point x="401" y="613"/>
      <point x="474" y="563"/>
      <point x="482" y="369" type="curve"/>
      <point x="74" y="369" type="line"/>
      <point x="70" y="344"/>
      <point x="69" y="326"/>
      <point x="69" y="311" type="curve" smooth="yes"/>
      <point x="69" y="85"/>
      <point x="147" y="-15"/>
      <point x="299" y="-15" type="curve" smooth="yes"/>
      <point x="440" y="-15"/>
      <point x="546" y="72"/>
    </contour>
    <contour>
      <point x="299" y="36" type="curve" smooth="yes"/>
      <point x="195" y="36"/>
      <point x="131" y="92"/>
      <point x="129" y="318" type="curve"/>
      <point x="483" y="318" type="line"/>
      <point x="481" y="99"/>
      <point x="411" y="36"/>
    </contour>
  </outline>
</glyph>
<glyph name="uhorn" format="2">
  <advance width="614"/>
  <unicode hex="01B0"/>
  <outline>
    <contour>
      <point x="511" y="0" type="line"/>
      <point x="511" y="420" type="line"/>
      <point x="587" y="425"/>
      <point x="626" y="464"/>
      <point x="629" y="572" type="curve"/>
      <point x="571" y="572" type="line"/>
      <point x="567" y="477"/>
      <point x="554" y="460"/>
      <point x="471" y="460" type="curve" smooth="yes"/>
      <point x="452" y="460" type="line"/>
      <point x="452" y="171" type="line"/>
      <point x="349" y="73"/>
      <point x="305" y="47"/>
      <point x="253" y="47" type="curve" smooth="yes"/>
      <point x="188" y="47"/>
      <point x="160" y="80"/>
      <point x="160" y="147" type="curve" smooth="yes"/>
      <point x="160" y="460" type="line"/>
      <point x="101" y="460" type="line"/>
      <point x="101" y="137" type="line" smooth="yes"/>
      <point x="101" y="53"/>
      <point x="148" y="-5"/>
      <point x="243" y="-5" type="curve" smooth="yes"/>
      <point x="311" y="-5"/>
      <point x="362" y="25"/>
      <point x="452" y="114" type="curve"/>
      <point x="456" y="0" type="line"/>
    </contour>
  </outline>
</glyph>
<glyph name="oogonek" format="2">
  <advance width="614"/>
  <unicode hex="01EB"/>
  <outline>
    <contour>
      <point x="214" y="-159" type="curve" smooth="yes"/>
      <point x="214" y="-207"/>
      <point x="237" y="-231"/>
      <point x="305" y="-235" type="curve" smooth="yes"/>
      <point x="398" y="-240" type="line"/>
      <point x="402" y="-197" type="line"/>
      <point x="317" y="-192" type="line" smooth="yes"/>
      <point x="280" y="-190"/>
      <point x="269" y="-173"/>
      <point x="269" y="-144" type="curve" smooth="yes"/>
      <point x="269" y="-121"/>
      <point x="276" y="-87"/>
      <point x="328" y="-14" type="curve"/>
      <point x="455" y="-4"/>
      <point x="543" y="90"/>
      <point x="543" y="228" type="curve" smooth="yes"/>
      <point x="543" y="374"/>
      <point x="446" y="475"/>
      <point x="309" y="475" type="curve" smooth="yes"/>
      <point x="169" y="475"/>
      <point x="71" y="374"/>
      <point x="71" y="232" type="curve" smooth="yes"/>
      <point x="71" y="89"/>
      <point x="160" y="-6"/>
      <point x="287" y="-14" type="curve"/>
      <point x="221" y="-102"/>
      <point x="214" y="-133"/>
    </contour>
    <contour>
      <point x="307" y="35" type="curve" smooth="yes"/>
      <point x="203" y="35"/>
      <point x="131" y="112"/>
      <point x="131" y="230" type="curve" smooth="yes"/>
      <point x="131" y="346"/>
      <point x="203" y="425"/>
      <point x="307" y="425" type="curve" smooth="yes"/>
      <point x="411" y="425"/>
      <point x="483" y="343"/>
      <point x="483" y="230" type="curve" smooth="yes"/>
      <point x="483" y="109"/>
      <point x="411" y="35"/>
    </contour>
  </outline>
</glyph>
<glyph name="schwa" format="2">
  <advance width="614"/>
  <unicode hex="0259"/>
  <outline>
    <contour>
      <point x="269" y="414" type="line" smooth="yes"/>
      <point x="400" y="411"/>
      <point x="465" y="356"/>
      <point x="471" y="254" type="curve"/>
      <point x="83" y="254" type="line"/>
      <point x="82" y="247"/>
      <point x="81" y="239"/>
      <point x="81" y="229" type="curve" smooth="yes"/>
      <point x="81" y="62"/>
      <point x="166" y="-15"/>
      <point x="296" y="-15" type="curve" smooth="yes"/>
      <point x="427" y="-15"/>
      <point x="531" y="88"/>
      <point x="531" y="240" type="curve" smooth="yes"/>
      <point x="531" y="377"/>
      <point x="454" y="460"/>
      <point x="283" y="463" type="curve" smooth="yes"/>
      <point x="166" y="465" type="line"/>
      <point x="164" y="416" type="line"/>
    </contour>
    <contour>
      <point x="296" y="35" type="curve" smooth="yes"/>
      <point x="211" y="35"/>
      <point x="150" y="82"/>
      <point x="142" y="205" type="curve"/>
      <point x="469" y="205" type="line"/>
      <point x="456" y="96"/>
      <point x="382" y="35"/>
    </contour>
  </outline>
</glyph>
<glyph name="ringhalfleft" format="2">
  <advance width="614"/>
  <unicode hex="02BF"/>
  <outline>
    <contour>
      <point x="418" y="725" type="line"/>
      <point x="228" y="725"/>
      <point x="154" y="635"/>
      <point x="154" y="519" type="curve" smooth="yes"/>
      <point x="154" y="403"/>
      <point x="228" y="315"/>
      <point x="418" y="315" type="curve"/>
      <point x="418" y="377" type="line"/>
      <point x="272" y="377"/>
      <point x="230" y="433"/>
      <point x="230" y="519" type="curve" smooth="yes"/>
      <point x="230" y="605"/>
      <point x="273" y="663"/>
      <point x="418" y="663" type="curve"/>
    </contour>
  </outline>
</glyph>
<glyph name="acutecmb" format="2">
  <unicode hex="0301"/>
  <anchor x="0" y="502" name="_aboveLC"/>
  <anchor x="0" y="472" name="_aboveLCx"/>
  <outline>
    <contour>
      <point x="-82" y="567" type="line"/>
      <point x="-54" y="536" type="line"/>
      <point x="157" y="695" type="line"/>
      <point x="118" y="738" type="line"/>
    </contour>
  </outline>
</glyph>
<glyph name="circumflexcmb" format="2">
  <unicode hex="0302"/>
  <anchor x="0" y="502" name="_aboveLC"/>
  <anchor x="0" y="472" name="_aboveLCx"/>
  <outline>
    <contour>
      <point x="-183" y="566" type="line"/>
      <point x="-153" y="536" type="line"/>
      <point x="0" y="682" type="line"/>
      <point x="153" y="536" type="line"/>
      <point x="183" y="566" type="line"/>
      <point x="18" y="741" type="line"/>
      <point x="-18" y="741" type="line"/>
    </contour>
  </outline>
</glyph>
<glyph name="brevecmb" format="2">
  <unicode hex="0306"/>
  <anchor x="0" y="502" name="_aboveLC"/>
  <anchor x="0" y="472" name="_aboveLCx"/>
  <outline>
    <contour>
      <point x="0" y="586" type="curve" smooth="yes"/>
      <point x="-66" y="586"/>
      <point x="-103" y="631"/>
      <point x="-137" y="730" type="curve"/>
      <point x="-179" y="718" type="line"/>
      <point x="-145" y="591"/>
      <point x="-96" y="536"/>
      <point x="0" y="536" type="curve" smooth="yes"/>
      <point x="96" y="536"/>
      <point x="145" y="591"/>
      <point x="179" y="718" type="curve"/>
      <point x="137" y="730" type="line"/>
      <point x="103" y="631"/>
      <point x="66" y="586"/>
    </contour>
  </outline>
</glyph>
<glyph name="dieresiscmb" format="2">
  <unicode hex="0308"/>
  <anchor x="0" y="502" name="_aboveLC"/>
  <anchor x="0" y="472" name="_aboveLCx"/>
  <outline>
    <contour>
      <point x="-119" y="556" type="curve" smooth="yes"/>
      <point x="-86" y="556"/>
      <point x="-66" y="573"/>
      <point x="-66" y="605" type="curve" smooth="yes"/>
      <point x="-66" y="637"/>
      <point x="-84" y="655"/>
      <point x="-118" y="655" type="curve" smooth="yes"/>
      <point x="-150" y="655"/>
      <point x="-170" y="635"/>
      <point x="-170" y="605" type="curve" smooth="yes"/>
      <point x="-170" y="573"/>
      <point x="-151" y="556"/>
    </contour>
    <contour>
      <point x="117" y="556" type="curve" smooth="yes"/>
      <point x="150" y="556"/>
      <point x="170" y="573"/>
      <point x="170" y="605" type="curve" smooth="yes"/>
      <point x="170" y="637"/>
      <point x="152" y="655"/>
      <point x="118" y="655" type="curve" smooth="yes"/>
      <point x="87" y="655"/>
      <point x="67" y="635"/>
      <point x="67" y="605" type="curve" smooth="yes"/>
      <point x="67" y="573"/>
      <point x="85" y="556"/>
    </contour>
  </outline>
</glyph>
<glyph name="commaturnedabovecmb" format="2">
  <unicode hex="0312"/>
  <anchor x="0" y="502" name="_aboveLC"/>
  <anchor x="0" y="472" name="_aboveLCx"/>
  <outline>
    <contour>
      <point x="86" y="751" type="line"/>
      <point x="-72" y="742"/>
      <point x="-105" y="681"/>
      <point x="-105" y="643" type="curve" smooth="yes"/>
      <point x="-105" y="593"/>
      <point x="-77" y="559"/>
      <point x="68" y="536" type="curve"/>
      <point x="101" y="572" type="line"/>
      <point x="101" y="575" type="line"/>
      <point x="-29" y="596"/>
      <point x="-48" y="619"/>
      <point x="-48" y="646" type="curve" smooth="yes"/>
      <point x="-48" y="675"/>
      <point x="-18" y="705"/>
      <point x="100" y="717" type="curve"/>
      <point x="100" y="719" type="line"/>
    </contour>
  </outline>
</glyph>
<glyph name="uni0326" format="2">
  <unicode hex="0326"/>
  <anchor x="0" y="-35" name="_below"/>
  <anchor x="0" y="-5" name="_belowx"/>
  <outline>
    <contour>
      <point x="-90" y="-291" type="line"/>
      <point x="68" y="-282"/>
      <point x="101" y="-221"/>
      <point x="101" y="-183" type="curve" smooth="yes"/>
      <point x="101" y="-133"/>
      <point x="73" y="-99"/>
      <point x="-72" y="-76" type="curve"/>
      <point x="-105" y="-112" type="line"/>
      <point x="-105" y="-115" type="line"/>
      <point x="25" y="-136"/>
      <point x="44" y="-159"/>
      <point x="44" y="-186" type="curve" smooth="yes"/>
      <point x="44" y="-215"/>
      <point x="14" y="-245"/>
      <point x="-104" y="-257" type="curve"/>
      <point x="-104" y="-259" type="line"/>
    </contour>
  </outline>
</glyph>
<glyph name="macronbelowcmb" format="2">
  <unicode hex="0331"/>
  <anchor x="0" y="-35" name="_below"/>
  <anchor x="0" y="-5" name="_belowx"/>
  <outline>
    <contour>
      <point x="-164" y="-166" type="line"/>
      <point x="164" y="-166" type="line"/>
      <point x="164" y="-116" type="line"/>
      <point x="-164" y="-116" type="line"/>
    </contour>
  </outline>
</glyph>
<glyph name="bahtthai" format="2">
  <advance width="614"/>
  <unicode hex="0E3F"/>
  <outline>
    <contour>
      <point x="343" y="-142" type="line"/>
      <point x="343" y="0" type="line"/>
      <point x="347" y="0" type="line" smooth="yes"/>
      <point x="506" y="0"/>
      <point x="560" y="78"/>
      <point x="560" y="161" type="curve" smooth="yes"/>
      <point x="560" y="253"/>
      <point x="496" y="316"/>
      <point x="372" y="332" type="curve"/>
      <point x="372" y="336" type="line"/>
      <point x="512" y="355"/>
      <point x="553" y="425"/>
      <point x="553" y="502" type="curve" smooth="yes"/>
      <point x="553" y="596"/>
      <point x="492" y="655"/>
      <point x="360" y="655" type="curve" smooth="yes"/>
      <point x="343" y="655" type="line"/>
      <point x="343" y="797" type="line"/>
      <point x="286" y="797" type="line"/>
      <point x="286" y="655" type="line"/>
      <point x="103" y="655" type="line"/>
      <point x="103" y="0" type="line"/>
      <point x="286" y="0" type="line"/>
      <point x="286" y="-142" type="line"/>
    </contour>
    <contour>
      <point x="162" y="606" type="line"/>
      <point x="292" y="606" type="line"/>
      <point x="292" y="358" type="line"/>
      <point x="162" y="352" type="line"/>
    </contour>
    <contour>
      <point x="358" y="606" type="line" smooth="yes"/>
      <point x="445" y="606"/>
      <point x="491" y="569"/>
      <point x="491" y="496" type="curve" smooth="yes"/>
      <point x="491" y="433"/>
      <point x="442" y="376"/>
      <point x="337" y="361" type="curve"/>
      <point x="337" y="606" type="line"/>
    </contour>
    <contour>
      <point x="292" y="304" type="line"/>
      <point x="292" y="49" type="line"/>
      <point x="162" y="49" type="line"/>
      <point x="162" y="308" type="line"/>
    </contour>
    <contour>
      <point x="499" y="165" type="curve" smooth="yes"/>
      <point x="499" y="98"/>
      <point x="450" y="49"/>
      <point x="349" y="49" type="curve" smooth="yes"/>
      <point x="337" y="49" type="line"/>
      <point x="337" y="301" type="line"/>
      <point x="446" y="289"/>
      <point x="499" y="232"/>
    </contour>
  </outline>
</glyph>
<glyph name="Hcedilla" format="2">
  <advance width="614"/>
  <unicode hex="1E28"/>
  <outline>
    <contour>
      <point x="100" y="655" type="line"/>
      <point x="100" y="0" type="line"/>
      <point x="110" y="0" type="line"/>
      <point x="77" y="-93" type="line"/>
      <point x="83" y="-103" type="line"/>
      <point x="215" y="-107"/>
      <point x="228" y="-126"/>
      <point x="228" y="-152" type="curve" smooth="yes"/>
      <point x="228" y="-178"/>
      <point x="212" y="-200"/>
      <point x="20" y="-216" type="curve"/>
      <point x="35" y="-265" type="line"/>
      <point x="271" y="-245"/>
      <point x="288" y="-198"/>
      <point x="288" y="-150" type="curve" smooth="yes"/>
      <point x="288" y="-103"/>
      <point x="264" y="-72"/>
      <point x="134" y="-61" type="curve"/>
      <point x="154" y="0" type="line"/>
      <point x="161" y="0" type="line"/>
      <point x="161" y="305" type="line"/>
      <point x="453" y="305" type="line"/>
      <point x="453" y="0" type="line"/>
      <point x="514" y="0" type="line"/>
      <point x="514" y="655" type="line"/>
      <point x="453" y="655" type="line"/>
      <point x="453" y="356" type="line"/>
      <point x="161" y="356" type="line"/>
      <point x="161" y="655" type="line"/>
    </contour>
  </outline>
</glyph>
<glyph name="hcedilla" format="2">
  <advance width="614"/>
  <unicode hex="1E29"/>
  <outline>
    <contour>
      <point x="162" y="710" type="line"/>
      <point x="103" y="710" type="line"/>
      <point x="103" y="0" type="line"/>
      <point x="110" y="0" type="line"/>
      <point x="77" y="-93" type="line"/>
      <point x="83" y="-103" type="line"/>
      <point x="215" y="-107"/>
      <point x="228" y="-126"/>
      <point x="228" y="-152" type="curve" smooth="yes"/>
      <point x="228" y="-178"/>
      <point x="212" y="-200"/>
      <point x="20" y="-216" type="curve"/>
      <point x="35" y="-265" type="line"/>
      <point x="271" y="-245"/>
      <point x="288" y="-198"/>
      <point x="288" y="-150" type="curve" smooth="yes"/>
      <point x="288" y="-103"/>
      <point x="264" y="-72"/>
      <point x="134" y="-61" type="curve"/>
      <point x="154" y="0" type="line"/>
      <point x="162" y="0" type="line"/>
      <point x="162" y="289" type="line"/>
      <point x="265" y="387"/>
      <point x="309" y="413"/>
      <point x="361" y="413" type="curve" smooth="yes"/>
      <point x="426" y="413"/>
      <point x="454" y="380"/>
      <point x="454" y="313" type="curve" smooth="yes"/>
      <point x="454" y="0" type="line"/>
      <point x="513" y="0" type="line"/>
      <point x="513" y="323" type="line" smooth="yes"/>
      <point x="513" y="407"/>
      <point x="466" y="465"/>
      <point x="371" y="465" type="curve" smooth="yes"/>
      <point x="303" y="465"/>
      <point x="252" y="435"/>
      <point x="162" y="346" type="curve"/>
    </contour>
  </outline>
</glyph>
<glyph name="uni1E9E" format="2">
  <advance width="614"/>
  <unicode hex="1E9E"/>
  <outline>
    <contour>
      <point x="326" y="336" type="line"/>
      <point x="466" y="245"/>
      <point x="498" y="205"/>
      <point x="498" y="140" type="curve" smooth="yes"/>
      <point x="498" y="88"/>
      <point x="467" y="45"/>
      <point x="399" y="45" type="curve" smooth="yes"/>
      <point x="374" y="45"/>
      <point x="353" y="47"/>
      <point x="324" y="52" type="curve"/>
      <point x="318" y="0" type="line"/>
      <point x="340" y="-4"/>
      <point x="364" y="-6"/>
      <point x="403" y="-6" type="curve" smooth="yes"/>
      <point x="506" y="-6"/>
      <point x="561" y="55"/>
      <point x="561" y="137" type="curve" smooth="yes"/>
      <point x="561" y="209"/>
      <point x="540" y="256"/>
      <point x="388" y="358" type="curve"/>
      <point x="529" y="563" type="line"/>
      <point x="529" y="583" type="line"/>
      <point x="431" y="647"/>
      <point x="372" y="670"/>
      <point x="306" y="670" type="curve" smooth="yes"/>
      <point x="180" y="670"/>
      <point x="97" y="587"/>
      <point x="97" y="434" type="curve" smooth="yes"/>
      <point x="97" y="0" type="line"/>
      <point x="158" y="0" type="line"/>
      <point x="158" y="433" type="line" smooth="yes"/>
      <point x="158" y="563"/>
      <point x="213" y="619"/>
      <point x="308" y="619" type="curve" smooth="yes"/>
      <point x="353" y="619"/>
      <point x="401" y="600"/>
      <point x="464" y="560" type="curve"/>
      <point x="326" y="356" type="line"/>
    </contour>
  </outline>
</glyph>
<glyph name="endash" format="2">
  <advance width="614"/>
  <unicode hex="2013"/>
  <outline>
    <contour>
      <point x="80" y="354" type="line"/>
      <point x="80" y="299" type="line"/>
      <point x="534" y="299" type="line"/>
      <point x="534" y="354" type="line"/>
    </contour>
  </outline>
</glyph>
<glyph name="quotedblleft" format="2">
  <advance width="614"/>
  <unicode hex="201C"/>
  <outline>
    <contour>
      <point x="298" y="710" type="line"/>
      <point x="235" y="710" type="line"/>
      <point x="126" y="607"/>
      <point x="111" y="578"/>
      <point x="98" y="446" type="curve"/>
      <point x="198" y="446" type="line"/>
      <point x="208" y="560"/>
      <point x="216" y="584"/>
      <point x="298" y="708" type="curve"/>
    </contour>
    <contour>
      <point x="543" y="710" type="line"/>
      <point x="480" y="710" type="line"/>
      <point x="371" y="607"/>
      <point x="356" y="578"/>
      <point x="343" y="446" type="curve"/>
      <point x="443" y="446" type="line"/>
      <point x="453" y="560"/>
      <point x="461" y="584"/>
      <point x="543" y="708" type="curve"/>
    </contour>
  </outline>
</glyph>
<glyph name="quotedblright" format="2">
  <advance width="614"/>
  <unicode hex="201D"/>
  <outline>
    <contour>
      <point x="316" y="446" type="line"/>
      <point x="379" y="446" type="line"/>
      <point x="488" y="549"/>
      <point x="503" y="578"/>
      <point x="516" y="710" type="curve"/>
      <point x="416" y="710" type="line"/>
      <point x="406" y="596"/>
      <point x="398" y="572"/>
      <point x="316" y="448" type="curve"/>
    </contour>
    <contour>
      <point x="71" y="446" type="line"/>
      <point x="134" y="446" type="line"/>
      <point x="243" y="549"/>
      <point x="258" y="578"/>
      <point x="271" y="710" type="curve"/>
      <point x="171" y="710" type="line"/>
      <point x="161" y="596"/>
      <point x="153" y="572"/>
      <point x="71" y="448" type="curve"/>
    </contour>
  </outline>
</glyph>
<glyph name="dagger" format="2">
  <advance width="614"/>
  <unicode hex="2020"/>
  <outline>
    <contour>
      <point x="539" y="435" type="curve"/>
      <point x="539" y="517" type="line"/>
      <point x="470" y="517"/>
      <point x="401" y="500"/>
      <point x="332" y="496" type="curve"/>
      <point x="336" y="567"/>
      <point x="353" y="640"/>
      <point x="353" y="710" type="curve"/>
      <point x="261" y="710" type="line"/>
      <point x="261" y="640"/>
      <point x="280" y="567"/>
      <point x="283" y="496" type="curve"/>
      <point x="213" y="499"/>
      <point x="140" y="517"/>
      <point x="75" y="517" type="curve"/>
      <point x="75" y="435" type="line"/>
      <point x="139" y="435"/>
      <point x="213" y="455"/>
      <point x="284" y="459" type="curve"/>
      <point x="283" y="306"/>
      <point x="261" y="152"/>
      <point x="261" y="0" type="curve"/>
      <point x="353" y="0" type="line"/>
      <point x="353" y="152"/>
      <point x="333" y="306"/>
      <point x="332" y="459" type="curve"/>
      <point x="401" y="455"/>
      <point x="471" y="435"/>
    </contour>
  </outline>
</glyph>
<glyph name="daggerdbl" format="2">
  <advance width="614"/>
  <unicode hex="2021"/>
  <outline>
    <contour>
      <point x="524" y="195" type="curve"/>
      <point x="524" y="277" type="line"/>
      <point x="460" y="277"/>
      <point x="396" y="260"/>
      <point x="332" y="256" type="curve"/>
      <point x="332" y="459" type="line"/>
      <point x="402" y="455"/>
      <point x="474" y="435"/>
      <point x="539" y="435" type="curve"/>
      <point x="539" y="517" type="line"/>
      <point x="472" y="517"/>
      <point x="401" y="500"/>
      <point x="332" y="496" type="curve"/>
      <point x="335" y="567"/>
      <point x="353" y="639"/>
      <point x="353" y="710" type="curve"/>
      <point x="261" y="710" type="line"/>
      <point x="261" y="639"/>
      <point x="280" y="567"/>
      <point x="284" y="496" type="curve"/>
      <point x="215" y="499"/>
      <point x="146" y="517"/>
      <point x="75" y="517" type="curve"/>
      <point x="75" y="435" type="line"/>
      <point x="144" y="435"/>
      <point x="214" y="455"/>
      <point x="284" y="459" type="curve"/>
      <point x="284" y="256" type="line"/>
      <point x="220" y="259"/>
      <point x="157" y="277"/>
      <point x="91" y="277" type="curve"/>
      <point x="91" y="195" type="line"/>
      <point x="157" y="195"/>
      <point x="220" y="215"/>
      <point x="284" y="219" type="curve"/>
      <point x="281" y="146"/>
      <point x="264" y="73"/>
      <point x="264" y="0" type="curve"/>
      <point x="350" y="0" type="line"/>
      <point x="350" y="73"/>
      <point x="334" y="146"/>
      <point x="332" y="219" type="curve"/>
      <point x="396" y="214"/>
      <point x="460" y="195"/>
    </contour>
  </outline>
</glyph>
<glyph name="bullet" format="2">
  <advance width="614"/>
  <unicode hex="2022"/>
  <outline>
    <contour>
      <point x="308" y="454" type="curve" smooth="yes"/>
      <point x="228" y="454"/>
      <point x="186" y="404"/>
      <point x="186" y="335" type="curve" smooth="yes"/>
      <point x="186" y="251"/>
      <point x="237" y="217"/>
      <point x="308" y="217" type="curve" smooth="yes"/>
      <point x="388" y="217"/>
      <point x="430" y="266"/>
      <point x="430" y="335" type="curve" smooth="yes"/>
      <point x="430" y="419"/>
      <point x="379" y="454"/>
    </contour>
  </outline>
</glyph>
<glyph name="twodotleader" format="2">
  <advance width="614"/>
  <unicode hex="2025"/>
  <outline>
    <contour>
      <point x="153" y="-15" type="curve" smooth="yes"/>
      <point x="193" y="-15"/>
      <point x="217" y="10"/>
      <point x="217" y="54" type="curve" smooth="yes"/>
      <point x="217" y="96"/>
      <point x="196" y="122"/>
      <point x="153" y="122" type="curve" smooth="yes"/>
      <point x="114" y="122"/>
      <point x="90" y="97"/>
      <point x="90" y="53" type="curve" smooth="yes"/>
      <point x="90" y="11"/>
      <point x="111" y="-15"/>
    </contour>
    <contour>
      <point x="461" y="-15" type="curve" smooth="yes"/>
      <point x="500" y="-15"/>
      <point x="524" y="10"/>
      <point x="524" y="54" type="curve" smooth="yes"/>
      <point x="524" y="96"/>
      <point x="503" y="122"/>
      <point x="461" y="122" type="curve" smooth="yes"/>
      <point x="421" y="122"/>
      <point x="397" y="97"/>
      <point x="397" y="53" type="curve" smooth="yes"/>
      <point x="397" y="11"/>
      <point x="418" y="-15"/>
    </contour>
  </outline>
</glyph>
<glyph name="ellipsis" format="2">
  <advance width="614"/>
  <unicode hex="2026"/>
  <outline>
    <contour>
      <point x="307" y="-15" type="curve" smooth="yes"/>
      <point x="345" y="-15"/>
      <point x="365" y="5"/>
      <point x="365" y="55" type="curve" smooth="yes"/>
      <point x="365" y="100"/>
      <point x="349" y="122"/>
      <point x="309" y="122" type="curve" smooth="yes"/>
      <point x="269" y="122"/>
      <point x="249" y="96"/>
      <point x="249" y="55" type="curve" smooth="yes"/>
      <point x="249" y="3"/>
      <point x="272" y="-15"/>
    </contour>
    <contour>
      <point x="512" y="-15" type="curve" smooth="yes"/>
      <point x="550" y="-15"/>
      <point x="570" y="5"/>
      <point x="570" y="55" type="curve" smooth="yes"/>
      <point x="570" y="100"/>
      <point x="554" y="122"/>
      <point x="514" y="122" type="curve" smooth="yes"/>
      <point x="474" y="122"/>
      <point x="454" y="96"/>
      <point x="454" y="55" type="curve" smooth="yes"/>
      <point x="454" y="3"/>
      <point x="477" y="-15"/>
    </contour>
    <contour>
      <point x="102" y="-15" type="curve" smooth="yes"/>
      <point x="140" y="-15"/>
      <point x="160" y="5"/>
      <point x="160" y="55" type="curve" smooth="yes"/>
      <point x="160" y="100"/>
      <point x="144" y="122"/>
      <point x="104" y="122" type="curve" smooth="yes"/>
      <point x="64" y="122"/>
      <point x="44" y="96"/>
      <point x="44" y="55" type="curve" smooth="yes"/>
      <point x="44" y="3"/>
      <point x="67" y="-15"/>
    </contour>
  </outline>
</glyph>
<glyph name="dong" format="2">
  <advance width="614"/>
  <unicode hex="20AB"/>
  <outline>
    <contour>
      <point x="274" y="-8" type="curve" smooth="yes"/>
      <point x="341" y="-8"/>
      <point x="391" y="16"/>
      <point x="457" y="86" type="curve"/>
      <point x="465" y="0" type="line"/>
      <point x="514" y="0" type="line"/>
      <point x="514" y="513" type="line"/>
      <point x="600" y="513" type="line"/>
      <point x="600" y="561" type="line"/>
      <point x="514" y="561" type="line"/>
      <point x="514" y="655" type="line"/>
      <point x="455" y="655" type="line"/>
      <point x="455" y="561" type="line"/>
      <point x="255" y="561" type="line"/>
      <point x="255" y="513" type="line"/>
      <point x="455" y="513" type="line"/>
      <point x="455" y="357" type="line"/>
      <point x="394" y="414"/>
      <point x="340" y="428"/>
      <point x="296" y="428" type="curve" smooth="yes"/>
      <point x="165" y="428"/>
      <point x="66" y="335"/>
      <point x="66" y="207" type="curve" smooth="yes"/>
      <point x="66" y="79"/>
      <point x="160" y="-8"/>
    </contour>
    <contour>
      <point x="126" y="206" type="curve" smooth="yes"/>
      <point x="126" y="301"/>
      <point x="190" y="378"/>
      <point x="301" y="378" type="curve" smooth="yes"/>
      <point x="337" y="378"/>
      <point x="390" y="365"/>
      <point x="455" y="299" type="curve"/>
      <point x="455" y="144" type="line"/>
      <point x="379" y="63"/>
      <point x="332" y="42"/>
      <point x="282" y="42" type="curve" smooth="yes"/>
      <point x="201" y="42"/>
      <point x="126" y="106"/>
    </contour>
    <contour>
      <point x="96" y="-136" type="line"/>
      <point x="504" y="-136" type="line"/>
      <point x="504" y="-88" type="line"/>
      <point x="96" y="-88" type="line"/>
    </contour>
  </outline>
</glyph>
<glyph name="Euro" format="2">
  <advance width="614"/>
  <unicode hex="20AC"/>
  <outline>
    <contour>
      <point x="52" y="233" type="line"/>
      <point x="140" y="233" type="line"/>
      <point x="149" y="67"/>
      <point x="232" y="-15"/>
      <point x="383" y="-15" type="curve" smooth="yes"/>
      <point x="444" y="-15"/>
      <point x="498" y="-4"/>
      <point x="581" y="42" type="curve"/>
      <point x="557" y="90" type="line"/>
      <point x="470" y="42"/>
      <point x="431" y="36"/>
      <point x="384" y="36" type="curve" smooth="yes"/>
      <point x="270" y="36"/>
      <point x="211" y="106"/>
      <point x="203" y="234" type="curve"/>
      <point x="441" y="234" type="line"/>
      <point x="441" y="280" type="line"/>
      <point x="202" y="280" type="line"/>
      <point x="202" y="375" type="line"/>
      <point x="441" y="375" type="line"/>
      <point x="441" y="421" type="line"/>
      <point x="203" y="421" type="line"/>
      <point x="212" y="561"/>
      <point x="280" y="619"/>
      <point x="389" y="619" type="curve" smooth="yes"/>
      <point x="431" y="619"/>
      <point x="466" y="612"/>
      <point x="545" y="569" type="curve"/>
      <point x="569" y="617" type="line"/>
      <point x="493" y="658"/>
      <point x="446" y="670"/>
      <point x="391" y="670" type="curve" smooth="yes"/>
      <point x="251" y="670"/>
      <point x="153" y="582"/>
      <point x="140" y="422" type="curve"/>
      <point x="52" y="422" type="line"/>
      <point x="52" y="374" type="line"/>
      <point x="139" y="374" type="line"/>
      <point x="139" y="281" type="line"/>
      <point x="52" y="281" type="line"/>
    </contour>
  </outline>
</glyph>
<glyph name="peso" format="2">
  <advance width="614"/>
  <unicode hex="20B1"/>
  <outline>
    <contour>
      <point x="13" y="425" type="line"/>
      <point x="110" y="425" type="line"/>
      <point x="110" y="0" type="line"/>
      <point x="171" y="0" type="line"/>
      <point x="171" y="236" type="line"/>
      <point x="263" y="236" type="line" smooth="yes"/>
      <point x="408" y="236"/>
      <point x="501" y="306"/>
      <point x="512" y="425" type="curve"/>
      <point x="602" y="425" type="line"/>
      <point x="602" y="473" type="line"/>
      <point x="512" y="473" type="line"/>
      <point x="501" y="586"/>
      <point x="419" y="655"/>
      <point x="279" y="655" type="curve" smooth="yes"/>
      <point x="110" y="655" type="line"/>
      <point x="110" y="473" type="line"/>
      <point x="13" y="473" type="line"/>
    </contour>
    <contour>
      <point x="275" y="604" type="line" smooth="yes"/>
      <point x="381" y="604"/>
      <point x="442" y="554"/>
      <point x="450" y="466" type="curve"/>
      <point x="171" y="466" type="line"/>
      <point x="171" y="604" type="line"/>
    </contour>
    <contour>
      <point x="267" y="286" type="curve" smooth="yes"/>
      <point x="171" y="286" type="line"/>
      <point x="171" y="432" type="line"/>
      <point x="451" y="432" type="line"/>
      <point x="444" y="343"/>
      <point x="379" y="286"/>
    </contour>
  </outline>
</glyph>
<glyph name="uni20B9" format="2">
  <advance width="614"/>
  <unicode hex="20B9"/>
  <outline>
    <contour>
      <point x="70" y="410" type="line"/>
      <point x="380" y="410" type="line"/>
      <point x="375" y="319"/>
      <point x="336" y="268"/>
      <point x="227" y="268" type="curve" smooth="yes"/>
      <point x="70" y="268" type="line"/>
      <point x="70" y="223" type="line"/>
      <point x="423" y="0" type="line"/>
      <point x="525" y="0" type="line"/>
      <point x="525" y="2" type="line"/>
      <point x="179" y="217" type="line"/>
      <point x="179" y="219" type="line"/>
      <point x="224" y="219" type="line" smooth="yes"/>
      <point x="373" y="219"/>
      <point x="437" y="286"/>
      <point x="443" y="410" type="curve"/>
      <point x="550" y="410" type="line"/>
      <point x="550" y="458" type="line"/>
      <point x="443" y="458" type="line"/>
      <point x="443" y="607" type="line"/>
      <point x="550" y="607" type="line"/>
      <point x="550" y="655" type="line"/>
      <point x="70" y="655" type="line"/>
      <point x="70" y="607" type="line"/>
      <point x="380" y="607" type="line"/>
      <point x="380" y="458" type="line"/>
      <point x="70" y="458" type="line"/>
    </contour>
  </outline>
</glyph>
<glyph name="uni20BA" format="2">
  <advance width="614"/>
  <unicode hex="20BA"/>
  <outline>
    <contour>
      <point x="22" y="134" type="line"/>
      <point x="130" y="194" type="line"/>
      <point x="130" y="0" type="line"/>
      <point x="254" y="0" type="line" smooth="yes"/>
      <point x="441" y="0"/>
      <point x="564" y="107"/>
      <point x="570" y="304" type="curve"/>
      <point x="509" y="308" type="line"/>
      <point x="499" y="133"/>
      <point x="402" y="50"/>
      <point x="252" y="50" type="curve" smooth="yes"/>
      <point x="191" y="50" type="line"/>
      <point x="191" y="228" type="line"/>
      <point x="374" y="330" type="line"/>
      <point x="374" y="388" type="line"/>
      <point x="191" y="284" type="line"/>
      <point x="191" y="385" type="line"/>
      <point x="374" y="489" type="line"/>
      <point x="374" y="547" type="line"/>
      <point x="191" y="442" type="line"/>
      <point x="191" y="655" type="line"/>
      <point x="130" y="655" type="line"/>
      <point x="130" y="408" type="line"/>
      <point x="22" y="348" type="line"/>
      <point x="22" y="290" type="line"/>
      <point x="130" y="351" type="line"/>
      <point x="130" y="249" type="line"/>
      <point x="22" y="189" type="line"/>
    </contour>
  </outline>
</glyph>
<glyph name="uni20BD" format="2">
  <advance width="614"/>
  <unicode hex="20BD"/>
  <outline>
    <contour>
      <point x="43" y="133" type="line"/>
      <point x="151" y="133" type="line"/>
      <point x="151" y="0" type="line"/>
      <point x="212" y="0" type="line"/>
      <point x="212" y="133" type="line"/>
      <point x="455" y="133" type="line"/>
      <point x="455" y="181" type="line"/>
      <point x="212" y="181" type="line"/>
      <point x="212" y="285" type="line"/>
      <point x="347" y="285" type="line" smooth="yes"/>
      <point x="512" y="285"/>
      <point x="591" y="353"/>
      <point x="591" y="469" type="curve" smooth="yes"/>
      <point x="591" y="580"/>
      <point x="523" y="655"/>
      <point x="365" y="655" type="curve" smooth="yes"/>
      <point x="151" y="655" type="line"/>
      <point x="151" y="333" type="line"/>
      <point x="43" y="333" type="line"/>
      <point x="43" y="285" type="line"/>
      <point x="151" y="285" type="line"/>
      <point x="151" y="181" type="line"/>
      <point x="43" y="181" type="line"/>
    </contour>
    <contour>
      <point x="363" y="604" type="line" smooth="yes"/>
      <point x="483" y="604"/>
      <point x="530" y="550"/>
      <point x="530" y="469" type="curve" smooth="yes"/>
      <point x="530" y="391"/>
      <point x="478" y="333"/>
      <point x="353" y="333" type="curve" smooth="yes"/>
      <point x="212" y="333" type="line"/>
      <point x="212" y="604" type="line"/>
    </contour>
  </outline>
</glyph>
<glyph name="servicemark" format="2">
  <advance width="614"/>
  <unicode hex="2120"/>
  <outline>
    <contour>
      <point x="142" y="435" type="curve" smooth="yes"/>
      <point x="118" y="435"/>
      <point x="81" y="445"/>
      <point x="45" y="460" type="curve"/>
      <point x="32" y="421" type="line"/>
      <point x="73" y="404"/>
      <point x="108" y="397"/>
      <point x="142" y="397" type="curve" smooth="yes"/>
      <point x="207" y="397"/>
      <point x="248" y="428"/>
      <point x="248" y="485" type="curve" smooth="yes"/>
      <point x="248" y="531"/>
      <point x="226" y="558"/>
      <point x="167" y="577" type="curve" smooth="yes"/>
      <point x="132" y="588" type="line" smooth="yes"/>
      <point x="98" y="599"/>
      <point x="87" y="616"/>
      <point x="87" y="641" type="curve" smooth="yes"/>
      <point x="87" y="662"/>
      <point x="104" y="679"/>
      <point x="145" y="679" type="curve" smooth="yes"/>
      <point x="167" y="679"/>
      <point x="194" y="674"/>
      <point x="229" y="662" type="curve"/>
      <point x="239" y="701" type="line"/>
      <point x="202" y="712"/>
      <point x="177" y="717"/>
      <point x="145" y="717" type="curve" smooth="yes"/>
      <point x="75" y="717"/>
      <point x="44" y="679"/>
      <point x="44" y="640" type="curve" smooth="yes"/>
      <point x="44" y="597"/>
      <point x="66" y="567"/>
      <point x="127" y="547" type="curve" smooth="yes"/>
      <point x="161" y="536" type="line" smooth="yes"/>
      <point x="193" y="526"/>
      <point x="204" y="507"/>
      <point x="204" y="484" type="curve" smooth="yes"/>
      <point x="204" y="454"/>
      <point x="183" y="435"/>
    </contour>
    <contour>
      <point x="551" y="710" type="line"/>
      <point x="496" y="710" type="line"/>
      <point x="436" y="563" type="line"/>
      <point x="374" y="710" type="line"/>
      <point x="319" y="710" type="line"/>
      <point x="307" y="404" type="line"/>
      <point x="349" y="404" type="line"/>
      <point x="354" y="669" type="line"/>
      <point x="425" y="500" type="line"/>
      <point x="446" y="500" type="line"/>
      <point x="515" y="672" type="line"/>
      <point x="521" y="404" type="line"/>
      <point x="562" y="404" type="line"/>
    </contour>
  </outline>
</glyph>
<glyph name="minus" format="2">
  <advance width="614"/>
  <unicode hex="2212"/>
  <outline>
    <contour>
      <point x="73" y="301" type="line"/>
      <point x="541" y="301" type="line"/>
      <point x="541" y="352" type="line"/>
      <point x="73" y="352" type="line"/>
    </contour>
  </outline>
</glyph>
<glyph name="lightquaddashvertbxd" format="2">
  <advance width="614"/>
  <unicode hex="250A"/>
  <outline>
    <contour>
      <point x="277" y="611" type="line"/>
      <point x="338" y="611" type="line"/>
      <point x="338" y="799" type="line"/>
      <point x="277" y="799" type="line"/>
    </contour>
    <contour>
      <point x="277" y="361" type="line"/>
      <point x="338" y="361" type="line"/>
      <point x="338" y="549" type="line"/>
      <point x="277" y="549" type="line"/>
    </contour>
    <contour>
      <point x="277" y="111" type="line"/>
      <point x="338" y="111" type="line"/>
      <point x="338" y="299" type="line"/>
      <point x="277" y="299" type="line"/>
    </contour>
    <contour>
      <point x="277" y="-139" type="line"/>
      <point x="338" y="-139" type="line"/>
      <point x="338" y="49" type="line"/>
      <point x="277" y="49" type="line"/>
    </contour>
  </outline>
</glyph>
<glyph name="heavyquaddashvertbxd" format="2">
  <advance width="614"/>
  <unicode hex="250B"/>
  <outline>
    <contour>
      <point x="231" y="611" type="line"/>
      <point x="383" y="611" type="line"/>
      <point x="383" y="799" type="line"/>
      <point x="231" y="799" type="line"/>
    </contour>
    <contour>
      <point x="231" y="361" type="line"/>
      <point x="383" y="361" type="line"/>
      <point x="383" y="549" type="line"/>
      <point x="231" y="549" type="line"/>
    </contour>
    <contour>
      <point x="231" y="111" type="line"/>
      <point x="383" y="111" type="line"/>
      <point x="383" y="299" type="line"/>
      <point x="231" y="299" type="line"/>
    </contour>
    <contour>
      <point x="231" y="-139" type="line"/>
      <point x="383" y="-139" type="line"/>
      <point x="383" y="49" type="line"/>
      <point x="231" y="49" type="line"/>
    </contour>
  </outline>
</glyph>
<glyph name="dnlightleftheavybxd" format="2">
  <advance width="614"/>
  <unicode hex="2511"/>
  <outline>
    <contour>
      <point x="-20" y="254" type="line"/>
      <point x="277" y="254" type="line"/>
      <point x="277" y="-420" type="line"/>
      <point x="338" y="-420" type="line"/>
      <point x="338" y="406" type="line"/>
      <point x="-20" y="406" type="line"/>
    </contour>
  </outline>
</glyph>
<glyph name="heavydnleftbxd" format="2">
  <advance width="614"/>
  <unicode hex="2513"/>
  <outline>
    <contour>
      <point x="-20" y="254" type="line"/>
      <point x="231" y="254" type="line"/>
      <point x="231" y="-420" type="line"/>
      <point x="383" y="-420" type="line"/>
      <point x="383" y="406" type="line"/>
      <point x="-20" y="406" type="line"/>
    </contour>
  </outline>
</glyph>
<glyph name="lightupleftbxd" format="2">
  <advance width="614"/>
  <unicode hex="2518"/>
  <outline>
    <contour>
      <point x="-20" y="300" type="line"/>
      <point x="338" y="300" type="line"/>
      <point x="338" y="1080" type="line"/>
      <point x="277" y="1080" type="line"/>
      <point x="277" y="361" type="line"/>
      <point x="-20" y="361" type="line"/>
    </contour>
  </outline>
</glyph>
<glyph name="vertlightleftheavybxd" format="2">
  <advance width="614"/>
  <unicode hex="2525"/>
  <outline>
    <contour>
      <point x="-20" y="254" type="line"/>
      <point x="277" y="254" type="line"/>
      <point x="277" y="-420" type="line"/>
      <point x="338" y="-420" type="line"/>
      <point x="338" y="1080" type="line"/>
      <point x="277" y="1080" type="line"/>
      <point x="277" y="406" type="line"/>
      <point x="-20" y="406" type="line"/>
    </contour>
  </outline>
</glyph>
<glyph name="vertheavyleftlightbxd" format="2">
  <advance width="614"/>
  <unicode hex="2528"/>
  <outline>
    <contour>
      <point x="-20" y="300" type="line"/>
      <point x="231" y="300" type="line"/>
      <point x="231" y="-420" type="line"/>
      <point x="383" y="-420" type="line"/>
      <point x="383" y="1080" type="line"/>
      <point x="231" y="1080" type="line"/>
      <point x="231" y="361" type="line"/>
      <point x="-20" y="361" type="line"/>
    </contour>
  </outline>
</glyph>
<glyph name="rightheavyleftdnlightbxd" format="2">
  <advance width="614"/>
  <unicode hex="252E"/>
  <outline>
    <contour>
      <point x="-20" y="300" type="line"/>
      <point x="277" y="300" type="line"/>
      <point x="277" y="-420" type="line"/>
      <point x="338" y="-420" type="line"/>
      <point x="338" y="254" type="line"/>
      <point x="634" y="254" type="line"/>
      <point x="634" y="406" type="line"/>
      <point x="277" y="406" type="line"/>
      <point x="277" y="361" type="line"/>
      <point x="-20" y="361" type="line"/>
    </contour>
  </outline>
</glyph>
<glyph name="leftheavyrightuplightbxd" format="2">
  <advance width="614"/>
  <unicode hex="2535"/>
  <outline>
    <contour>
      <point x="-20" y="254" type="line"/>
      <point x="338" y="254" type="line"/>
      <point x="338" y="300" type="line"/>
      <point x="634" y="300" type="line"/>
      <point x="634" y="361" type="line"/>
      <point x="338" y="361" type="line"/>
      <point x="338" y="1080" type="line"/>
      <point x="277" y="1080" type="line"/>
      <point x="277" y="406" type="line"/>
      <point x="-20" y="406" type="line"/>
    </contour>
  </outline>
</glyph>
<glyph name="lightdbldashvertbxd" format="2">
  <advance width="614"/>
  <unicode hex="254E"/>
  <outline>
    <contour>
      <point x="277" y="455" type="line"/>
      <point x="338" y="455" type="line"/>
      <point x="338" y="705" type="line"/>
      <point x="277" y="705" type="line"/>
    </contour>
    <contour>
      <point x="277" y="-45" type="line"/>
      <point x="338" y="-45" type="line"/>
      <point x="338" y="205" type="line"/>
      <point x="277" y="205" type="line"/>
    </contour>
  </outline>
</glyph>
<glyph name="lightarcupleftbxd" format="2">
  <advance width="614"/>
  <unicode hex="256F"/>
  <outline>
    <contour>
      <point x="338" y="1080" type="line"/>
      <point x="277" y="1080" type="line"/>
      <point x="277" y="637" type="line" smooth="yes"/>
      <point x="277" y="446"/>
      <point x="191" y="361"/>
      <point x="0" y="361" type="curve" smooth="yes"/>
      <point x="-20" y="361" type="line"/>
      <point x="-20" y="300" type="line"/>
      <point x="0" y="300" type="line" smooth="yes"/>
      <point x="233" y="300"/>
      <point x="338" y="404"/>
      <point x="338" y="637" type="curve" smooth="yes"/>
    </contour>
  </outline>
</glyph>
<glyph name="lightarcuprightbxd" format="2">
  <advance width="614"/>
  <unicode hex="2570"/>
  <outline>
    <contour>
      <point x="277" y="1080" type="line"/>
      <point x="277" y="637" type="line" smooth="yes"/>
      <point x="277" y="404"/>
      <point x="381" y="300"/>
      <point x="614" y="300" type="curve" smooth="yes"/>
      <point x="634" y="300" type="line"/>
      <point x="634" y="361" type="line"/>
      <point x="614" y="361" type="line" smooth="yes"/>
      <point x="423" y="361"/>
      <point x="338" y="446"/>
      <point x="338" y="637" type="curve" smooth="yes"/>
      <point x="338" y="1080" type="line"/>
    </contour>
  </outline>
</glyph>
<glyph name="lightdiagupleftdnrightbxd" format="2">
  <advance width="614"/>
  <unicode hex="2572"/>
  <outline>
    <contour>
      <point x="46" y="1020" type="line"/>
      <point x="0" y="1020" type="line"/>
      <point x="0" y="980" type="line"/>
      <point x="568" y="-360" type="line"/>
      <point x="614" y="-360" type="line"/>
      <point x="614" y="-320" type="line"/>
    </contour>
  </outline>
</glyph>
<glyph name="lightdiagcrossbxd" format="2">
  <advance width="614"/>
  <unicode hex="2573"/>
  <outline>
    <contour>
      <point x="0" y="-360" type="line"/>
      <point x="46" y="-360" type="line"/>
      <point x="307" y="256" type="line"/>
      <point x="568" y="-360" type="line"/>
      <point x="614" y="-360" type="line"/>
      <point x="614" y="-320" type="line"/>
      <point x="338" y="330" type="line"/>
      <point x="614" y="980" type="line"/>
      <point x="614" y="1020" type="line"/>
      <point x="568" y="1020" type="line"/>
      <point x="307" y="404" type="line"/>
      <point x="46" y="1020" type="line"/>
      <point x="0" y="1020" type="line"/>
      <point x="0" y="980" type="line"/>
      <point x="276" y="330" type="line"/>
      <point x="0" y="-320" type="line"/>
    </contour>
  </outline>
</glyph>
<glyph name="lightupbxd" format="2">
  <advance width="614"/>
  <unicode hex="2575"/>
  <outline>
    <contour>
      <point x="277" y="300" type="line"/>
      <point x="338" y="300" type="line"/>
      <point x="338" y="1080" type="line"/>
      <point x="277" y="1080" type="line"/>
    </contour>
  </outline>
</glyph>
<glyph name="lightdnbxd" format="2">
  <advance width="614"/>
  <unicode hex="2577"/>
  <outline>
    <contour>
      <point x="277" y="-420" type="line"/>
      <point x="338" y="-420" type="line"/>
      <point x="338" y="361" type="line"/>
      <point x="277" y="361" type="line"/>
    </contour>
  </outline>
</glyph>
<glyph name="heavyleftbxd" format="2">
  <advance width="614"/>
  <unicode hex="2578"/>
  <outline>
    <contour>
      <point x="-20" y="254" type="line"/>
      <point x="338" y="254" type="line"/>
      <point x="338" y="406" type="line"/>
      <point x="-20" y="406" type="line"/>
    </contour>
  </outline>
</glyph>
<glyph name="lightleftheavyrightbxd" format="2">
  <advance width="614"/>
  <unicode hex="257C"/>
  <outline>
    <contour>
      <point x="-20" y="300" type="line"/>
      <point x="277" y="300" type="line"/>
      <point x="277" y="254" type="line"/>
      <point x="634" y="254" type="line"/>
      <point x="634" y="406" type="line"/>
      <point x="277" y="406" type="line"/>
      <point x="277" y="361" type="line"/>
      <point x="-20" y="361" type="line"/>
    </contour>
  </outline>
</glyph>
<glyph name="leftquarterblock" format="2">
  <advance width="614"/>
  <unicode hex="258E"/>
  <outline>
    <contour>
      <point x="0" y="-360" type="line"/>
      <point x="154" y="-360" type="line"/>
      <point x="154" y="1020" type="line"/>
      <point x="0" y="1020" type="line"/>
    </contour>
  </outline>
</glyph>
<glyph name="dnleftquadrant" format="2">
  <advance width="614"/>
  <unicode hex="2596"/>
  <outline>
    <contour>
      <point x="0" y="-360" type="line"/>
      <point x="307" y="-360" type="line"/>
      <point x="307" y="330" type="line"/>
      <point x="0" y="330" type="line"/>
    </contour>
  </outline>
</glyph>
<glyph name="uniE0A1" format="2">
  <advance width="614"/>
  <unicode hex="E0A1"/>
  <outline>
    <contour>
      <point x="147" y="808" type="line"/>
      <point x="147" y="373" type="line"/>
      <point x="467" y="373" type="line"/>
      <point x="467" y="423" type="line"/>
      <point x="208" y="423" type="line"/>
      <point x="208" y="808" type="line"/>
    </contour>
    <contour>
      <point x="205" y="-163" type="line"/>
      <point x="200" y="232" type="line"/>
      <point x="376" y="-163" type="line"/>
      <point x="467" y="-163" type="line"/>
      <point x="467" y="272" type="line"/>
      <point x="409" y="272" type="line"/>
      <point x="413" y="-107" type="line"/>
      <point x="246" y="272" type="line"/>
      <point x="147" y="272" type="line"/>
      <point x="147" y="-163" type="line"/>
    </contour>
  </outline>
</glyph>
<glyph name="ampersand_ampersand.liga" format="2">
  <advance width="614"/>
  <outline>
    <contour>
      <point x="-62" y="647" type="line"/>
      <point x="-137" y="662"/>
      <point x="-181" y="669"/>
      <point x="-218" y="669" type="curve" smooth="yes"/>
      <point x="-330" y="669"/>
      <point x="-383" y="610"/>
      <point x="-383" y="540" type="curve" smooth="yes"/>
      <point x="-383" y="503"/>
      <point x="-365.7062230284828" y="460.1770383808047"/>
      <point x="-314" y="374" type="curve"/>
      <point x="-488" y="324"/>
      <point x="-523" y="269"/>
      <point x="-523" y="162" type="curve" smooth="yes"/>
      <point x="-523" y="58"/>
      <point x="-453" y="-5"/>
      <point x="-362" y="-5" type="curve" smooth="yes"/>
      <point x="-266" y="-5"/>
      <point x="-215" y="27"/>
      <point x="-165" y="135" type="curve"/>
      <point x="-87" y="0" type="line"/>
      <point x="-12" y="0" type="line"/>
      <point x="-136" y="192" type="line"/>
      <point x="-53" y="417" type="line"/>
      <point x="-103" y="435" type="line"/>
      <point x="-170" y="242" type="line"/>
      <point x="-268" y="406" type="line" smooth="yes"/>
      <point x="-314" y="483"/>
      <point x="-325" y="518"/>
      <point x="-325" y="546" type="curve" smooth="yes"/>
      <point x="-325" y="587"/>
      <point x="-290" y="618"/>
      <point x="-227" y="618" type="curve" smooth="yes"/>
      <point x="-190" y="618"/>
      <point x="-149" y="613"/>
      <point x="-73" y="596" type="curve"/>
    </contour>
    <contour>
      <point x="433" y="647" type="line"/>
      <point x="358" y="662"/>
      <point x="314" y="669"/>
      <point x="277" y="669" type="curve" smooth="yes"/>
      <point x="172" y="669"/>
      <point x="122" y="610"/>
      <point x="122" y="540" type="curve" smooth="yes"/>
      <point x="122" y="508"/>
      <point x="136.03383305893567" y="471.02430395362535"/>
      <point x="210" y="368" type="curve"/>
      <point x="55" y="319"/>
      <point x="22" y="265"/>
      <point x="22" y="162" type="curve" smooth="yes"/>
      <point x="22" y="58"/>
      <point x="92" y="-5"/>
      <point x="183" y="-5" type="curve" smooth="yes"/>
      <point x="280" y="-5"/>
      <point x="334" y="26"/>
      <point x="384" y="129" type="curve"/>
      <point x="478" y="0" type="line"/>
      <point x="553" y="0" type="line"/>
      <point x="415" y="185" type="line"/>
      <point x="502" y="417" type="line"/>
      <point x="452" y="435" type="line"/>
      <point x="380" y="227" type="line"/>
      <point x="234" y="429" type="line" smooth="yes"/>
      <point x="189" y="492"/>
      <point x="180" y="522"/>
      <point x="180" y="546" type="curve" smooth="yes"/>
      <point x="180" y="587"/>
      <point x="211" y="618"/>
      <point x="268" y="618" type="curve" smooth="yes"/>
      <point x="305" y="618"/>
      <point x="346" y="613"/>
      <point x="422" y="596" type="curve"/>
    </contour>
    <contour>
      <point x="-463" y="166" type="curve" smooth="yes"/>
      <point x="-463" y="251"/>
      <point x="-447" y="284"/>
      <point x="-290" y="335" type="curve"/>
      <point x="-198" y="183" type="line"/>
      <point x="-245" y="72"/>
      <point x="-286" y="47"/>
      <point x="-354" y="47" type="curve" smooth="yes"/>
      <point x="-415" y="47"/>
      <point x="-463" y="88"/>
    </contour>
    <contour>
      <point x="82" y="166" type="curve" smooth="yes"/>
      <point x="82" y="248"/>
      <point x="97" y="282"/>
      <point x="237" y="329" type="curve"/>
      <point x="351" y="170" type="line"/>
      <point x="305" y="69"/>
      <point x="260" y="47"/>
      <point x="191" y="47" type="curve" smooth="yes"/>
      <point x="130" y="47"/>
      <point x="82" y="88"/>
    </contour>
  </outline>
</glyph>
<glyph name="asciitilde_asciitilde.liga" format="2">
  <advance width="614"/>
  <outline>
    <contour>
      <point x="16" y="309" type="curve" smooth="yes"/>
      <point x="88" y="364"/>
      <point x="103" y="371"/>
      <point x="124" y="371" type="curve" smooth="yes"/>
      <point x="146" y="371"/>
      <point x="162" y="365"/>
      <point x="242" y="304" type="curve" smooth="yes"/>
      <point x="317" y="247"/>
      <point x="345" y="231"/>
      <point x="374" y="231" type="curve" smooth="yes"/>
      <point x="422" y="231"/>
      <point x="460" y="264"/>
      <point x="517" y="419" type="curve"/>
      <point x="469" y="439" type="line"/>
      <point x="420" y="325"/>
      <point x="406" y="292"/>
      <point x="380" y="292" type="curve" smooth="yes"/>
      <point x="358" y="292"/>
      <point x="342" y="298"/>
      <point x="262" y="359" type="curve" smooth="yes"/>
      <point x="187" y="416"/>
      <point x="159" y="432"/>
      <point x="130" y="432" type="curve" smooth="yes"/>
      <point x="100" y="432"/>
      <point x="70" y="417"/>
      <point x="-17" y="350" type="curve" smooth="yes"/>
      <point x="-89" y="295"/>
      <point x="-104" y="288"/>
      <point x="-125" y="288" type="curve" smooth="yes"/>
      <point x="-147" y="288"/>
      <point x="-163" y="294"/>
      <point x="-243" y="355" type="curve" smooth="yes"/>
      <point x="-318" y="412"/>
      <point x="-346" y="428"/>
      <point x="-375" y="428" type="curve" smooth="yes"/>
      <point x="-423" y="428"/>
      <point x="-461" y="395"/>
      <point x="-518" y="240" type="curve"/>
      <point x="-470" y="220" type="line"/>
      <point x="-421" y="334"/>
      <point x="-407" y="367"/>
      <point x="-381" y="367" type="curve" smooth="yes"/>
      <point x="-359" y="367"/>
      <point x="-343" y="361"/>
      <point x="-263" y="300" type="curve" smooth="yes"/>
      <point x="-188" y="243"/>
      <point x="-160" y="227"/>
      <point x="-131" y="227" type="curve" smooth="yes"/>
      <point x="-101" y="227"/>
      <point x="-71" y="242"/>
    </contour>
  </outline>
</glyph>
<glyph name="asciitilde_hyphen.liga" format="2">
  <advance width="614"/>
  <outline>
    <contour>
      <point x="36" y="352" type="line" smooth="yes"/>
      <point x="-14" y="352"/>
      <point x="-53" y="337"/>
      <point x="-79" y="337" type="curve" smooth="yes"/>
      <point x="-101" y="337"/>
      <point x="-117" y="343"/>
      <point x="-197" y="404" type="curve" smooth="yes"/>
      <point x="-272" y="461"/>
      <point x="-300" y="477"/>
      <point x="-329" y="477" type="curve" smooth="yes"/>
      <point x="-377" y="477"/>
      <point x="-415" y="444"/>
      <point x="-472" y="289" type="curve"/>
      <point x="-424" y="269" type="line"/>
      <point x="-375" y="383"/>
      <point x="-361" y="416"/>
      <point x="-335" y="416" type="curve" smooth="yes"/>
      <point x="-313" y="416"/>
      <point x="-297" y="410"/>
      <point x="-217" y="349" type="curve" smooth="yes"/>
      <point x="-142" y="292"/>
      <point x="-114" y="276"/>
      <point x="-85" y="276" type="curve" smooth="yes"/>
      <point x="-38" y="276"/>
      <point x="-21" y="301"/>
      <point x="36" y="301" type="curve" smooth="yes"/>
      <point x="491" y="301" type="line"/>
      <point x="491" y="352" type="line"/>
    </contour>
  </outline>
</glyph>
<glyph name="bar_bar_greater.liga" format="2">
  <advance width="614"/>
  <outline>
    <contour>
      <point x="-698" y="-129" type="line"/>
      <point x="-698" y="783" type="line"/>
      <point x="-756" y="783" type="line"/>
      <point x="-756" y="-129" type="line"/>
    </contour>
    <contour>
      <point x="-296" y="783" type="line"/>
      <point x="-342" y="783" type="line"/>
      <point x="-342" y="-129" type="line"/>
      <point x="-296" y="-129" type="line"/>
      <point x="349" y="299" type="line"/>
      <point x="349" y="354" type="line"/>
    </contour>
    <contour>
      <point x="-284" y="708" type="line"/>
      <point x="298" y="327" type="line"/>
      <point x="-284" y="-54" type="line"/>
    </contour>
  </outline>
</glyph>
<glyph name="breveacute" format="2">
  <anchor x="0" y="502" name="_aboveLC"/>
  <anchor x="0" y="472" name="_aboveLCx"/>
  <outline>
    <contour>
      <point x="-69" y="762" type="line"/>
      <point x="-45" y="728" type="line"/>
      <point x="180" y="858" type="line"/>
      <point x="149" y="908" type="line"/>
    </contour>
    <contour>
      <point x="0" y="586" type="curve" smooth="yes"/>
      <point x="-66" y="586"/>
      <point x="-105" y="627"/>
      <point x="-137" y="720" type="curve"/>
      <point x="-179" y="708" type="line"/>
      <point x="-147" y="587"/>
      <point x="-96" y="536"/>
      <point x="0" y="536" type="curve" smooth="yes"/>
      <point x="96" y="536"/>
      <point x="147" y="587"/>
      <point x="179" y="708" type="curve"/>
      <point x="137" y="720" type="line"/>
      <point x="105" y="627"/>
      <point x="66" y="586"/>
    </contour>
  </outline>
</glyph>
<glyph name="brevecmb.cap" format="2">
  <anchor x="0" y="691" name="_aboveUC"/>
  <anchor x="0" y="661" name="_aboveUCx"/>
  <outline>
    <contour>
      <point x="0" y="781" type="curve" smooth="yes"/>
      <point x="-66" y="781"/>
      <point x="-106" y="819"/>
      <point x="-137" y="909" type="curve"/>
      <point x="-179" y="897" type="line"/>
      <point x="-147" y="780"/>
      <point x="-96" y="731"/>
      <point x="0" y="731" type="curve" smooth="yes"/>
      <point x="96" y="731"/>
      <point x="147" y="780"/>
      <point x="179" y="897" type="curve"/>
      <point x="137" y="909" type="line"/>
      <point x="106" y="819"/>
      <point x="66" y="781"/>
    </contour>
  </outline>
</glyph>
<glyph name="brevehook" format="2">
  <anchor x="0" y="502" name="_aboveLC"/>
  <anchor x="0" y="472" name="_aboveLCx"/>
  <outline>
    <contour>
      <point x="-45" y="728" type="line"/>
      <point x="100" y="748"/>
      <point x="131" y="793"/>
      <point x="131" y="827" type="curve" smooth="yes"/>
      <point x="131" y="871"/>
      <point x="103" y="896"/>
      <point x="-42" y="919" type="curve"/>
      <point x="-75" y="883" type="line"/>
      <point x="-75" y="880" type="line"/>
      <point x="55" y="859"/>
      <point x="74" y="845"/>
      <point x="74" y="824" type="curve" smooth="yes"/>
      <point x="74" y="799"/>
      <point x="46" y="784"/>
      <point x="-59" y="762" type="curve"/>
      <point x="-59" y="760" type="line"/>
    </contour>
    <contour>
      <point x="0" y="586" type="curve" smooth="yes"/>
      <point x="-66" y="586"/>
      <point x="-105" y="627"/>
      <point x="-137" y="720" type="curve"/>
      <point x="-179" y="708" type="line"/>
      <point x="-147" y="587"/>
      <point x="-96" y="536"/>
      <point x="0" y="536" type="curve" smooth="yes"/>
      <point x="96" y="536"/>
      <point x="147" y="587"/>
      <point x="179" y="708" type="curve"/>
      <point x="137" y="720" type="line"/>
      <point x="105" y="627"/>
      <point x="66" y="586"/>
    </contour>
  </outline>
</glyph>
<glyph name="dieresiscmb.cap" format="2">
  <anchor x="0" y="691" name="_aboveUC"/>
  <anchor x="0" y="661" name="_aboveUCx"/>
  <outline>
    <contour>
      <point x="-135" y="751" type="curve" smooth="yes"/>
      <point x="-100" y="751"/>
      <point x="-79" y="769"/>
      <point x="-79" y="803" type="curve" smooth="yes"/>
      <point x="-79" y="837"/>
      <point x="-98" y="856"/>
      <point x="-134" y="856" type="curve" smooth="yes"/>
      <point x="-168" y="856"/>
      <point x="-189" y="835"/>
      <point x="-189" y="803" type="curve" smooth="yes"/>
      <point x="-189" y="769"/>
      <point x="-169" y="751"/>
    </contour>
    <contour>
      <point x="132" y="751" type="curve" smooth="yes"/>
      <point x="167" y="751"/>
      <point x="188" y="769"/>
      <point x="188" y="803" type="curve" smooth="yes"/>
      <point x="188" y="837"/>
      <point x="169" y="856"/>
      <point x="133" y="856" type="curve" smooth="yes"/>
      <point x="99" y="856"/>
      <point x="78" y="835"/>
      <point x="78" y="803" type="curve" smooth="yes"/>
      <point x="78" y="769"/>
      <point x="98" y="751"/>
    </contour>
  </outline>
</glyph>
<glyph name="dieresismacron" format="2">
  <anchor x="0" y="502" name="_aboveLC"/>
  <anchor x="0" y="472" name="_aboveLCx"/>
  <outline>
    <contour>
      <point x="-144" y="726" type="line"/>
      <point x="144" y="726" type="line"/>
      <point x="144" y="776" type="line"/>
      <point x="-144" y="776" type="line"/>
    </contour>
    <contour>
      <point x="-119" y="556" type="curve" smooth="yes"/>
      <point x="-88" y="556"/>
      <point x="-69" y="572"/>
      <point x="-69" y="602" type="curve" smooth="yes"/>
      <point x="-69" y="632"/>
      <point x="-86" y="649"/>
      <point x="-118" y="649" type="curve" smooth="yes"/>
      <point x="-147" y="649"/>
      <point x="-166" y="630"/>
      <point x="-166" y="602" type="curve" smooth="yes"/>
      <point x="-166" y="572"/>
      <point x="-149" y="556"/>
    </contour>
    <contour>
      <point x="117" y="556" type="curve" smooth="yes"/>
      <point x="148" y="556"/>
      <point x="167" y="572"/>
      <point x="167" y="602" type="curve" smooth="yes"/>
      <point x="167" y="632"/>
      <point x="150" y="649"/>
      <point x="118" y="649" type="curve" smooth="yes"/>
      <point x="88" y="649"/>
      <point x="69" y="630"/>
      <point x="69" y="602" type="curve" smooth="yes"/>
      <point x="69" y="572"/>
      <point x="87" y="556"/>
    </contour>
  </outline>
</glyph>
<glyph name="dollar_greater.liga" format="2">
  <advance width="614"/>
  <outline>
    <contour>
      <point x="-271" y="-142" type="line"/>
      <point x="-271" y="1" type="line"/>
      <point x="-152" y="11"/>
      <point x="-79" y="73"/>
      <point x="-79" y="179" type="curve" smooth="yes"/>
      <point x="-79" y="264"/>
      <point x="-120" y="317"/>
      <point x="-275" y="366" type="curve"/>
      <point x="-275" y="605" type="line"/>
      <point x="-193" y="602"/>
      <point x="-107" y="584"/>
      <point x="55" y="507" type="curve" smooth="yes"/>
      <point x="447" y="321" type="line"/>
      <point x="79" y="146" type="line"/>
      <point x="79" y="91" type="line"/>
      <point x="492" y="294" type="line"/>
      <point x="492" y="349" type="line"/>
      <point x="79" y="552" type="line" smooth="yes"/>
      <point x="-89" y="634"/>
      <point x="-181" y="652"/>
      <point x="-271" y="655" type="curve"/>
      <point x="-271" y="797" type="line"/>
      <point x="-324" y="797" type="line"/>
      <point x="-324" y="654" type="line"/>
      <point x="-452" y="645"/>
      <point x="-511" y="573"/>
      <point x="-511" y="499" type="curve" smooth="yes"/>
      <point x="-511" y="418"/>
      <point x="-463" y="351"/>
      <point x="-320" y="311" type="curve"/>
      <point x="-320" y="51" type="line"/>
      <point x="-373" y="54"/>
      <point x="-447" y="74"/>
      <point x="-520" y="102" type="curve"/>
      <point x="-539" y="49" type="line"/>
      <point x="-459" y="19"/>
      <point x="-391" y="3"/>
      <point x="-324" y="0" type="curve"/>
      <point x="-324" y="-142" type="line"/>
    </contour>
    <contour>
      <point x="-448" y="503" type="curve" smooth="yes"/>
      <point x="-448" y="555"/>
      <point x="-411" y="598"/>
      <point x="-320" y="604" type="curve"/>
      <point x="-320" y="373" type="line"/>
      <point x="-422" y="407"/>
      <point x="-448" y="447"/>
    </contour>
    <contour>
      <point x="-142" y="177" type="curve" smooth="yes"/>
      <point x="-142" y="107"/>
      <point x="-186" y="60"/>
      <point x="-275" y="51" type="curve"/>
      <point x="-275" y="304" type="line"/>
      <point x="-167" y="269"/>
      <point x="-142" y="227"/>
    </contour>
  </outline>
</glyph>
<glyph name="equal_colon_equal.middle" format="2">
  <advance width="614"/>
  <outline>
    <contour>
      <point x="306" y="434" type="curve" smooth="yes"/>
      <point x="350" y="434"/>
      <point x="378" y="459"/>
      <point x="378" y="501" type="curve" smooth="yes"/>
      <point x="378" y="544"/>
      <point x="355" y="571"/>
      <point x="308" y="571" type="curve" smooth="yes"/>
      <point x="264" y="571"/>
      <point x="236" y="540"/>
      <point x="236" y="504" type="curve" smooth="yes"/>
      <point x="236" y="457"/>
      <point x="268" y="434"/>
    </contour>
    <contour>
      <point x="-10" y="392" type="line"/>
      <point x="23" y="392" type="line"/>
      <point x="23" y="443" type="line"/>
      <point x="-10" y="443" type="line"/>
    </contour>
    <contour>
      <point x="591" y="392" type="line"/>
      <point x="624" y="392" type="line"/>
      <point x="624" y="443" type="line"/>
      <point x="591" y="443" type="line"/>
    </contour>
    <contour>
      <point x="-10" y="209" type="line"/>
      <point x="23" y="209" type="line"/>
      <point x="23" y="261" type="line"/>
      <point x="-10" y="261" type="line"/>
    </contour>
    <contour>
      <point x="591" y="209" type="line"/>
      <point x="624" y="209" type="line"/>
      <point x="624" y="261" type="line"/>
      <point x="591" y="261" type="line"/>
    </contour>
    <contour>
      <point x="306" y="84" type="curve" smooth="yes"/>
      <point x="350" y="84"/>
      <point x="378" y="109"/>
      <point x="378" y="151" type="curve" smooth="yes"/>
      <point x="378" y="194"/>
      <point x="355" y="221"/>
      <point x="308" y="221" type="curve" smooth="yes"/>
      <point x="264" y="221"/>
      <point x="236" y="190"/>
      <point x="236" y="154" type="curve" smooth="yes"/>
      <point x="236" y="107"/>
      <point x="268" y="84"/>
    </contour>
  </outline>
</glyph>
<glyph name="equal_exclam_equal.middle" format="2">
  <advance width="614"/>
  <outline>
    <contour>
      <point x="290" y="227" type="line"/>
      <point x="324" y="227" type="line"/>
      <point x="367" y="710" type="line"/>
      <point x="248" y="710" type="line"/>
    </contour>
    <contour>
      <point x="-10" y="392" type="line"/>
      <point x="43" y="392" type="line"/>
      <point x="43" y="443" type="line"/>
      <point x="-10" y="443" type="line"/>
    </contour>
    <contour>
      <point x="571" y="392" type="line"/>
      <point x="624" y="392" type="line"/>
      <point x="624" y="443" type="line"/>
      <point x="571" y="443" type="line"/>
    </contour>
    <contour>
      <point x="-10" y="209" type="line"/>
      <point x="43" y="209" type="line"/>
      <point x="43" y="261" type="line"/>
      <point x="-10" y="261" type="line"/>
    </contour>
    <contour>
      <point x="571" y="209" type="line"/>
      <point x="624" y="209" type="line"/>
      <point x="624" y="261" type="line"/>
      <point x="571" y="261" type="line"/>
    </contour>
    <contour>
      <point x="306" y="-15" type="curve" smooth="yes"/>
      <point x="344" y="-15"/>
      <point x="368" y="4"/>
      <point x="368" y="37" type="curve" smooth="yes"/>
      <point x="368" y="71"/>
      <point x="348" y="92"/>
      <point x="308" y="92" type="curve" smooth="yes"/>
      <point x="270" y="92"/>
      <point x="246" y="68"/>
      <point x="246" y="40" type="curve" smooth="yes"/>
      <point x="246" y="3"/>
      <point x="273" y="-15"/>
    </contour>
  </outline>
</glyph>
<glyph name="equal_greater_greater.end" format="2">
  <advance width="614"/>
  <outline>
    <contour>
      <point x="209" y="325" type="line"/>
      <point x="209" y="329" type="line"/>
      <point x="-183" y="665" type="line"/>
      <point x="-215" y="629" type="line"/>
      <point x="2" y="443" type="line"/>
      <point x="-1238" y="443" type="line"/>
      <point x="-1238" y="392" type="line"/>
      <point x="62" y="392" type="line"/>
      <point x="137" y="327" type="line"/>
      <point x="60" y="261" type="line"/>
      <point x="-1238" y="261" type="line"/>
      <point x="-1238" y="209" type="line"/>
      <point x="0" y="209" type="line"/>
      <point x="-215" y="25" type="line"/>
      <point x="-183" y="-11" type="line"/>
    </contour>
    <contour>
      <point x="150" y="-11" type="line"/>
      <point x="522" y="325" type="line"/>
      <point x="522" y="329" type="line"/>
      <point x="150" y="665" type="line"/>
      <point x="118" y="629" type="line"/>
      <point x="451" y="327" type="line"/>
      <point x="118" y="25" type="line"/>
    </contour>
  </outline>
</glyph>
<glyph name="equal_less_less.liga" format="2">
  <advance width="614"/>
  <outline>
    <contour>
      <point x="-140" y="392" type="line"/>
      <point x="122" y="629" type="line"/>
      <point x="90" y="665" type="line"/>
      <point x="-156" y="443" type="line"/>
      <point x="-1130" y="443" type="line"/>
      <point x="-1130" y="392" type="line"/>
    </contour>
    <contour>
      <point x="92" y="325" type="line"/>
      <point x="484" y="-11" type="line"/>
      <point x="516" y="25" type="line"/>
      <point x="164" y="327" type="line"/>
      <point x="516" y="629" type="line"/>
      <point x="484" y="665" type="line"/>
      <point x="92" y="329" type="line"/>
    </contour>
    <contour>
      <point x="-1130" y="209" type="line"/>
      <point x="-153" y="209" type="line"/>
      <point x="90" y="-11" type="line"/>
      <point x="122" y="25" type="line"/>
      <point x="-139" y="261" type="line"/>
      <point x="-1130" y="261" type="line"/>
    </contour>
  </outline>
</glyph>
<glyph name="equal_slash.liga" format="2">
  <advance width="614"/>
  <outline>
    <contour>
      <point x="-516" y="209" type="line"/>
      <point x="110" y="209" type="line"/>
      <point x="-58" y="-100" type="line"/>
      <point x="9" y="-100" type="line"/>
      <point x="472" y="755" type="line"/>
      <point x="407" y="755" type="line"/>
      <point x="237" y="443" type="line"/>
      <point x="-516" y="443" type="line"/>
      <point x="-516" y="392" type="line"/>
      <point x="210" y="392" type="line"/>
      <point x="138" y="261" type="line"/>
      <point x="-516" y="261" type="line"/>
    </contour>
  </outline>
</glyph>
<glyph name="exclam_asciitilde.liga" format="2">
  <advance width="614"/>
  <outline>
    <contour>
      <point x="247" y="308" type="line"/>
      <point x="186" y="174"/>
      <point x="172" y="161"/>
      <point x="148" y="161" type="curve" smooth="yes"/>
      <point x="117" y="161"/>
      <point x="98" y="169"/>
      <point x="-7" y="237" type="curve"/>
      <point x="23" y="317" type="line"/>
      <point x="53" y="391" type="line"/>
      <point x="96" y="365"/>
      <point x="119" y="357"/>
      <point x="142" y="357" type="curve" smooth="yes"/>
      <point x="190" y="357"/>
      <point x="231" y="382"/>
      <point x="295" y="545" type="curve"/>
      <point x="247" y="565" type="line"/>
      <point x="186" y="431"/>
      <point x="172" y="418"/>
      <point x="148" y="418" type="curve" smooth="yes"/>
      <point x="130" y="418"/>
      <point x="113" y="420"/>
      <point x="74" y="443" type="curve"/>
      <point x="200" y="755" type="line"/>
      <point x="135" y="755" type="line"/>
      <point x="28" y="471" type="line"/>
      <point x="-87" y="549"/>
      <point x="-109" y="558"/>
      <point x="-138" y="558" type="curve" smooth="yes"/>
      <point x="-190" y="558"/>
      <point x="-233" y="526"/>
      <point x="-295" y="370" type="curve"/>
      <point x="-247" y="350" type="line"/>
      <point x="-189" y="476"/>
      <point x="-171" y="497"/>
      <point x="-144" y="497" type="curve" smooth="yes"/>
      <point x="-119" y="497"/>
      <point x="-101" y="489"/>
      <point x="9" y="419" type="curve"/>
      <point x="-21" y="339" type="line"/>
      <point x="-51" y="266" type="line"/>
      <point x="-95" y="295"/>
      <point x="-115" y="301"/>
      <point x="-138" y="301" type="curve" smooth="yes"/>
      <point x="-190" y="301"/>
      <point x="-233" y="269"/>
      <point x="-295" y="113" type="curve"/>
      <point x="-247" y="93" type="line"/>
      <point x="-189" y="219"/>
      <point x="-171" y="240"/>
      <point x="-144" y="240" type="curve" smooth="yes"/>
      <point x="-126" y="240"/>
      <point x="-112" y="238"/>
      <point x="-72" y="215" type="curve"/>
      <point x="-200" y="-100" type="line"/>
      <point x="-133" y="-100" type="line"/>
      <point x="-26" y="186" type="line"/>
      <point x="74" y="117"/>
      <point x="106.73621867611888" y="100.0"/>
      <point x="142" y="100" type="curve" smooth="yes"/>
      <point x="190" y="100"/>
      <point x="231" y="125"/>
      <point x="295" y="288" type="curve"/>
    </contour>
  </outline>
</glyph>
<glyph name="five.den" format="2">
  <advance width="614"/>
  <outline>
    <contour>
      <point x="196" y="380" type="line"/>
      <point x="182" y="178" type="line"/>
      <point x="184" y="175" type="line"/>
      <point x="217" y="170" type="line"/>
      <point x="261" y="197"/>
      <point x="297" y="202"/>
      <point x="321" y="202" type="curve" smooth="yes"/>
      <point x="377" y="202"/>
      <point x="401" y="174"/>
      <point x="401" y="131" type="curve" smooth="yes"/>
      <point x="401" y="82"/>
      <point x="361" y="52"/>
      <point x="243" y="41" type="curve" smooth="yes"/>
      <point x="173" y="34" type="line"/>
      <point x="178" y="-10" type="line"/>
      <point x="245" y="-4" type="line" smooth="yes"/>
      <point x="395" y="9"/>
      <point x="451" y="57"/>
      <point x="451" y="131" type="curve" smooth="yes"/>
      <point x="451" y="203"/>
      <point x="403" y="243"/>
      <point x="330" y="243" type="curve" smooth="yes"/>
      <point x="300" y="243"/>
      <point x="267" y="237"/>
      <point x="228" y="213" type="curve"/>
      <point x="239" y="338" type="line"/>
      <point x="430" y="338" type="line"/>
      <point x="430" y="380" type="line"/>
    </contour>
  </outline>
</glyph>
<glyph name="gravecmb.cap" format="2">
  <anchor x="0" y="691" name="_aboveUC"/>
  <anchor x="0" y="661" name="_aboveUCx"/>
  <outline>
    <contour>
      <point x="79" y="764" type="line"/>
      <point x="-137" y="915" type="line"/>
      <point x="-171" y="869" type="line"/>
      <point x="54" y="731" type="line"/>
    </contour>
  </outline>
</glyph>
<glyph name="greater_hyphen.start" format="2">
  <advance width="614"/>
  <outline>
    <contour>
      <point x="624" y="352" type="line"/>
      <point x="-119" y="352" type="line"/>
      <point x="-484" y="665" type="line"/>
      <point x="-516" y="629" type="line"/>
      <point x="-164" y="327" type="line"/>
      <point x="-516" y="25" type="line"/>
      <point x="-484" y="-11" type="line"/>
      <point x="-120" y="301" type="line"/>
      <point x="624" y="301" type="line"/>
    </contour>
  </outline>
</glyph>
<glyph name="hyphen.start" format="2">
  <advance width="614"/>
  <outline>
    <contour>
      <point x="73" y="301" type="line"/>
      <point x="624" y="301" type="line"/>
      <point x="624" y="352" type="line"/>
      <point x="73" y="352" type="line"/>
    </contour>
  </outline>
</glyph>
<glyph name="hyphen_greater_greater.liga" format="2">
  <advance width="614"/>
  <outline>
    <contour>
      <point x="202" y="326" type="line"/>
      <point x="202" y="330" type="line"/>
      <point x="-190" y="666" type="line"/>
      <point x="-222" y="630" type="line"/>
      <point x="102" y="352" type="line"/>
      <point x="-1155" y="352" type="line"/>
      <point x="-1155" y="301" type="line"/>
      <point x="99" y="301" type="line"/>
      <point x="-222" y="26" type="line"/>
      <point x="-190" y="-10" type="line"/>
    </contour>
    <contour>
      <point x="150" y="-11" type="line"/>
      <point x="522" y="325" type="line"/>
      <point x="522" y="329" type="line"/>
      <point x="150" y="665" type="line"/>
      <point x="118" y="629" type="line"/>
      <point x="451" y="327" type="line"/>
      <point x="118" y="25" type="line"/>
    </contour>
  </outline>
</glyph>
<glyph name="hyphen_greater_greater_hyphen.m" format="2">
  <advance width="614"/>
  <outline>
    <contour>
      <point x="14" y="325" type="line"/>
      <point x="14" y="329" type="line"/>
      <point x="-378" y="665" type="line"/>
      <point x="-410" y="629" type="line"/>
      <point x="-87" y="352" type="line"/>
      <point x="-624" y="352" type="line"/>
      <point x="-624" y="301" type="line"/>
      <point x="-88" y="301" type="line"/>
      <point x="-410" y="25" type="line"/>
      <point x="-378" y="-11" type="line"/>
    </contour>
    <contour>
      <point x="-15" y="-11" type="line"/>
      <point x="330" y="301" type="line"/>
      <point x="624" y="301" type="line"/>
      <point x="624" y="352" type="line"/>
      <point x="332" y="352" type="line"/>
      <point x="-15" y="665" type="line"/>
      <point x="-47" y="629" type="line"/>
      <point x="286" y="327" type="line"/>
      <point x="-47" y="25" type="line"/>
    </contour>
  </outline>
</glyph>
<glyph name="less_dollar.liga" format="2">
  <advance width="614"/>
  <outline>
    <contour>
      <point x="343" y="-142" type="line"/>
      <point x="343" y="1" type="line"/>
      <point x="462" y="11"/>
      <point x="535" y="73"/>
      <point x="535" y="179" type="curve" smooth="yes"/>
      <point x="535" y="264"/>
      <point x="494" y="317"/>
      <point x="339" y="366" type="curve"/>
      <point x="339" y="604" type="line"/>
      <point x="384" y="602"/>
      <point x="437" y="592"/>
      <point x="504" y="570" type="curve"/>
      <point x="519" y="623" type="line"/>
      <point x="448" y="642"/>
      <point x="400" y="652"/>
      <point x="343" y="655" type="curve"/>
      <point x="343" y="797" type="line"/>
      <point x="290" y="797" type="line"/>
      <point x="290" y="654" type="line"/>
      <point x="162" y="645"/>
      <point x="103" y="573"/>
      <point x="103" y="499" type="curve" smooth="yes"/>
      <point x="103" y="418"/>
      <point x="151" y="351"/>
      <point x="294" y="311" type="curve"/>
      <point x="294" y="50" type="line"/>
      <point x="206" y="51"/>
      <point x="117" y="60"/>
      <point x="-54" y="141" type="curve" smooth="yes"/>
      <point x="-446" y="327" type="line"/>
      <point x="-78" y="502" type="line"/>
      <point x="-78" y="557" type="line"/>
      <point x="-491" y="354" type="line"/>
      <point x="-491" y="299" type="line"/>
      <point x="-78" y="96" type="line" smooth="yes"/>
      <point x="95" y="11"/>
      <point x="194" y="1"/>
      <point x="290" y="0" type="curve"/>
      <point x="290" y="-142" type="line"/>
    </contour>
    <contour>
      <point x="166" y="503" type="curve" smooth="yes"/>
      <point x="166" y="555"/>
      <point x="203" y="598"/>
      <point x="294" y="604" type="curve"/>
      <point x="294" y="373" type="line"/>
      <point x="192" y="407"/>
      <point x="166" y="447"/>
    </contour>
    <contour>
      <point x="472" y="177" type="curve" smooth="yes"/>
      <point x="472" y="107"/>
      <point x="428" y="60"/>
      <point x="339" y="51" type="curve"/>
      <point x="339" y="304" type="line"/>
      <point x="447" y="269"/>
      <point x="472" y="227"/>
    </contour>
  </outline>
</glyph>
<glyph name="less_dollar_greater.liga" format="2">
  <advance width="614"/>
  <outline>
    <contour>
      <point x="-271" y="-142" type="line"/>
      <point x="-271" y="1" type="line"/>
      <point x="-152" y="11"/>
      <point x="-79" y="73"/>
      <point x="-79" y="179" type="curve" smooth="yes"/>
      <point x="-79" y="264"/>
      <point x="-120" y="317"/>
      <point x="-275" y="366" type="curve"/>
      <point x="-275" y="605" type="line"/>
      <point x="-193" y="602"/>
      <point x="-109" y="583"/>
      <point x="55" y="507" type="curve" smooth="yes"/>
      <point x="446" y="326" type="line"/>
      <point x="79" y="151" type="line"/>
      <point x="79" y="96" type="line"/>
      <point x="492" y="299" type="line"/>
      <point x="492" y="354" type="line"/>
      <point x="79" y="552" type="line" smooth="yes"/>
      <point x="-88" y="632"/>
      <point x="-181" y="652"/>
      <point x="-271" y="655" type="curve"/>
      <point x="-271" y="797" type="line"/>
      <point x="-324" y="797" type="line"/>
      <point x="-324" y="654" type="line"/>
      <point x="-452" y="645"/>
      <point x="-511" y="573"/>
      <point x="-511" y="499" type="curve" smooth="yes"/>
      <point x="-511" y="418"/>
      <point x="-463" y="351"/>
      <point x="-320" y="311" type="curve"/>
      <point x="-320" y="50" type="line"/>
      <point x="-408" y="51"/>
      <point x="-497" y="60"/>
      <point x="-668" y="141" type="curve" smooth="yes"/>
      <point x="-1060" y="327" type="line"/>
      <point x="-692" y="502" type="line"/>
      <point x="-692" y="557" type="line"/>
      <point x="-1105" y="354" type="line"/>
      <point x="-1105" y="299" type="line"/>
      <point x="-692" y="96" type="line" smooth="yes"/>
      <point x="-519" y="11"/>
      <point x="-420" y="1"/>
      <point x="-324" y="0" type="curve"/>
      <point x="-324" y="-142" type="line"/>
    </contour>
    <contour>
      <point x="-448" y="503" type="curve" smooth="yes"/>
      <point x="-448" y="555"/>
      <point x="-411" y="598"/>
      <point x="-320" y="604" type="curve"/>
      <point x="-320" y="373" type="line"/>
      <point x="-422" y="407"/>
      <point x="-448" y="447"/>
    </contour>
    <contour>
      <point x="-142" y="177" type="curve" smooth="yes"/>
      <point x="-142" y="107"/>
      <point x="-186" y="60"/>
      <point x="-275" y="51" type="curve"/>
      <point x="-275" y="304" type="line"/>
      <point x="-167" y="269"/>
      <point x="-142" y="227"/>
    </contour>
  </outline>
</glyph>
<glyph name="less_less_hyphen.liga" format="2">
  <advance width="614"/>
  <outline>
    <contour>
      <point x="-823" y="325" type="line"/>
      <point x="-431" y="-11" type="line"/>
      <point x="-399" y="25" type="line"/>
      <point x="-721" y="301" type="line"/>
      <point x="541" y="301" type="line"/>
      <point x="541" y="352" type="line"/>
      <point x="-722" y="352" type="line"/>
      <point x="-399" y="629" type="line"/>
      <point x="-431" y="665" type="line"/>
      <point x="-823" y="329" type="line"/>
    </contour>
    <contour>
      <point x="-1136" y="325" type="line"/>
      <point x="-764" y="-11" type="line"/>
      <point x="-732" y="25" type="line"/>
      <point x="-1065" y="327" type="line"/>
      <point x="-732" y="629" type="line"/>
      <point x="-764" y="665" type="line"/>
      <point x="-1136" y="329" type="line"/>
    </contour>
  </outline>
</glyph>
<glyph name="less_slash.liga" format="2">
  <advance width="614"/>
  <outline>
    <contour>
      <point x="492" y="755" type="line"/>
      <point x="435" y="755" type="line"/>
      <point x="89" y="130" type="line"/>
      <point x="-362" y="321" type="line"/>
      <point x="51" y="497" type="line"/>
      <point x="51" y="552" type="line"/>
      <point x="-412" y="349" type="line"/>
      <point x="-412" y="294" type="line"/>
      <point x="65" y="85" type="line"/>
      <point x="-38" y="-100" type="line"/>
      <point x="21" y="-100" type="line"/>
    </contour>
  </outline>
</glyph>
<glyph name="macroncmb.cap" format="2">
  <anchor x="0" y="691" name="_aboveUC"/>
  <anchor x="0" y="661" name="_aboveUCx"/>
  <outline>
    <contour>
      <point x="-164" y="771" type="line"/>
      <point x="164" y="771" type="line"/>
      <point x="164" y="821" type="line"/>
      <point x="-164" y="821" type="line"/>
    </contour>
  </outline>
</glyph>
<glyph name="middotcat.cap" format="2">
  <advance width="614"/>
  <outline>
    <contour>
      <point x="231" y="288" type="curve" smooth="yes"/>
      <point x="275" y="288"/>
      <point x="302" y="313"/>
      <point x="302" y="357" type="curve" smooth="yes"/>
      <point x="302" y="399"/>
      <point x="278" y="425"/>
      <point x="231" y="425" type="curve" smooth="yes"/>
      <point x="187" y="425"/>
      <point x="160" y="400"/>
      <point x="160" y="356" type="curve" smooth="yes"/>
      <point x="160" y="314"/>
      <point x="184" y="288"/>
    </contour>
  </outline>
</glyph>
<glyph name="numbersign.end" format="2">
  <advance width="614"/>
  <outline>
    <contour>
      <point x="-10" y="186" type="line"/>
      <point x="138" y="186" type="line"/>
      <point x="100" y="-12" type="line"/>
      <point x="150" y="-12" type="line"/>
      <point x="189" y="190" type="line"/>
      <point x="353" y="190" type="line"/>
      <point x="313" y="-12" type="line"/>
      <point x="365" y="-12" type="line"/>
      <point x="403" y="186" type="line"/>
      <point x="542" y="186" type="line"/>
      <point x="542" y="236" type="line"/>
      <point x="413" y="236" type="line"/>
      <point x="449" y="424" type="line"/>
      <point x="571" y="424" type="line"/>
      <point x="571" y="475" type="line"/>
      <point x="459" y="475" type="line"/>
      <point x="496" y="666" type="line"/>
      <point x="445" y="666" type="line"/>
      <point x="407" y="471" type="line"/>
      <point x="244" y="471" type="line"/>
      <point x="282" y="666" type="line"/>
      <point x="231" y="666" type="line"/>
      <point x="194" y="475" type="line"/>
      <point x="-10" y="475" type="line"/>
      <point x="-10" y="424" type="line"/>
      <point x="184" y="424" type="line"/>
      <point x="148" y="236" type="line"/>
      <point x="-10" y="236" type="line"/>
    </contour>
    <contour>
      <point x="361" y="232" type="line"/>
      <point x="197" y="232" type="line"/>
      <point x="235" y="428" type="line"/>
      <point x="399" y="428" type="line"/>
    </contour>
  </outline>
</glyph>
<glyph name="numbersign.middle" format="2">
  <advance width="614"/>
  <outline>
    <contour>
      <point x="-10" y="186" type="line"/>
      <point x="148" y="186" type="line"/>
      <point x="110" y="-12" type="line"/>
      <point x="160" y="-12" type="line"/>
      <point x="199" y="190" type="line"/>
      <point x="363" y="190" type="line"/>
      <point x="323" y="-12" type="line"/>
      <point x="375" y="-12" type="line"/>
      <point x="413" y="186" type="line"/>
      <point x="624" y="186" type="line"/>
      <point x="624" y="236" type="line"/>
      <point x="423" y="236" type="line"/>
      <point x="459" y="424" type="line"/>
      <point x="624" y="424" type="line"/>
      <point x="624" y="475" type="line"/>
      <point x="469" y="475" type="line"/>
      <point x="506" y="666" type="line"/>
      <point x="455" y="666" type="line"/>
      <point x="417" y="471" type="line"/>
      <point x="254" y="471" type="line"/>
      <point x="292" y="666" type="line"/>
      <point x="241" y="666" type="line"/>
      <point x="204" y="475" type="line"/>
      <point x="-10" y="475" type="line"/>
      <point x="-10" y="424" type="line"/>
      <point x="194" y="424" type="line"/>
      <point x="158" y="236" type="line"/>
      <point x="-10" y="236" type="line"/>
    </contour>
    <contour>
      <point x="371" y="232" type="line"/>
      <point x="207" y="232" type="line"/>
      <point x="245" y="428" type="line"/>
      <point x="409" y="428" type="line"/>
    </contour>
  </outline>
</glyph>
<glyph name="numbersign.start" format="2">
  <advance width="614"/>
  <outline>
    <contour>
      <point x="43" y="186" type="line"/>
      <point x="158" y="186" type="line"/>
      <point x="120" y="-12" type="line"/>
      <point x="170" y="-12" type="line"/>
      <point x="209" y="190" type="line"/>
      <point x="373" y="190" type="line"/>
      <point x="333" y="-12" type="line"/>
      <point x="385" y="-12" type="line"/>
      <point x="423" y="186" type="line"/>
      <point x="624" y="186" type="line"/>
      <point x="624" y="236" type="line"/>
      <point x="433" y="236" type="line"/>
      <point x="469" y="424" type="line"/>
      <point x="624" y="424" type="line"/>
      <point x="624" y="475" type="line"/>
      <point x="479" y="475" type="line"/>
      <point x="516" y="666" type="line"/>
      <point x="465" y="666" type="line"/>
      <point x="427" y="471" type="line"/>
      <point x="264" y="471" type="line"/>
      <point x="302" y="666" type="line"/>
      <point x="251" y="666" type="line"/>
      <point x="214" y="475" type="line"/>
      <point x="73" y="475" type="line"/>
      <point x="73" y="424" type="line"/>
      <point x="204" y="424" type="line"/>
      <point x="168" y="236" type="line"/>
      <point x="43" y="236" type="line"/>
    </contour>
    <contour>
      <point x="381" y="232" type="line"/>
      <point x="217" y="232" type="line"/>
      <point x="255" y="428" type="line"/>
      <point x="419" y="428" type="line"/>
    </contour>
  </outline>
</glyph>
<glyph name="numbersign_braceleft.liga" format="2">
  <advance width="614"/>
  <outline>
    <contour>
      <point x="175" y="-23" type="curve" smooth="yes"/>
      <point x="175" y="-65"/>
      <point x="200" y="-94"/>
      <point x="270" y="-104" type="curve" smooth="yes"/>
      <point x="493" y="-135" type="line"/>
      <point x="500" y="-86" type="line"/>
      <point x="277" y="-55" type="line" smooth="yes"/>
      <point x="242" y="-50"/>
      <point x="234" y="-38"/>
      <point x="234" y="-23" type="curve" smooth="yes"/>
      <point x="234" y="-11"/>
      <point x="240" y="1"/>
      <point x="268" y="34" type="curve" smooth="yes"/>
      <point x="317" y="91" type="line" smooth="yes"/>
      <point x="370" y="152"/>
      <point x="374" y="169"/>
      <point x="374" y="190" type="curve" smooth="yes"/>
      <point x="374" y="230"/>
      <point x="352" y="263"/>
      <point x="119" y="329" type="curve"/>
      <point x="119" y="333" type="line"/>
      <point x="352" y="399"/>
      <point x="374" y="432"/>
      <point x="374" y="472" type="curve" smooth="yes"/>
      <point x="374" y="493"/>
      <point x="370" y="510"/>
      <point x="317" y="571" type="curve" smooth="yes"/>
      <point x="268" y="628" type="line" smooth="yes"/>
      <point x="240" y="661"/>
      <point x="234" y="673"/>
      <point x="234" y="685" type="curve" smooth="yes"/>
      <point x="234" y="700"/>
      <point x="242" y="712"/>
      <point x="277" y="717" type="curve" smooth="yes"/>
      <point x="500" y="748" type="line"/>
      <point x="493" y="797" type="line"/>
      <point x="270" y="766" type="line" smooth="yes"/>
      <point x="200" y="756"/>
      <point x="175" y="727"/>
      <point x="175" y="685" type="curve" smooth="yes"/>
      <point x="175" y="662"/>
      <point x="188" y="635"/>
      <point x="226" y="592" type="curve" smooth="yes"/>
      <point x="305.0504737641743" y="500.0433264375932"/>
      <point x="311" y="489"/>
      <point x="312" y="475" type="curve"/>
      <point x="-95" y="475" type="line"/>
      <point x="-58" y="666" type="line"/>
      <point x="-109" y="666" type="line"/>
      <point x="-147" y="471" type="line"/>
      <point x="-290" y="471" type="line"/>
      <point x="-252" y="666" type="line"/>
      <point x="-303" y="666" type="line"/>
      <point x="-340" y="475" type="line"/>
      <point x="-481" y="475" type="line"/>
      <point x="-481" y="424" type="line"/>
      <point x="-350" y="424" type="line"/>
      <point x="-386" y="236" type="line"/>
      <point x="-511" y="236" type="line"/>
      <point x="-511" y="186" type="line"/>
      <point x="-396" y="186" type="line"/>
      <point x="-434" y="-12" type="line"/>
      <point x="-384" y="-12" type="line"/>
      <point x="-345" y="190" type="line"/>
      <point x="-201" y="190" type="line"/>
      <point x="-241" y="-12" type="line"/>
      <point x="-189" y="-12" type="line"/>
      <point x="-151" y="186" type="line"/>
      <point x="312" y="186" type="line"/>
      <point x="311" y="173"/>
      <point x="304.13136861131215" y="160.8875104254039"/>
      <point x="226" y="70" type="curve" smooth="yes"/>
      <point x="188" y="27"/>
      <point x="175" y="0"/>
    </contour>
    <contour>
      <point x="-193" y="232" type="line"/>
      <point x="-337" y="232" type="line"/>
      <point x="-299" y="428" type="line"/>
      <point x="-155" y="428" type="line"/>
    </contour>
    <contour>
      <point x="49" y="361" type="curve"/>
      <point x="49" y="301" type="line"/>
      <point x="158" y="272"/>
      <point x="222" y="252"/>
      <point x="259" y="236" type="curve"/>
      <point x="-141" y="236" type="line"/>
      <point x="-105" y="424" type="line"/>
      <point x="254" y="424" type="line"/>
      <point x="216" y="408"/>
      <point x="153" y="389"/>
    </contour>
  </outline>
</glyph>
